OxygenSans-Regular.ufo
<glyph name="exclam" format="1">
  <advance width="526"/>
  <unicode hex="0021"/>
  <outline>
    <contour>
      <point x="264" y="-12" type="curve" smooth="yes"/>
      <point x="345" y="-12"/>
      <point x="385" y="47"/>
      <point x="385" y="108" type="curve" smooth="yes"/>
      <point x="385" y="168"/>
      <point x="345" y="228"/>
      <point x="264" y="228" type="curve" smooth="yes"/>
      <point x="183" y="228"/>
      <point x="144" y="168"/>
      <point x="144" y="108" type="curve" smooth="yes"/>
      <point x="144" y="48"/>
      <point x="183" y="-12"/>
    </contour>
    <contour>
      <point x="228" y="421" type="line"/>
      <point x="302" y="421" type="line"/>
      <point x="355" y="1324" type="line"/>
      <point x="355" y="1461" type="line"/>
      <point x="168" y="1461" type="line"/>
      <point x="168" y="1324" type="line"/>
    </contour>
  </outline>
</glyph>
<glyph name="quotedbl" format="1">
  <advance width="627"/>
  <unicode hex="0022"/>
  <outline>
    <contour>
      <point x="417" y="985" type="line"/>
      <point x="515" y="985" type="line"/>
      <point x="544" y="1461" type="line"/>
      <point x="384" y="1461" type="line"/>
    </contour>
    <contour>
      <point x="135" y="985" type="line"/>
      <point x="232" y="985" type="line"/>
      <point x="260" y="1461" type="line"/>
      <point x="101" y="1461" type="line"/>
    </contour>
  </outline>
</glyph>
<glyph name="numbersign" format="1">
  <advance width="1155"/>
  <unicode hex="0023"/>
  <outline>
    <contour>
      <point x="679" y="517" type="line"/>
      <point x="438" y="517" type="line"/>
      <point x="520" y="936" type="line"/>
      <point x="761" y="936" type="line"/>
    </contour>
    <contour>
      <point x="576" y="-17" type="line"/>
      <point x="696" y="-17" type="line"/>
      <point x="782" y="422" type="line"/>
      <point x="959" y="422" type="line"/>
      <point x="974" y="517" type="line"/>
      <point x="801" y="517" type="line"/>
      <point x="883" y="936" type="line"/>
      <point x="1045" y="936" type="line"/>
      <point x="1060" y="1030" type="line"/>
      <point x="901" y="1030" type="line"/>
      <point x="977" y="1419" type="line"/>
      <point x="856" y="1419" type="line"/>
      <point x="780" y="1030" type="line"/>
      <point x="539" y="1030" type="line"/>
      <point x="615" y="1419" type="line"/>
      <point x="493" y="1419" type="line"/>
      <point x="417" y="1030" type="line"/>
      <point x="243" y="1030" type="line"/>
      <point x="230" y="936" type="line"/>
      <point x="399" y="936" type="line"/>
      <point x="317" y="517" type="line"/>
      <point x="156" y="517" type="line"/>
      <point x="143" y="422" type="line"/>
      <point x="299" y="422" type="line"/>
      <point x="213" y="-17" type="line"/>
      <point x="334" y="-17" type="line"/>
      <point x="419" y="422" type="line"/>
      <point x="661" y="422" type="line"/>
    </contour>
  </outline>
</glyph>
<glyph name="percent" format="1">
  <advance width="1779"/>
  <unicode hex="0025"/>
  <outline>
    <contour>
      <point x="1383" y="-13" type="curve" smooth="yes"/>
      <point x="1156" y="-13"/>
      <point x="1043" y="150"/>
      <point x="1043" y="359" type="curve" smooth="yes"/>
      <point x="1043" y="569"/>
      <point x="1160" y="730"/>
      <point x="1383" y="730" type="curve" smooth="yes"/>
      <point x="1611" y="730"/>
      <point x="1725" y="572"/>
      <point x="1725" y="359" type="curve" smooth="yes"/>
      <point x="1725" y="150"/>
      <point x="1608" y="-13"/>
    </contour>
    <contour>
      <point x="1384" y="86" type="curve" smooth="yes"/>
      <point x="1536" y="86"/>
      <point x="1602" y="206"/>
      <point x="1602" y="360" type="curve" smooth="yes"/>
      <point x="1602" y="519"/>
      <point x="1535" y="631"/>
      <point x="1384" y="631" type="curve" smooth="yes"/>
      <point x="1231" y="631"/>
      <point x="1165" y="513"/>
      <point x="1165" y="360" type="curve" smooth="yes"/>
      <point x="1165" y="202"/>
      <point x="1232" y="86"/>
    </contour>
    <contour>
      <point x="395" y="804" type="curve" smooth="yes"/>
      <point x="547" y="804"/>
      <point x="613" y="924"/>
      <point x="613" y="1078" type="curve" smooth="yes"/>
      <point x="613" y="1237"/>
      <point x="546" y="1349"/>
      <point x="395" y="1349" type="curve" smooth="yes"/>
      <point x="242" y="1349"/>
      <point x="175" y="1231"/>
      <point x="175" y="1078" type="curve" smooth="yes"/>
      <point x="175" y="920"/>
      <point x="243" y="804"/>
    </contour>
    <contour>
      <point x="394" y="705" type="curve" smooth="yes"/>
      <point x="167" y="705"/>
      <point x="54" y="868"/>
      <point x="54" y="1077" type="curve" smooth="yes"/>
      <point x="54" y="1287"/>
      <point x="171" y="1448"/>
      <point x="394" y="1448" type="curve" smooth="yes"/>
      <point x="622" y="1448"/>
      <point x="736" y="1290"/>
      <point x="736" y="1077" type="curve" smooth="yes"/>
      <point x="736" y="868"/>
      <point x="619" y="705"/>
    </contour>
    <contour>
      <point x="407" y="0" type="line"/>
      <point x="1236" y="1437" type="line"/>
      <point x="1366" y="1437" type="line"/>
      <point x="546" y="0" type="line"/>
    </contour>
  </outline>
</glyph>
<glyph name="ampersand" format="1">
  <advance width="1391"/>
  <unicode hex="0026"/>
  <outline>
    <contour>
      <point x="630" y="-18" type="curve" smooth="yes"/>
      <point x="826" y="-18"/>
      <point x="905" y="18"/>
      <point x="1030" y="111" type="curve"/>
      <point x="1158" y="-18" type="line"/>
      <point x="1313" y="45" type="line"/>
      <point x="1143" y="219" type="line"/>
      <point x="1210" y="289"/>
      <point x="1288" y="410"/>
      <point x="1326" y="495" type="curve"/>
      <point x="1203" y="576" type="line"/>
      <point x="1168" y="497"/>
      <point x="1100" y="383"/>
      <point x="1046" y="326" type="curve"/>
      <point x="650" y="766" type="line"/>
      <point x="835" y="855"/>
      <point x="992" y="984"/>
      <point x="992" y="1154" type="curve" smooth="yes"/>
      <point x="992" y="1354"/>
      <point x="839" y="1456"/>
      <point x="641" y="1456" type="curve" smooth="yes"/>
      <point x="424" y="1456"/>
      <point x="260" y="1333"/>
      <point x="260" y="1140" type="curve" smooth="yes"/>
      <point x="260" y="1014"/>
      <point x="321" y="903"/>
      <point x="423" y="794" type="curve"/>
      <point x="266" y="703"/>
      <point x="132" y="585"/>
      <point x="132" y="375" type="curve" smooth="yes"/>
      <point x="132" y="127"/>
      <point x="317" y="-18"/>
    </contour>
    <contour>
      <point x="640" y="121" type="curve" smooth="yes"/>
      <point x="434" y="121"/>
      <point x="306" y="215"/>
      <point x="306" y="384" type="curve" smooth="yes"/>
      <point x="306" y="520"/>
      <point x="389" y="621"/>
      <point x="511" y="692" type="curve"/>
      <point x="934" y="220" type="line"/>
      <point x="849" y="151"/>
      <point x="775" y="121"/>
    </contour>
    <contour>
      <point x="565" y="865" type="curve"/>
      <point x="459" y="966"/>
      <point x="421" y="1057"/>
      <point x="421" y="1152" type="curve" smooth="yes"/>
      <point x="421" y="1264"/>
      <point x="525" y="1327"/>
      <point x="644" y="1327" type="curve" smooth="yes"/>
      <point x="766" y="1327"/>
      <point x="830" y="1268"/>
      <point x="830" y="1155" type="curve" smooth="yes"/>
      <point x="830" y="1032"/>
      <point x="699" y="930"/>
    </contour>
  </outline>
</glyph>
<glyph name="quotesingle" format="1">
  <advance width="335"/>
  <unicode hex="0027"/>
  <outline>
    <contour>
      <point x="118" y="939" type="line"/>
      <point x="226" y="939" type="line"/>
      <point x="245" y="1433" type="line"/>
      <point x="98" y="1433" type="line"/>
    </contour>
  </outline>
</glyph>
<glyph name="parenleft" format="1">
  <advance width="666"/>
  <unicode hex="0028"/>
  <outline>
    <contour>
      <point x="426" y="-217" type="curve"/>
      <point x="593" y="-217" type="line"/>
      <point x="415" y="66"/>
      <point x="339" y="372"/>
      <point x="339" y="688" type="curve" smooth="yes"/>
      <point x="339" y="994"/>
      <point x="426" y="1282"/>
      <point x="594" y="1539" type="curve"/>
      <point x="424" y="1539" type="line"/>
      <point x="262" y="1306"/>
      <point x="164" y="1008"/>
      <point x="164" y="684" type="curve" smooth="yes"/>
      <point x="164" y="335"/>
      <point x="263" y="11"/>
    </contour>
  </outline>
</glyph>
<glyph name="parenright" format="1">
  <advance width="669"/>
  <unicode hex="0029"/>
  <outline>
    <contour>
      <point x="96" y="-217" type="curve"/>
      <point x="264" y="-217" type="line"/>
      <point x="422" y="0"/>
      <point x="524" y="341"/>
      <point x="524" y="692" type="curve" smooth="yes"/>
      <point x="524" y="1014"/>
      <point x="431" y="1295"/>
      <point x="264" y="1539" type="curve"/>
      <point x="95" y="1539" type="line"/>
      <point x="277" y="1247"/>
      <point x="349" y="991"/>
      <point x="349" y="693" type="curve" smooth="yes"/>
      <point x="349" y="368"/>
      <point x="260" y="31"/>
    </contour>
  </outline>
</glyph>
<glyph name="asterisk" format="1">
  <advance width="1121"/>
  <unicode hex="002A"/>
  <outline>
    <contour>
      <point x="373" y="551" type="line"/>
      <point x="226" y="641" type="line"/>
      <point x="466" y="963" type="line"/>
      <point x="114" y="1044" type="line"/>
      <point x="161" y="1209" type="line"/>
      <point x="508" y="1063" type="line"/>
      <point x="473" y="1460" type="line"/>
      <point x="649" y="1460" type="line"/>
      <point x="613" y="1063" type="line"/>
      <point x="962" y="1209" type="line"/>
      <point x="1009" y="1044" type="line"/>
      <point x="652" y="963" type="line"/>
      <point x="692" y="909"/>
      <point x="814" y="748"/>
      <point x="898" y="641" type="curve"/>
      <point x="846" y="609"/>
      <point x="804" y="583"/>
      <point x="752" y="551" type="curve"/>
      <point x="556" y="900" type="line"/>
    </contour>
  </outline>
</glyph>
<glyph name="plus" format="1">
  <advance width="1064"/>
  <unicode hex="002B"/>
  <outline>
    <contour>
      <point x="479" y="167" type="line"/>
      <point x="615" y="167" type="line"/>
      <point x="615" y="565" type="line"/>
      <point x="990" y="565" type="line"/>
      <point x="990" y="691" type="line"/>
      <point x="616" y="691" type="line"/>
      <point x="616" y="1084" type="line"/>
      <point x="480" y="1084" type="line"/>
      <point x="480" y="691" type="line"/>
      <point x="100" y="691" type="line"/>
      <point x="100" y="565" type="line"/>
      <point x="479" y="565" type="line"/>
    </contour>
  </outline>
</glyph>
<glyph name="comma" format="1">
  <advance width="450"/>
  <unicode hex="002C"/>
  <outline>
    <contour>
      <point x="115" y="-269" type="curve"/>
      <point x="224" y="-269" type="line"/>
      <point x="224" y="-269"/>
      <point x="338" y="159"/>
      <point x="338" y="184" type="curve"/>
      <point x="340" y="226" type="line"/>
      <point x="163" y="226" type="line"/>
      <point x="163" y="164"/>
      <point x="115" y="-269"/>
    </contour>
  </outline>
</glyph>
<glyph name="hyphen" format="1">
  <advance width="670"/>
  <unicode hex="002D"/>
  <outline>
    <contour>
      <point x="89" y="480" type="line"/>
      <point x="569" y="480" type="line"/>
      <point x="569" y="615" type="line"/>
      <point x="89" y="615" type="line"/>
    </contour>
  </outline>
</glyph>
<glyph name="period" format="1">
  <advance width="459"/>
  <unicode hex="002E"/>
  <outline>
    <contour>
      <point x="241" y="-9" type="curve" smooth="yes"/>
      <point x="317" y="-9"/>
      <point x="355" y="48"/>
      <point x="355" y="106" type="curve" smooth="yes"/>
      <point x="355" y="164"/>
      <point x="317" y="222"/>
      <point x="241" y="222" type="curve" smooth="yes"/>
      <point x="164" y="222"/>
      <point x="126" y="164"/>
      <point x="126" y="106" type="curve" smooth="yes"/>
      <point x="126" y="48"/>
      <point x="165" y="-9"/>
    </contour>
  </outline>
</glyph>
<glyph name="slash" format="1">
  <advance width="928"/>
  <unicode hex="002F"/>
  <outline>
    <contour>
      <point x="81" y="-191" type="line"/>
      <point x="214" y="-191" type="line"/>
      <point x="873" y="1412" type="line"/>
      <point x="737" y="1412" type="line"/>
    </contour>
  </outline>
</glyph>
<glyph name="zero" format="1">
  <advance width="1177"/>
  <unicode hex="0030"/>
  <outline>
    <contour>
      <point x="593" y="119" type="curve" smooth="yes"/>
      <point x="392" y="119"/>
      <point x="277" y="325"/>
      <point x="277" y="719" type="curve" smooth="yes"/>
      <point x="277" y="1095"/>
      <point x="392" y="1307"/>
      <point x="593" y="1307" type="curve" smooth="yes"/>
      <point x="794" y="1307"/>
      <point x="901" y="1119"/>
      <point x="901" y="719" type="curve" smooth="yes"/>
      <point x="901" y="325"/>
      <point x="794" y="119"/>
    </contour>
    <contour>
      <point x="593" y="-27" type="curve" smooth="yes"/>
      <point x="942" y="-27"/>
      <point x="1081" y="289"/>
      <point x="1081" y="713" type="curve" smooth="yes"/>
      <point x="1081" y="1157"/>
      <point x="928" y="1454"/>
      <point x="593" y="1454" type="curve" smooth="yes"/>
      <point x="258" y="1454"/>
      <point x="96" y="1157"/>
      <point x="96" y="713" type="curve" smooth="yes"/>
      <point x="96" y="289"/>
      <point x="244" y="-27"/>
    </contour>
  </outline>
</glyph>
<glyph name="one" format="1">
  <advance width="1150"/>
  <unicode hex="0031"/>
  <outline>
    <contour>
      <point x="204" y="0" type="line"/>
      <point x="1040" y="0" type="line"/>
      <point x="1040" y="140" type="line"/>
      <point x="664" y="140" type="line"/>
      <point x="731" y="73" type="line"/>
      <point x="731" y="1437" type="line"/>
      <point x="566" y="1437" type="line"/>
      <point x="489" y="1383"/>
      <point x="321" y="1331"/>
      <point x="232" y="1311" type="curve"/>
      <point x="232" y="1167" type="line"/>
      <point x="337" y="1182"/>
      <point x="519" y="1239"/>
      <point x="592" y="1299" type="curve"/>
      <point x="550" y="1323" type="line"/>
      <point x="550" y="74" type="line"/>
      <point x="617" y="140" type="line"/>
      <point x="204" y="140" type="line"/>
    </contour>
  </outline>
</glyph>
<glyph name="two" format="1">
  <advance width="1177"/>
  <unicode hex="0032"/>
  <outline>
    <contour>
      <point x="157" y="0" type="line"/>
      <point x="996" y="0" type="line"/>
      <point x="1006" y="140" type="line"/>
      <point x="263" y="140" type="line"/>
      <point x="288" y="79" type="line"/>
      <point x="746" y="565" type="line" smooth="yes"/>
      <point x="930" y="758"/>
      <point x="1002" y="863"/>
      <point x="1002" y="1062" type="curve" smooth="yes"/>
      <point x="1002" y="1366"/>
      <point x="742" y="1456"/>
      <point x="563" y="1456" type="curve" smooth="yes"/>
      <point x="407" y="1456"/>
      <point x="247" y="1402"/>
      <point x="155" y="1338" type="curve"/>
      <point x="209" y="1202" type="line"/>
      <point x="299" y="1259"/>
      <point x="429" y="1302"/>
      <point x="549" y="1302" type="curve" smooth="yes"/>
      <point x="668" y="1302"/>
      <point x="824" y="1255"/>
      <point x="824" y="1046" type="curve" smooth="yes"/>
      <point x="824" y="893"/>
      <point x="747" y="807"/>
      <point x="632" y="682" type="curve" smooth="yes"/>
      <point x="134" y="143" type="line"/>
    </contour>
  </outline>
</glyph>
<glyph name="three" format="1">
  <advance width="1177"/>
  <unicode hex="0033"/>
  <outline>
    <contour>
      <point x="553" y="-22" type="curve" smooth="yes"/>
      <point x="843" y="-22"/>
      <point x="1043" y="128"/>
      <point x="1043" y="389" type="curve" smooth="yes"/>
      <point x="1043" y="592"/>
      <point x="923" y="723"/>
      <point x="745" y="761" type="curve"/>
      <point x="908" y="805"/>
      <point x="1006" y="906"/>
      <point x="1006" y="1092" type="curve" smooth="yes"/>
      <point x="1006" y="1321"/>
      <point x="799" y="1456"/>
      <point x="548" y="1456" type="curve" smooth="yes"/>
      <point x="393" y="1456"/>
      <point x="259" y="1418"/>
      <point x="144" y="1347" type="curve"/>
      <point x="200" y="1217" type="line"/>
      <point x="293" y="1276"/>
      <point x="419" y="1313"/>
      <point x="540" y="1313" type="curve" smooth="yes"/>
      <point x="707" y="1313"/>
      <point x="830" y="1230"/>
      <point x="830" y="1080" type="curve" smooth="yes"/>
      <point x="830" y="869"/>
      <point x="632" y="835"/>
      <point x="429" y="829" type="curve"/>
      <point x="382" y="829" type="line"/>
      <point x="382" y="685" type="line"/>
      <point x="427" y="685" type="line"/>
      <point x="672" y="680"/>
      <point x="863" y="637"/>
      <point x="863" y="391" type="curve" smooth="yes"/>
      <point x="863" y="209"/>
      <point x="732" y="127"/>
      <point x="540" y="127" type="curve" smooth="yes"/>
      <point x="410" y="127"/>
      <point x="288" y="169"/>
      <point x="208" y="218" type="curve"/>
      <point x="149" y="92" type="line"/>
      <point x="234" y="37"/>
      <point x="377" y="-22"/>
    </contour>
  </outline>
</glyph>
<glyph name="four" format="1">
  <advance width="1177"/>
  <unicode hex="0034"/>
  <outline>
    <contour>
      <point x="757" y="0" type="line"/>
      <point x="930" y="0" type="line"/>
      <point x="930" y="360" type="line"/>
      <point x="1082" y="360" type="line"/>
      <point x="1094" y="500" type="line"/>
      <point x="930" y="500" type="line"/>
      <point x="930" y="1437" type="line"/>
      <point x="710" y="1437" type="line"/>
      <point x="127" y="512" type="line"/>
      <point x="127" y="360" type="line"/>
      <point x="757" y="360" type="line"/>
    </contour>
    <contour>
      <point x="281" y="499" type="line"/>
      <point x="757" y="1295" type="line"/>
      <point x="757" y="499" type="line"/>
    </contour>
  </outline>
</glyph>
<glyph name="five" format="1">
  <advance width="1177"/>
  <unicode hex="0035"/>
  <outline>
    <contour>
      <point x="551" y="-20" type="curve" smooth="yes"/>
      <point x="841" y="-20"/>
      <point x="1058" y="152"/>
      <point x="1058" y="457" type="curve" smooth="yes"/>
      <point x="1058" y="702"/>
      <point x="901" y="899"/>
      <point x="628" y="899" type="curve" smooth="yes"/>
      <point x="516" y="899"/>
      <point x="441" y="868"/>
      <point x="376" y="823" type="curve"/>
      <point x="408" y="1293" type="line"/>
      <point x="985" y="1293" type="line"/>
      <point x="999" y="1437" type="line"/>
      <point x="249" y="1437" type="line"/>
      <point x="205" y="669" type="line"/>
      <point x="346" y="651" type="line"/>
      <point x="407" y="717"/>
      <point x="502" y="756"/>
      <point x="595" y="756" type="curve" smooth="yes"/>
      <point x="791" y="756"/>
      <point x="873" y="623"/>
      <point x="873" y="456" type="curve" smooth="yes"/>
      <point x="873" y="246"/>
      <point x="735" y="125"/>
      <point x="533" y="125" type="curve" smooth="yes"/>
      <point x="404" y="125"/>
      <point x="276" y="185"/>
      <point x="205" y="231" type="curve"/>
      <point x="143" y="102" type="line"/>
      <point x="226" y="49"/>
      <point x="387" y="-20"/>
    </contour>
  </outline>
</glyph>
<glyph name="six" format="1">
  <advance width="1177"/>
  <unicode hex="0036"/>
  <outline>
    <contour>
      <point x="604" y="-19" type="curve" smooth="yes"/>
      <point x="892" y="-19"/>
      <point x="1080" y="176"/>
      <point x="1080" y="430" type="curve" smooth="yes"/>
      <point x="1080" y="690"/>
      <point x="874" y="862"/>
      <point x="637" y="862" type="curve" smooth="yes"/>
      <point x="422" y="862"/>
      <point x="304" y="688"/>
      <point x="289" y="671" type="curve"/>
      <point x="320" y="641" type="line"/>
      <point x="320" y="641"/>
      <point x="477" y="846"/>
      <point x="551" y="955" type="curve"/>
      <point x="888" y="1437" type="line"/>
      <point x="680" y="1437" type="line"/>
      <point x="344" y="956" type="line" smooth="yes"/>
      <point x="217" y="774"/>
      <point x="129" y="643"/>
      <point x="129" y="434" type="curve" smooth="yes"/>
      <point x="129" y="190"/>
      <point x="302" y="-19"/>
    </contour>
    <contour>
      <point x="599" y="122" type="curve" smooth="yes"/>
      <point x="403" y="122"/>
      <point x="304" y="258"/>
      <point x="304" y="423" type="curve" smooth="yes"/>
      <point x="304" y="647"/>
      <point x="469" y="723"/>
      <point x="605" y="723" type="curve" smooth="yes"/>
      <point x="797" y="723"/>
      <point x="902" y="602"/>
      <point x="902" y="429" type="curve" smooth="yes"/>
      <point x="902" y="263"/>
      <point x="796" y="122"/>
    </contour>
  </outline>
</glyph>
<glyph name="seven" format="1">
  <advance width="1177"/>
  <unicode hex="0037"/>
  <outline>
    <contour>
      <point x="335" y="1" type="line"/>
      <point x="523" y="1" type="line"/>
      <point x="1021" y="1309" type="line"/>
      <point x="1021" y="1437" type="line"/>
      <point x="167" y="1437" type="line"/>
      <point x="184" y="1290" type="line"/>
      <point x="824" y="1290" type="line"/>
    </contour>
  </outline>
</glyph>
<glyph name="eight" format="1">
  <advance width="1178"/>
  <unicode hex="0038"/>
  <outline>
    <contour>
      <point x="588" y="-19" type="curve" smooth="yes"/>
      <point x="842" y="-19"/>
      <point x="1048" y="107"/>
      <point x="1048" y="361" type="curve" smooth="yes"/>
      <point x="1048" y="545"/>
      <point x="941" y="695"/>
      <point x="769" y="755" type="curve"/>
      <point x="919" y="814"/>
      <point x="1016" y="924"/>
      <point x="1016" y="1098" type="curve" smooth="yes"/>
      <point x="1016" y="1328"/>
      <point x="839" y="1456"/>
      <point x="588" y="1456" type="curve" smooth="yes"/>
      <point x="338" y="1456"/>
      <point x="160" y="1328"/>
      <point x="160" y="1098" type="curve" smooth="yes"/>
      <point x="160" y="924"/>
      <point x="270" y="805"/>
      <point x="416" y="753" type="curve"/>
      <point x="236" y="687"/>
      <point x="130" y="557"/>
      <point x="130" y="361" type="curve" smooth="yes"/>
      <point x="130" y="107"/>
      <point x="336" y="-19"/>
    </contour>
    <contour>
      <point x="588" y="119" type="curve" smooth="yes"/>
      <point x="394" y="119"/>
      <point x="303" y="212"/>
      <point x="303" y="377" type="curve" smooth="yes"/>
      <point x="303" y="547"/>
      <point x="418" y="647"/>
      <point x="588" y="686" type="curve"/>
      <point x="760" y="647"/>
      <point x="873" y="542"/>
      <point x="873" y="378" type="curve" smooth="yes"/>
      <point x="873" y="206"/>
      <point x="789" y="119"/>
    </contour>
    <contour>
      <point x="588" y="810" type="curve"/>
      <point x="415" y="850"/>
      <point x="330" y="949"/>
      <point x="330" y="1101" type="curve" smooth="yes"/>
      <point x="330" y="1238"/>
      <point x="430" y="1324"/>
      <point x="588" y="1324" type="curve" smooth="yes"/>
      <point x="748" y="1324"/>
      <point x="846" y="1238"/>
      <point x="846" y="1101" type="curve" smooth="yes"/>
      <point x="846" y="949"/>
      <point x="765" y="850"/>
    </contour>
  </outline>
</glyph>
<glyph name="nine" format="1">
  <advance width="1177"/>
  <unicode hex="0039"/>
  <outline>
    <contour>
      <point x="282" y="0" type="line"/>
      <point x="497" y="0" type="line"/>
      <point x="497" y="0"/>
      <point x="852" y="474"/>
      <point x="861" y="486" type="curve" smooth="yes"/>
      <point x="989" y="661"/>
      <point x="1085" y="796"/>
      <point x="1085" y="1003" type="curve" smooth="yes"/>
      <point x="1085" y="1247"/>
      <point x="911" y="1456"/>
      <point x="609" y="1456" type="curve" smooth="yes"/>
      <point x="321" y="1456"/>
      <point x="133" y="1262"/>
      <point x="133" y="1006" type="curve" smooth="yes"/>
      <point x="133" y="745"/>
      <point x="339" y="573"/>
      <point x="576" y="573" type="curve" smooth="yes"/>
      <point x="784" y="573"/>
      <point x="912" y="744"/>
      <point x="925" y="764" type="curve"/>
      <point x="894" y="791" type="line"/>
      <point x="894" y="791"/>
      <point x="738" y="598"/>
      <point x="659" y="493" type="curve"/>
    </contour>
    <contour>
      <point x="608" y="713" type="curve" smooth="yes"/>
      <point x="416" y="713"/>
      <point x="311" y="834"/>
      <point x="311" y="1008" type="curve" smooth="yes"/>
      <point x="311" y="1175"/>
      <point x="418" y="1314"/>
      <point x="615" y="1314" type="curve" smooth="yes"/>
      <point x="811" y="1314"/>
      <point x="910" y="1179"/>
      <point x="910" y="1014" type="curve" smooth="yes"/>
      <point x="910" y="788"/>
      <point x="744" y="713"/>
    </contour>
  </outline>
</glyph>
<glyph name="colon" format="1">
  <advance width="501"/>
  <unicode hex="003A"/>
  <outline>
    <contour>
      <point x="156" y="0" type="line"/>
      <point x="350" y="0" type="line"/>
      <point x="350" y="215" type="line"/>
      <point x="156" y="215" type="line"/>
    </contour>
    <contour>
      <point x="156" y="846" type="line"/>
      <point x="350" y="846" type="line"/>
      <point x="350" y="1060" type="line"/>
      <point x="156" y="1060" type="line"/>
    </contour>
  </outline>
</glyph>
<glyph name="semicolon" format="1">
  <advance width="497"/>
  <unicode hex="003B"/>
  <outline>
    <contour>
      <point x="166" y="846" type="line"/>
      <point x="359" y="846" type="line"/>
      <point x="359" y="1060" type="line"/>
      <point x="166" y="1060" type="line"/>
    </contour>
    <contour>
      <point x="137" y="-300" type="line"/>
      <point x="242" y="-300" type="line"/>
      <point x="363" y="190" type="line"/>
      <point x="191" y="190" type="line"/>
    </contour>
  </outline>
</glyph>
<glyph name="less" format="1">
  <advance width="1132"/>
  <unicode hex="003C"/>
  <outline>
    <contour>
      <point x="1019" y="141" type="line"/>
      <point x="1020" y="294" type="line" smooth="yes"/>
      <point x="275" y="636" type="line"/>
      <point x="1022" y="1003" type="line"/>
      <point x="1022" y="1154" type="line"/>
      <point x="94" y="678" type="line"/>
      <point x="94" y="585" type="line"/>
    </contour>
  </outline>
</glyph>
<glyph name="equal" format="1">
  <advance width="1133"/>
  <unicode hex="003D"/>
  <outline>
    <contour>
      <point x="79" y="516" type="line"/>
      <point x="1043" y="516" type="line"/>
      <point x="1043" y="659" type="line"/>
      <point x="79" y="659" type="line"/>
    </contour>
    <contour>
      <point x="79" y="803" type="line"/>
      <point x="1043" y="803" type="line"/>
      <point x="1043" y="946" type="line"/>
      <point x="79" y="946" type="line"/>
    </contour>
  </outline>
</glyph>
<glyph name="greater" format="1">
  <advance width="1139"/>
  <unicode hex="003E"/>
  <outline>
    <contour>
      <point x="125" y="146" type="line"/>
      <point x="1053" y="584" type="line"/>
      <point x="1053" y="677" type="line"/>
      <point x="127" y="1160" type="line"/>
      <point x="127" y="1009" type="line"/>
      <point x="865" y="636" type="line"/>
      <point x="125" y="300" type="line"/>
    </contour>
  </outline>
</glyph>
<glyph name="question" format="1">
  <advance width="897"/>
  <unicode hex="003F"/>
  <outline>
    <contour>
      <point x="435" y="418" type="line"/>
      <point x="555" y="749"/>
      <point x="784" y="897"/>
      <point x="784" y="1161" type="curve" smooth="yes"/>
      <point x="784" y="1362"/>
      <point x="619" y="1473"/>
      <point x="440" y="1473" type="curve" smooth="yes"/>
      <point x="304" y="1473"/>
      <point x="199" y="1434"/>
      <point x="118" y="1379" type="curve"/>
      <point x="160" y="1249" type="line"/>
      <point x="207" y="1278"/>
      <point x="305" y="1333"/>
      <point x="420" y="1333" type="curve" smooth="yes"/>
      <point x="549" y="1333"/>
      <point x="628" y="1269"/>
      <point x="628" y="1141" type="curve" smooth="yes"/>
      <point x="628" y="922"/>
      <point x="367" y="668"/>
      <point x="353" y="418" type="curve"/>
    </contour>
    <contour>
      <point x="397" y="-12" type="curve" smooth="yes"/>
      <point x="477" y="-12"/>
      <point x="516" y="47"/>
      <point x="516" y="108" type="curve" smooth="yes"/>
      <point x="516" y="168"/>
      <point x="477" y="228"/>
      <point x="397" y="228" type="curve" smooth="yes"/>
      <point x="317" y="228"/>
      <point x="277" y="168"/>
      <point x="277" y="108" type="curve" smooth="yes"/>
      <point x="277" y="48"/>
      <point x="317" y="-12"/>
    </contour>
  </outline>
</glyph>
<glyph name="at" format="1">
  <advance width="1902"/>
  <unicode hex="0040"/>
  <outline>
    <contour>
      <point x="931" y="-183" type="curve" smooth="yes"/>
      <point x="1125" y="-183"/>
      <point x="1311" y="-139"/>
      <point x="1442" y="-51" type="curve"/>
      <point x="1401" y="50" type="line"/>
      <point x="1266" y="-27"/>
      <point x="1101" y="-69"/>
      <point x="934" y="-69" type="curve" smooth="yes"/>
      <point x="527" y="-69"/>
      <point x="272" y="202"/>
      <point x="272" y="612" type="curve" smooth="yes"/>
      <point x="272" y="1028"/>
      <point x="561" y="1358"/>
      <point x="994" y="1358" type="curve" smooth="yes"/>
      <point x="1403" y="1358"/>
      <point x="1643" y="1094"/>
      <point x="1643" y="760" type="curve" smooth="yes"/>
      <point x="1643" y="502"/>
      <point x="1529" y="335"/>
      <point x="1390" y="335" type="curve" smooth="yes"/>
      <point x="1303" y="335"/>
      <point x="1255" y="405"/>
      <point x="1255" y="496" type="curve" smooth="yes"/>
      <point x="1255" y="621"/>
      <point x="1293" y="808"/>
      <point x="1321" y="1011" type="curve"/>
      <point x="1234" y="1048"/>
      <point x="1108" y="1077"/>
      <point x="1010" y="1077" type="curve" smooth="yes"/>
      <point x="726" y="1077"/>
      <point x="567" y="836"/>
      <point x="567" y="577" type="curve" smooth="yes"/>
      <point x="567" y="369"/>
      <point x="673" y="226"/>
      <point x="866" y="226" type="curve" smooth="yes"/>
      <point x="1044" y="226"/>
      <point x="1148" y="400"/>
      <point x="1189" y="552" type="curve"/>
      <point x="1141" y="552" type="line"/>
      <point x="1153" y="345"/>
      <point x="1231" y="234"/>
      <point x="1392" y="234" type="curve" smooth="yes"/>
      <point x="1565" y="234"/>
      <point x="1768" y="410"/>
      <point x="1768" y="752" type="curve" smooth="yes"/>
      <point x="1768" y="1197"/>
      <point x="1432" y="1475"/>
      <point x="999" y="1475" type="curve" smooth="yes"/>
      <point x="496" y="1475"/>
      <point x="134" y="1109"/>
      <point x="134" y="613" type="curve" smooth="yes"/>
      <point x="134" y="116"/>
      <point x="454" y="-183"/>
    </contour>
    <contour>
      <point x="882" y="333" type="curve" smooth="yes"/>
      <point x="769" y="333"/>
      <point x="705" y="413"/>
      <point x="705" y="576" type="curve" smooth="yes"/>
      <point x="705" y="779"/>
      <point x="823" y="975"/>
      <point x="1016" y="975" type="curve" smooth="yes"/>
      <point x="1069" y="975"/>
      <point x="1190" y="952"/>
      <point x="1229" y="938" type="curve"/>
      <point x="1175" y="1018" type="line"/>
      <point x="1171" y="980"/>
      <point x="1129" y="733"/>
      <point x="1124" y="696" type="curve" smooth="yes"/>
      <point x="1095" y="496"/>
      <point x="1036" y="333"/>
    </contour>
  </outline>
</glyph>
<glyph name="A" format="1">
  <advance width="1345"/>
  <unicode hex="0041"/>
  <outline>
    <contour>
      <point x="36" y="0" type="line"/>
      <point x="235" y="0" type="line"/>
      <point x="420" y="502" type="line"/>
      <point x="347" y="449" type="line"/>
      <point x="1006" y="449" type="line"/>
      <point x="930" y="499" type="line"/>
      <point x="1116" y="0" type="line"/>
      <point x="1309" y="0" type="line"/>
      <point x="780" y="1437" type="line"/>
      <point x="566" y="1437" type="line"/>
    </contour>
    <contour>
      <point x="426" y="525" type="line"/>
      <point x="698" y="1323" type="line"/>
      <point x="651" y="1323" type="line"/>
      <point x="924" y="526" type="line"/>
      <point x="967" y="582" type="line"/>
      <point x="387" y="582" type="line"/>
    </contour>
  </outline>
</glyph>
<glyph name="B" format="1">
  <advance width="1265"/>
  <unicode hex="0042"/>
  <outline>
    <contour>
      <point x="118" y="0" type="line"/>
      <point x="667" y="0" type="line" smooth="yes"/>
      <point x="1009" y="0"/>
      <point x="1179" y="155"/>
      <point x="1179" y="408" type="curve" smooth="yes"/>
      <point x="1179" y="627"/>
      <point x="1033" y="743"/>
      <point x="810" y="782" type="curve"/>
      <point x="810" y="734" type="line"/>
      <point x="1048" y="797"/>
      <point x="1122" y="913"/>
      <point x="1122" y="1083" type="curve" smooth="yes"/>
      <point x="1122" y="1331"/>
      <point x="946" y="1437"/>
      <point x="583" y="1437" type="curve" smooth="yes"/>
      <point x="118" y="1437" type="line"/>
    </contour>
    <contour>
      <point x="260" y="147" type="line"/>
      <point x="312" y="93" type="line"/>
      <point x="312" y="741" type="line"/>
      <point x="259" y="688" type="line"/>
      <point x="588" y="688" type="line" smooth="yes"/>
      <point x="858" y="688"/>
      <point x="985" y="619"/>
      <point x="985" y="415" type="curve" smooth="yes"/>
      <point x="985" y="224"/>
      <point x="878" y="147"/>
      <point x="635" y="147" type="curve" smooth="yes"/>
    </contour>
    <contour>
      <point x="258" y="823" type="line"/>
      <point x="312" y="778" type="line"/>
      <point x="312" y="1345" type="line"/>
      <point x="260" y="1293" type="line"/>
      <point x="577" y="1293" type="line" smooth="yes"/>
      <point x="821" y="1293"/>
      <point x="936" y="1247"/>
      <point x="936" y="1059" type="curve" smooth="yes"/>
      <point x="936" y="871"/>
      <point x="819" y="823"/>
      <point x="633" y="823" type="curve" smooth="yes"/>
    </contour>
  </outline>
</glyph>
<glyph name="C" format="1">
  <advance width="1233"/>
  <unicode hex="0043"/>
  <outline>
    <contour>
      <point x="778" y="-19" type="curve" smooth="yes"/>
      <point x="962" y="-19"/>
      <point x="1103" y="36"/>
      <point x="1166" y="67" type="curve"/>
      <point x="1123" y="211" type="line"/>
      <point x="1069" y="186"/>
      <point x="948" y="136"/>
      <point x="798" y="136" type="curve" smooth="yes"/>
      <point x="480" y="136"/>
      <point x="277" y="356"/>
      <point x="277" y="718" type="curve" smooth="yes"/>
      <point x="277" y="1075"/>
      <point x="473" y="1303"/>
      <point x="786" y="1303" type="curve" smooth="yes"/>
      <point x="903" y="1303"/>
      <point x="1025" y="1270"/>
      <point x="1113" y="1216" type="curve"/>
      <point x="1174" y="1344" type="line"/>
      <point x="1079" y="1411"/>
      <point x="937" y="1456"/>
      <point x="770" y="1456" type="curve" smooth="yes"/>
      <point x="362" y="1456"/>
      <point x="82" y="1171"/>
      <point x="82" y="723" type="curve" smooth="yes"/>
      <point x="82" y="256"/>
      <point x="375" y="-19"/>
    </contour>
  </outline>
</glyph>
<glyph name="D" format="1">
  <advance width="1404"/>
  <unicode hex="0044"/>
  <outline>
    <contour>
      <point x="312" y="86" type="line"/>
      <point x="312" y="1351" type="line"/>
      <point x="253" y="1293" type="line"/>
      <point x="531" y="1293" type="line" smooth="yes"/>
      <point x="910" y="1293"/>
      <point x="1129" y="1130"/>
      <point x="1129" y="718" type="curve" smooth="yes"/>
      <point x="1129" y="342"/>
      <point x="936" y="147"/>
      <point x="558" y="147" type="curve" smooth="yes"/>
      <point x="254" y="147" type="line"/>
    </contour>
    <contour>
      <point x="118" y="0" type="line"/>
      <point x="564" y="0" type="line" smooth="yes"/>
      <point x="1026" y="0"/>
      <point x="1322" y="250"/>
      <point x="1322" y="723" type="curve" smooth="yes"/>
      <point x="1322" y="1220"/>
      <point x="1000" y="1437"/>
      <point x="536" y="1437" type="curve" smooth="yes"/>
      <point x="118" y="1437" type="line"/>
    </contour>
  </outline>
</glyph>
<glyph name="E" format="1">
  <advance width="1083"/>
  <unicode hex="0045"/>
  <outline>
    <contour>
      <point x="118" y="0" type="line"/>
      <point x="1000" y="0" type="line"/>
      <point x="1012" y="147" type="line"/>
      <point x="254" y="147" type="line"/>
      <point x="312" y="89" type="line"/>
      <point x="312" y="728" type="line"/>
      <point x="254" y="673" type="line"/>
      <point x="944" y="673" type="line"/>
      <point x="944" y="818" type="line"/>
      <point x="254" y="818" type="line"/>
      <point x="312" y="762" type="line"/>
      <point x="312" y="1347" type="line"/>
      <point x="255" y="1293" type="line"/>
      <point x="1001" y="1293" type="line"/>
      <point x="1008" y="1437" type="line"/>
      <point x="118" y="1437" type="line"/>
    </contour>
  </outline>
</glyph>
<glyph name="F" format="1">
  <advance width="996"/>
  <unicode hex="0046"/>
  <outline>
    <contour>
      <point x="118" y="0" type="line"/>
      <point x="315" y="0" type="line"/>
      <point x="315" y="711" type="line"/>
      <point x="244" y="651" type="line"/>
      <point x="900" y="651" type="line"/>
      <point x="900" y="792" type="line"/>
      <point x="238" y="792" type="line"/>
      <point x="315" y="736" type="line"/>
      <point x="315" y="1357" type="line"/>
      <point x="236" y="1289" type="line"/>
      <point x="944" y="1289" type="line"/>
      <point x="954" y="1437" type="line"/>
      <point x="118" y="1437" type="line"/>
    </contour>
  </outline>
</glyph>
<glyph name="G" format="1">
  <advance width="1388"/>
  <unicode hex="0047"/>
  <outline>
    <contour>
      <point x="768" y="-19" type="curve" smooth="yes"/>
      <point x="964" y="-19"/>
      <point x="1119" y="15"/>
      <point x="1267" y="73" type="curve"/>
      <point x="1267" y="739" type="line"/>
      <point x="775" y="739" type="line"/>
      <point x="769" y="588" type="line"/>
      <point x="1150" y="588" type="line"/>
      <point x="1090" y="648" type="line"/>
      <point x="1090" y="112" type="line"/>
      <point x="1147" y="200" type="line"/>
      <point x="1088" y="174"/>
      <point x="972" y="136"/>
      <point x="796" y="136" type="curve" smooth="yes"/>
      <point x="428" y="136"/>
      <point x="277" y="368"/>
      <point x="277" y="719" type="curve" smooth="yes"/>
      <point x="277" y="1059"/>
      <point x="472" y="1304"/>
      <point x="802" y="1304" type="curve" smooth="yes"/>
      <point x="999" y="1304"/>
      <point x="1100" y="1243"/>
      <point x="1182" y="1199" type="curve"/>
      <point x="1229" y="1344" type="line"/>
      <point x="1107" y="1425"/>
      <point x="966" y="1456"/>
      <point x="797" y="1456" type="curve" smooth="yes"/>
      <point x="365" y="1456"/>
      <point x="82" y="1151"/>
      <point x="82" y="717" type="curve" smooth="yes"/>
      <point x="82" y="291"/>
      <point x="323" y="-19"/>
    </contour>
  </outline>
</glyph>
<glyph name="H" format="1">
  <advance width="1360"/>
  <unicode hex="0048"/>
  <outline>
    <contour>
      <point x="118" y="0" type="line"/>
      <point x="312" y="0" type="line"/>
      <point x="312" y="721" type="line"/>
      <point x="245" y="667" type="line"/>
      <point x="1118" y="667" type="line"/>
      <point x="1048" y="721" type="line"/>
      <point x="1048" y="0" type="line"/>
      <point x="1242" y="0" type="line"/>
      <point x="1242" y="1437" type="line"/>
      <point x="1048" y="1437" type="line"/>
      <point x="1048" y="756" type="line"/>
      <point x="1114" y="810" type="line"/>
      <point x="245" y="810" type="line"/>
      <point x="312" y="756" type="line"/>
      <point x="312" y="1437" type="line"/>
      <point x="118" y="1437" type="line"/>
    </contour>
  </outline>
</glyph>
<glyph name="I" format="1">
  <advance width="768"/>
  <unicode hex="0049"/>
  <outline>
    <contour>
      <point x="100" y="1437" type="line"/>
      <point x="100" y="1320" type="line"/>
      <point x="343" y="1320" type="line"/>
      <point x="288" y="1368" type="line"/>
      <point x="288" y="63" type="line"/>
      <point x="346" y="117" type="line"/>
      <point x="100" y="117" type="line"/>
      <point x="100" y="0" type="line"/>
      <point x="668" y="0" type="line"/>
      <point x="668" y="117" type="line"/>
      <point x="421" y="117" type="line"/>
      <point x="482" y="64" type="line"/>
      <point x="482" y="1368" type="line"/>
      <point x="424" y="1320" type="line"/>
      <point x="668" y="1320" type="line"/>
      <point x="668" y="1437" type="line"/>
    </contour>
  </outline>
</glyph>
<glyph name="J" format="1">
  <advance width="677"/>
  <unicode hex="004A"/>
  <outline>
    <contour>
      <point x="14" y="-212" type="line"/>
      <point x="112" y="-212" type="line" smooth="yes"/>
      <point x="422" y="-212"/>
      <point x="547" y="-25"/>
      <point x="547" y="249" type="curve" smooth="yes"/>
      <point x="547" y="1437" type="line"/>
      <point x="353" y="1437" type="line"/>
      <point x="353" y="259" type="line" smooth="yes"/>
      <point x="353" y="79"/>
      <point x="307" y="-56"/>
      <point x="81" y="-56" type="curve" smooth="yes"/>
      <point x="2" y="-56" type="line"/>
    </contour>
  </outline>
</glyph>
<glyph name="K" format="1">
  <advance width="1206"/>
  <unicode hex="004B"/>
  <outline>
    <contour>
      <point x="118" y="0" type="line"/>
      <point x="312" y="0" type="line"/>
      <point x="312" y="647" type="line"/>
      <point x="263" y="534" type="line"/>
      <point x="492" y="742" type="line"/>
      <point x="407" y="748" type="line"/>
      <point x="982" y="0" type="line"/>
      <point x="1208" y="0" type="line"/>
      <point x="547" y="853" type="line"/>
      <point x="547" y="752" type="line"/>
      <point x="1177" y="1437" type="line"/>
      <point x="951" y="1437" type="line"/>
      <point x="260" y="701" type="line"/>
      <point x="312" y="691" type="line"/>
      <point x="312" y="1437" type="line"/>
      <point x="118" y="1437" type="line"/>
    </contour>
  </outline>
</glyph>
<glyph name="L" format="1">
  <advance width="1021"/>
  <unicode hex="004C"/>
  <outline>
    <contour>
      <point x="118" y="0" type="line"/>
      <point x="975" y="0" type="line"/>
      <point x="981" y="147" type="line"/>
      <point x="239" y="147" type="line"/>
      <point x="312" y="72" type="line"/>
      <point x="312" y="1437" type="line"/>
      <point x="118" y="1437" type="line"/>
    </contour>
  </outline>
</glyph>
<glyph name="M" format="1">
  <advance width="1703"/>
  <unicode hex="004D"/>
  <outline>
    <contour>
      <point x="114" y="0" type="line"/>
      <point x="298" y="0" type="line"/>
      <point x="311" y="845" type="line"/>
      <point x="311" y="1267" type="line"/>
      <point x="275" y="1267" type="line"/>
      <point x="770" y="169" type="line"/>
      <point x="931" y="169" type="line"/>
      <point x="1435" y="1267" type="line"/>
      <point x="1394" y="1267" type="line"/>
      <point x="1394" y="849" type="line"/>
      <point x="1407" y="0" type="line"/>
      <point x="1589" y="0" type="line"/>
      <point x="1558" y="1437" type="line"/>
      <point x="1337" y="1437" type="line"/>
      <point x="815" y="291" type="line"/>
      <point x="891" y="291" type="line"/>
      <point x="372" y="1437" type="line"/>
      <point x="144" y="1437" type="line"/>
    </contour>
  </outline>
</glyph>
<glyph name="N" format="1">
  <advance width="1409"/>
  <unicode hex="004E"/>
  <outline>
    <contour>
      <point x="118" y="0" type="line"/>
      <point x="301" y="0" type="line"/>
      <point x="301" y="713" type="line"/>
      <point x="283" y="1271" type="line"/>
      <point x="238" y="1258" type="line"/>
      <point x="1088" y="0" type="line"/>
      <point x="1291" y="0" type="line"/>
      <point x="1291" y="1437" type="line"/>
      <point x="1109" y="1437" type="line"/>
      <point x="1109" y="660" type="line"/>
      <point x="1122" y="166" type="line"/>
      <point x="1167" y="169" type="line"/>
      <point x="314" y="1437" type="line"/>
      <point x="118" y="1437" type="line"/>
    </contour>
  </outline>
</glyph>
<glyph name="O" format="1">
  <advance width="1545"/>
  <unicode hex="004F"/>
  <outline>
    <contour>
      <point x="774" y="134" type="curve" smooth="yes"/>
      <point x="440" y="134"/>
      <point x="277" y="373"/>
      <point x="277" y="711" type="curve" smooth="yes"/>
      <point x="277" y="1063"/>
      <point x="449" y="1302"/>
      <point x="775" y="1302" type="curve" smooth="yes"/>
      <point x="1101" y="1302"/>
      <point x="1269" y="1061"/>
      <point x="1269" y="711" type="curve" smooth="yes"/>
      <point x="1269" y="373"/>
      <point x="1108" y="134"/>
    </contour>
    <contour>
      <point x="775" y="-19" type="curve" smooth="yes"/>
      <point x="1213" y="-19"/>
      <point x="1463" y="274"/>
      <point x="1463" y="710" type="curve" smooth="yes"/>
      <point x="1463" y="1162"/>
      <point x="1203" y="1456"/>
      <point x="776" y="1456" type="curve" smooth="yes"/>
      <point x="342" y="1456"/>
      <point x="82" y="1164"/>
      <point x="82" y="711" type="curve" smooth="yes"/>
      <point x="82" y="268"/>
      <point x="333" y="-19"/>
    </contour>
  </outline>
</glyph>
<glyph name="P" format="1">
  <advance width="1147"/>
  <unicode hex="0050"/>
  <outline>
    <contour>
      <point x="118" y="0" type="line"/>
      <point x="312" y="0" type="line"/>
      <point x="312" y="734" type="line"/>
      <point x="251" y="676" type="line"/>
      <point x="619" y="676" type="line" smooth="yes"/>
      <point x="967" y="676"/>
      <point x="1103" y="823"/>
      <point x="1103" y="1077" type="curve" smooth="yes"/>
      <point x="1103" y="1346"/>
      <point x="899" y="1437"/>
      <point x="622" y="1437" type="curve" smooth="yes"/>
      <point x="118" y="1437" type="line"/>
    </contour>
    <contour>
      <point x="612" y="825" type="curve" smooth="yes"/>
      <point x="251" y="825" type="line"/>
      <point x="312" y="772" type="line"/>
      <point x="312" y="1351" type="line"/>
      <point x="251" y="1293" type="line"/>
      <point x="621" y="1293" type="line" smooth="yes"/>
      <point x="800" y="1293"/>
      <point x="909" y="1240"/>
      <point x="909" y="1074" type="curve" smooth="yes"/>
      <point x="909" y="891"/>
      <point x="830" y="825"/>
    </contour>
  </outline>
</glyph>
<glyph name="Q" format="1">
  <advance width="1545"/>
  <unicode hex="0051"/>
  <outline>
    <contour>
      <point x="1248" y="-439" type="curve"/>
      <point x="1359" y="-337" type="line"/>
      <point x="1264" y="-240"/>
      <point x="1115" y="15"/>
      <point x="1065" y="114" type="curve"/>
      <point x="915" y="63" type="line"/>
      <point x="1002" y="-104"/>
      <point x="1171" y="-371"/>
    </contour>
    <component base="O"/>
  </outline>
</glyph>
<glyph name="R" format="1">
  <advance width="1267"/>
  <unicode hex="0052"/>
  <outline>
    <contour>
      <point x="118" y="0" type="line"/>
      <point x="312" y="0" type="line"/>
      <point x="312" y="718" type="line"/>
      <point x="251" y="672" type="line"/>
      <point x="806" y="672" type="line"/>
      <point x="709" y="728" type="line"/>
      <point x="832" y="442" type="line"/>
      <point x="1020" y="0" type="line"/>
      <point x="1222" y="0" type="line"/>
      <point x="999" y="498" type="line"/>
      <point x="881" y="775" type="line"/>
      <point x="869" y="687" type="line"/>
      <point x="1051" y="729"/>
      <point x="1164" y="831"/>
      <point x="1164" y="1061" type="curve" smooth="yes"/>
      <point x="1164" y="1327"/>
      <point x="1008" y="1437"/>
      <point x="702" y="1437" type="curve" smooth="yes"/>
      <point x="118" y="1437" type="line"/>
    </contour>
    <contour>
      <point x="312" y="755" type="line"/>
      <point x="312" y="1349" type="line"/>
      <point x="252" y="1293" type="line"/>
      <point x="706" y="1293" type="line" smooth="yes"/>
      <point x="912" y="1293"/>
      <point x="973" y="1209"/>
      <point x="973" y="1058" type="curve" smooth="yes"/>
      <point x="973" y="880"/>
      <point x="922" y="809"/>
      <point x="679" y="809" type="curve" smooth="yes"/>
      <point x="251" y="809" type="line"/>
    </contour>
  </outline>
</glyph>
<glyph name="S" format="1">
  <advance width="1147.31118912"/>
  <unicode hex="0053"/>
  <outline>
    <contour>
      <point x="571" y="-19" type="curve" smooth="yes"/>
      <point x="847" y="-19"/>
      <point x="1055" y="95"/>
      <point x="1065" y="380" type="curve" smooth="yes"/>
      <point x="1073" y="625"/>
      <point x="926" y="713"/>
      <point x="711" y="792" type="curve"/>
      <point x="482" y="879" type="line"/>
      <point x="354" y="928"/>
      <point x="310" y="971"/>
      <point x="310" y="1087" type="curve" smooth="yes"/>
      <point x="310" y="1250"/>
      <point x="453" y="1302"/>
      <point x="608" y="1302" type="curve" smooth="yes"/>
      <point x="765" y="1302"/>
      <point x="893" y="1229"/>
      <point x="949" y="1200" type="curve"/>
      <point x="1017" y="1336" type="line"/>
      <point x="928" y="1398"/>
      <point x="776" y="1456"/>
      <point x="611" y="1456" type="curve" smooth="yes"/>
      <point x="366" y="1456"/>
      <point x="130" y="1356"/>
      <point x="130" y="1078" type="curve" smooth="yes"/>
      <point x="130" y="879"/>
      <point x="243" y="789"/>
      <point x="423" y="722" type="curve" smooth="yes"/>
      <point x="662" y="634" type="line"/>
      <point x="832" y="569"/>
      <point x="890" y="514"/>
      <point x="886" y="379" type="curve" smooth="yes"/>
      <point x="880" y="203"/>
      <point x="773" y="134"/>
      <point x="578" y="134" type="curve" smooth="yes"/>
      <point x="403" y="134"/>
      <point x="269" y="194"/>
      <point x="178" y="259" type="curve"/>
      <point x="114" y="117" type="line"/>
      <point x="193" y="63"/>
      <point x="332" y="-19"/>
    </contour>
  </outline>
</glyph>
<glyph name="T" format="1">
  <advance width="1136"/>
  <unicode hex="0054"/>
  <outline>
    <contour>
      <point x="469" y="0" type="line"/>
      <point x="664" y="0" type="line"/>
      <point x="664" y="1354" type="line"/>
      <point x="607" y="1288" type="line"/>
      <point x="1096" y="1288" type="line"/>
      <point x="1096" y="1437" type="line"/>
      <point x="40" y="1437" type="line"/>
      <point x="40" y="1288" type="line"/>
      <point x="526" y="1288" type="line"/>
      <point x="469" y="1353" type="line"/>
    </contour>
  </outline>
</glyph>
<glyph name="U" format="1">
  <advance width="1375"/>
  <unicode hex="0055"/>
  <outline>
    <contour>
      <point x="688" y="-19" type="curve" smooth="yes"/>
      <point x="1069" y="-19"/>
      <point x="1267" y="207"/>
      <point x="1267" y="524" type="curve" smooth="yes"/>
      <point x="1267" y="1437" type="line"/>
      <point x="1073" y="1437" type="line"/>
      <point x="1073" y="532" type="line" smooth="yes"/>
      <point x="1073" y="273"/>
      <point x="941" y="136"/>
      <point x="688" y="136" type="curve" smooth="yes"/>
      <point x="428" y="136"/>
      <point x="302" y="273"/>
      <point x="302" y="532" type="curve" smooth="yes"/>
      <point x="302" y="1437" type="line"/>
      <point x="108" y="1437" type="line"/>
      <point x="108" y="526" type="line" smooth="yes"/>
      <point x="108" y="201"/>
      <point x="303" y="-19"/>
    </contour>
  </outline>
</glyph>
<glyph name="V" format="1">
  <advance width="1338"/>
  <unicode hex="0056"/>
  <outline>
    <contour>
      <point x="578" y="0" type="line"/>
      <point x="760" y="0" type="line"/>
      <point x="1290" y="1437" type="line"/>
      <point x="1089" y="1437" type="line"/>
      <point x="777" y="539" type="line"/>
      <point x="639" y="138" type="line"/>
      <point x="702" y="138" type="line"/>
      <point x="564" y="535" type="line"/>
      <point x="251" y="1437" type="line"/>
      <point x="48" y="1437" type="line"/>
    </contour>
  </outline>
</glyph>
<glyph name="W" format="1">
  <advance width="2019"/>
  <unicode hex="0057"/>
  <outline>
    <contour>
      <point x="467" y="0" type="line"/>
      <point x="651" y="0" type="line"/>
      <point x="1037" y="1253" type="line"/>
      <point x="988" y="1253" type="line"/>
      <point x="1362" y="0" type="line"/>
      <point x="1549" y="0" type="line"/>
      <point x="1983" y="1437" type="line"/>
      <point x="1795" y="1437" type="line"/>
      <point x="1434" y="178" type="line"/>
      <point x="1474" y="178" type="line"/>
      <point x="1102" y="1409" type="line"/>
      <point x="918" y="1409" type="line"/>
      <point x="543" y="177" type="line"/>
      <point x="584" y="177" type="line"/>
      <point x="222" y="1437" type="line"/>
      <point x="36" y="1437" type="line"/>
    </contour>
  </outline>
</glyph>
<glyph name="X" format="1">
  <advance width="1250"/>
  <unicode hex="0058"/>
  <outline>
    <contour>
      <point x="50" y="0" type="line"/>
      <point x="242" y="0" type="line"/>
      <point x="634" y="607" type="line"/>
      <point x="720" y="698" type="line"/>
      <point x="1191" y="1437" type="line"/>
      <point x="996" y="1437" type="line"/>
      <point x="627" y="845" type="line"/>
      <point x="531" y="746" type="line"/>
    </contour>
    <contour>
      <point x="1005" y="0" type="line"/>
      <point x="1200" y="0" type="line"/>
      <point x="248" y="1437" type="line"/>
      <point x="54" y="1437" type="line"/>
    </contour>
  </outline>
</glyph>
<glyph name="Y" format="1">
  <advance width="1171"/>
  <unicode hex="0059"/>
  <outline>
    <contour>
      <point x="503" y="0" type="line"/>
      <point x="690" y="0" type="line"/>
      <point x="690" y="661" type="line"/>
      <point x="645" y="495" type="line"/>
      <point x="1159" y="1437" type="line"/>
      <point x="966" y="1437" type="line"/>
      <point x="564" y="680" type="line"/>
      <point x="628" y="680" type="line"/>
      <point x="207" y="1437" type="line"/>
      <point x="12" y="1437" type="line"/>
      <point x="554" y="485" type="line"/>
      <point x="503" y="659" type="line"/>
    </contour>
  </outline>
</glyph>
<glyph name="Z" format="1">
  <advance width="1138"/>
  <unicode hex="005A"/>
  <outline>
    <contour>
      <point x="114" y="0" type="line"/>
      <point x="1044" y="0" type="line"/>
      <point x="1050" y="147" type="line"/>
      <point x="275" y="147" type="line"/>
      <point x="302" y="84" type="line"/>
      <point x="1043" y="1306" type="line"/>
      <point x="1037" y="1437" type="line"/>
      <point x="143" y="1437" type="line"/>
      <point x="143" y="1293" type="line"/>
      <point x="894" y="1293" type="line"/>
      <point x="858" y="1348" type="line"/>
      <point x="114" y="132" type="line"/>
    </contour>
  </outline>
</glyph>
<glyph name="bracketleft" format="1">
  <advance width="651"/>
  <unicode hex="005B"/>
  <outline>
    <contour>
      <point x="167" y="-229" type="line"/>
      <point x="167" y="1472" type="line"/>
      <point x="604" y="1472" type="line"/>
      <point x="604" y="1343" type="line"/>
      <point x="329" y="1343" type="line"/>
      <point x="329" y="-102" type="line"/>
      <point x="604" y="-102" type="line"/>
      <point x="604" y="-229" type="line"/>
    </contour>
  </outline>
</glyph>
<glyph name="backslash" format="1">
  <advance width="879"/>
  <unicode hex="005C"/>
  <outline>
    <contour>
      <point x="638" y="-36" type="line"/>
      <point x="106" y="1431" type="line"/>
      <point x="252" y="1431" type="line"/>
      <point x="783" y="-36" type="line"/>
    </contour>
  </outline>
</glyph>
<glyph name="bracketright" format="1">
  <advance width="652"/>
  <unicode hex="005D"/>
  <outline>
    <contour>
      <point x="64" y="-229" type="line"/>
      <point x="64" y="-102" type="line"/>
      <point x="340" y="-102" type="line"/>
      <point x="340" y="1343" type="line"/>
      <point x="64" y="1343" type="line"/>
      <point x="64" y="1472" type="line"/>
      <point x="502" y="1472" type="line"/>
      <point x="502" y="-229" type="line"/>
    </contour>
  </outline>
</glyph>
<glyph name="asciicircum" format="1">
  <advance width="1194"/>
  <unicode hex="005E"/>
  <outline>
    <contour>
      <point x="117" y="570" type="line"/>
      <point x="546" y="1466" type="line"/>
      <point x="643" y="1466" type="line"/>
      <point x="1096" y="570" type="line"/>
      <point x="955" y="570" type="line"/>
      <point x="596" y="1290" type="line"/>
      <point x="256" y="570" type="line"/>
    </contour>
  </outline>
</glyph>
<glyph name="underscore" format="1">
  <advance width="1030"/>
  <unicode hex="005F"/>
  <outline>
    <contour>
      <point x="68" y="-249" type="line"/>
      <point x="973" y="-249" type="line"/>
      <point x="973" y="-121" type="line"/>
      <point x="68" y="-121" type="line"/>
    </contour>
  </outline>
</glyph>
<glyph name="grave" format="1">
  <advance width="587"/>
  <unicode hex="0060"/>
  <outline>
    <contour>
      <point x="382" y="1209" type="line"/>
      <point x="487" y="1209" type="line"/>
      <point x="309" y="1584" type="line"/>
      <point x="104" y="1584" type="line"/>
    </contour>
  </outline>
</glyph>
<glyph name="a" format="1">
  <advance width="1035"/>
  <unicode hex="0061"/>
  <outline>
    <contour>
      <point x="411" y="-17" type="curve" smooth="yes"/>
      <point x="548" y="-17"/>
      <point x="694" y="34"/>
      <point x="800" y="190" type="curve"/>
      <point x="757" y="205" type="line"/>
      <point x="791" y="1" type="line"/>
      <point x="922" y="1" type="line"/>
      <point x="922" y="698" type="line" smooth="yes"/>
      <point x="922" y="981"/>
      <point x="755" y="1082"/>
      <point x="513" y="1082" type="curve" smooth="yes"/>
      <point x="390" y="1082"/>
      <point x="239" y="1047"/>
      <point x="130" y="995" type="curve"/>
      <point x="175" y="871" type="line"/>
      <point x="276" y="918"/>
      <point x="408" y="947"/>
      <point x="511" y="947" type="curve" smooth="yes"/>
      <point x="668" y="947"/>
      <point x="744" y="871"/>
      <point x="744" y="723" type="curve" smooth="yes"/>
      <point x="744" y="602" type="line"/>
      <point x="780" y="632" type="line"/>
      <point x="557" y="632" type="line" smooth="yes"/>
      <point x="229" y="632"/>
      <point x="79" y="514"/>
      <point x="79" y="286" type="curve" smooth="yes"/>
      <point x="79" y="87"/>
      <point x="221" y="-17"/>
    </contour>
    <contour>
      <point x="428" y="111" type="curve" smooth="yes"/>
      <point x="335" y="111"/>
      <point x="251" y="166"/>
      <point x="251" y="283" type="curve" smooth="yes"/>
      <point x="251" y="432"/>
      <point x="306" y="516"/>
      <point x="586" y="516" type="curve" smooth="yes"/>
      <point x="774" y="516" type="line"/>
      <point x="743" y="551" type="line"/>
      <point x="743" y="232" type="line"/>
      <point x="779" y="335" type="line"/>
      <point x="706" y="194"/>
      <point x="577" y="111"/>
    </contour>
  </outline>
</glyph>
<glyph name="b" format="1">
  <advance width="1148"/>
  <unicode hex="0062"/>
  <outline>
    <contour>
      <point x="621" y="-19" type="curve" smooth="yes"/>
      <point x="912" y="-19"/>
      <point x="1074" y="201"/>
      <point x="1074" y="530" type="curve" smooth="yes"/>
      <point x="1074" y="858"/>
      <point x="923" y="1082"/>
      <point x="628" y="1082" type="curve" smooth="yes"/>
      <point x="458" y="1082"/>
      <point x="322" y="978"/>
      <point x="258" y="848" type="curve"/>
      <point x="290" y="841" type="line"/>
      <point x="292" y="1086" type="line"/>
      <point x="292" y="1468" type="line"/>
      <point x="110" y="1455" type="line"/>
      <point x="110" y="0" type="line"/>
      <point x="259" y="0" type="line"/>
      <point x="282" y="260" type="line"/>
      <point x="235" y="251" type="line"/>
      <point x="284" y="134"/>
      <point x="416" y="-19"/>
    </contour>
    <contour>
      <point x="597" y="119" type="curve" smooth="yes"/>
      <point x="408" y="119"/>
      <point x="288" y="259"/>
      <point x="288" y="546" type="curve" smooth="yes"/>
      <point x="288" y="792"/>
      <point x="392" y="944"/>
      <point x="605" y="944" type="curve" smooth="yes"/>
      <point x="808" y="944"/>
      <point x="893" y="781"/>
      <point x="893" y="530" type="curve" smooth="yes"/>
      <point x="893" y="272"/>
      <point x="798" y="119"/>
    </contour>
  </outline>
</glyph>
<glyph name="c" format="1">
  <advance width="921"/>
  <unicode hex="0063"/>
  <outline>
    <contour>
      <point x="577" y="-19" type="curve" smooth="yes"/>
      <point x="726" y="-19"/>
      <point x="821" y="27"/>
      <point x="859" y="56" type="curve"/>
      <point x="827" y="180" type="line"/>
      <point x="770" y="148"/>
      <point x="688" y="119"/>
      <point x="598" y="121" type="curve" smooth="yes"/>
      <point x="375" y="124"/>
      <point x="259" y="293"/>
      <point x="259" y="526" type="curve" smooth="yes"/>
      <point x="259" y="784"/>
      <point x="399" y="942"/>
      <point x="599" y="942" type="curve" smooth="yes"/>
      <point x="725" y="942"/>
      <point x="801" y="892"/>
      <point x="814" y="884" type="curve"/>
      <point x="863" y="1008" type="line"/>
      <point x="829" y="1032"/>
      <point x="734" y="1082"/>
      <point x="579" y="1082" type="curve" smooth="yes"/>
      <point x="290" y="1082"/>
      <point x="80" y="863"/>
      <point x="80" y="527" type="curve" smooth="yes"/>
      <point x="80" y="202"/>
      <point x="272" y="-19"/>
    </contour>
  </outline>
</glyph>
<glyph name="d" format="1">
  <advance width="1147"/>
  <unicode hex="0064"/>
  <outline>
    <contour>
      <point x="532" y="-19" type="curve" smooth="yes"/>
      <point x="757" y="-19"/>
      <point x="855" y="122"/>
      <point x="904" y="255" type="curve"/>
      <point x="862" y="258" type="line"/>
      <point x="885" y="0" type="line"/>
      <point x="1037" y="0" type="line"/>
      <point x="1037" y="1468" type="line"/>
      <point x="856" y="1455" type="line"/>
      <point x="856" y="1127" type="line"/>
      <point x="867" y="821" type="line"/>
      <point x="902" y="833" type="line"/>
      <point x="839" y="965"/>
      <point x="746" y="1082"/>
      <point x="529" y="1082" type="curve" smooth="yes"/>
      <point x="247" y="1082"/>
      <point x="78" y="859"/>
      <point x="78" y="538" type="curve" smooth="yes"/>
      <point x="78" y="203"/>
      <point x="238" y="-19"/>
    </contour>
    <contour>
      <point x="552" y="119" type="curve" smooth="yes"/>
      <point x="346" y="119"/>
      <point x="258" y="283"/>
      <point x="258" y="534" type="curve" smooth="yes"/>
      <point x="258" y="795"/>
      <point x="363" y="943"/>
      <point x="562" y="943" type="curve" smooth="yes"/>
      <point x="751" y="943"/>
      <point x="862" y="802"/>
      <point x="862" y="518" type="curve" smooth="yes"/>
      <point x="861" y="272"/>
      <point x="768" y="119"/>
    </contour>
  </outline>
</glyph>
<glyph name="e" format="1">
  <advance width="1085"/>
  <unicode hex="0065"/>
  <outline>
    <contour>
      <point x="600" y="-19" type="curve" smooth="yes"/>
      <point x="758" y="-19"/>
      <point x="883" y="15"/>
      <point x="984" y="74" type="curve"/>
      <point x="947" y="196" type="line"/>
      <point x="855" y="151"/>
      <point x="751" y="118"/>
      <point x="620" y="118" type="curve" smooth="yes"/>
      <point x="417" y="118"/>
      <point x="256" y="240"/>
      <point x="256" y="535" type="curve"/>
      <point x="211" y="498" type="line"/>
      <point x="1003" y="498" type="line"/>
      <point x="1003" y="498"/>
      <point x="1010" y="562"/>
      <point x="1010" y="587" type="curve" smooth="yes"/>
      <point x="1010" y="883"/>
      <point x="852" y="1081"/>
      <point x="581" y="1081" type="curve" smooth="yes"/>
      <point x="304" y="1081"/>
      <point x="78" y="870"/>
      <point x="78" y="526" type="curve" smooth="yes"/>
      <point x="78" y="186"/>
      <point x="295" y="-19"/>
    </contour>
    <contour>
      <point x="260" y="577" type="line"/>
      <point x="267" y="806"/>
      <point x="410" y="948"/>
      <point x="585" y="948" type="curve" smooth="yes"/>
      <point x="759" y="948"/>
      <point x="846" y="820"/>
      <point x="848" y="573" type="curve"/>
      <point x="894" y="615" type="line"/>
      <point x="212" y="615" type="line"/>
    </contour>
  </outline>
</glyph>
<glyph name="f" format="1">
  <advance width="739"/>
  <unicode hex="0066"/>
  <outline>
    <contour>
      <point x="243" y="0" type="line"/>
      <point x="423" y="0" type="line"/>
      <point x="423" y="985" type="line"/>
      <point x="381" y="942" type="line"/>
      <point x="674" y="942" type="line"/>
      <point x="674" y="1060" type="line"/>
      <point x="378" y="1060" type="line"/>
      <point x="423" y="1023" type="line"/>
      <point x="423" y="1132" type="line" smooth="yes"/>
      <point x="423" y="1323"/>
      <point x="484" y="1346"/>
      <point x="583" y="1346" type="curve" smooth="yes"/>
      <point x="628" y="1346"/>
      <point x="688" y="1337"/>
      <point x="701" y="1335" type="curve"/>
      <point x="715" y="1462" type="line"/>
      <point x="687" y="1468"/>
      <point x="622" y="1479"/>
      <point x="550" y="1479" type="curve" smooth="yes"/>
      <point x="362" y="1479"/>
      <point x="243" y="1393"/>
      <point x="243" y="1120" type="curve" smooth="yes"/>
      <point x="243" y="1022" type="line"/>
      <point x="287" y="1063" type="line"/>
      <point x="61" y="1042" type="line"/>
      <point x="56" y="942" type="line"/>
      <point x="279" y="942" type="line"/>
      <point x="243" y="988" type="line"/>
    </contour>
  </outline>
</glyph>
<glyph name="g" format="1">
  <advance width="1146"/>
  <unicode hex="0067"/>
  <outline>
    <contour>
      <point x="568" y="146" type="curve" smooth="yes"/>
      <point x="335" y="146"/>
      <point x="258" y="349"/>
      <point x="258" y="535" type="curve" smooth="yes"/>
      <point x="258" y="735"/>
      <point x="340" y="943"/>
      <point x="573" y="943" type="curve" smooth="yes"/>
      <point x="802" y="943"/>
      <point x="864" y="788"/>
      <point x="864" y="577" type="curve" smooth="yes"/>
      <point x="864" y="496" type="line" smooth="yes"/>
      <point x="863" y="307"/>
      <point x="798" y="146"/>
    </contour>
    <contour>
      <point x="843" y="-538"/>
      <point x="1040.0" y="-276.666666667"/>
      <point x="1040" y="113" type="curve" smooth="yes"/>
      <point x="1040" y="1060" type="line"/>
      <point x="876" y="1060" type="line"/>
      <point x="860" y="844" type="line"/>
      <point x="895" y="848" type="line"/>
      <point x="841" y="995"/>
      <point x="739" y="1082"/>
      <point x="558" y="1082" type="curve" smooth="yes"/>
      <point x="236" y="1082"/>
      <point x="78" y="829"/>
      <point x="78" y="527" type="curve" smooth="yes"/>
      <point x="78" y="265"/>
      <point x="228" y="8"/>
      <point x="545" y="8" type="curve" smooth="yes"/>
      <point x="746" y="8"/>
      <point x="862" y="116"/>
      <point x="904" y="282" type="curve"/>
      <point x="863" y="284" type="line"/>
      <point x="863" y="69" type="line" smooth="yes"/>
      <point x="863.0" y="-297.77027027"/>
      <point x="644" y="-358"/>
      <point x="224" y="-303" type="curve"/>
      <point x="213" y="-440" type="line"/>
    </contour>
  </outline>
</glyph>
<glyph name="h" format="1">
  <advance width="1090"/>
  <unicode hex="0068"/>
  <outline>
    <contour>
      <point x="110" y="0" type="line"/>
      <point x="290" y="0" type="line"/>
      <point x="290" y="570" type="line" smooth="yes"/>
      <point x="290" y="759"/>
      <point x="351" y="943"/>
      <point x="597" y="943" type="curve" smooth="yes"/>
      <point x="753" y="943"/>
      <point x="809" y="846"/>
      <point x="809" y="648" type="curve" smooth="yes"/>
      <point x="809" y="0" type="line"/>
      <point x="989" y="0" type="line"/>
      <point x="989" y="657" type="line" smooth="yes"/>
      <point x="989" y="931"/>
      <point x="860" y="1081"/>
      <point x="629" y="1081" type="curve" smooth="yes"/>
      <point x="451" y="1081"/>
      <point x="307" y="996"/>
      <point x="240" y="844" type="curve"/>
      <point x="282" y="829" type="line"/>
      <point x="290" y="1123" type="line"/>
      <point x="290" y="1467" type="line"/>
      <point x="110" y="1455" type="line"/>
    </contour>
  </outline>
</glyph>
<glyph name="i" format="1">
  <advance width="439"/>
  <unicode hex="0069"/>
  <outline>
    <contour>
      <point x="128" y="0" type="line"/>
      <point x="308" y="0" type="line"/>
      <point x="308" y="1060" type="line"/>
      <point x="128" y="1060" type="line"/>
    </contour>
    <contour>
      <point x="128" y="1262" type="line"/>
      <point x="308" y="1262" type="line"/>
      <point x="308" y="1437" type="line"/>
      <point x="128" y="1437" type="line"/>
    </contour>
  </outline>
</glyph>
<glyph name="j" format="1">
  <advance width="508"/>
  <unicode hex="006A"/>
  <outline>
    <contour>
      <point x="4" y="-353" type="line"/>
      <point x="63" y="-353" type="line" smooth="yes"/>
      <point x="300" y="-353"/>
      <point x="379" y="-248"/>
      <point x="379" y="11" type="curve" smooth="yes"/>
      <point x="379" y="1060" type="line"/>
      <point x="199" y="1060" type="line"/>
      <point x="199" y="31" type="line" smooth="yes"/>
      <point x="199" y="-149"/>
      <point x="193" y="-209"/>
      <point x="42" y="-209" type="curve" smooth="yes"/>
      <point x="-8" y="-209" type="line"/>
    </contour>
    <contour>
      <point x="199" y="1262" type="line"/>
      <point x="379" y="1262" type="line"/>
      <point x="379" y="1437" type="line"/>
      <point x="199" y="1437" type="line"/>
    </contour>
  </outline>
</glyph>
<glyph name="k" format="1">
  <advance width="1029"/>
  <unicode hex="006B"/>
  <outline>
    <contour>
      <point x="110" y="0" type="line"/>
      <point x="290" y="0" type="line"/>
      <point x="290" y="429" type="line"/>
      <point x="244" y="334" type="line"/>
      <point x="443" y="517" type="line"/>
      <point x="376" y="517" type="line"/>
      <point x="815" y="0" type="line"/>
      <point x="1028" y="0" type="line"/>
      <point x="505" y="615" type="line"/>
      <point x="505" y="533" type="line"/>
      <point x="1014" y="1060" type="line"/>
      <point x="793" y="1060" type="line"/>
      <point x="246" y="501" type="line"/>
      <point x="283" y="501" type="line"/>
      <point x="290" y="751" type="line"/>
      <point x="290" y="1468" type="line"/>
      <point x="110" y="1455" type="line"/>
    </contour>
  </outline>
</glyph>
<glyph name="l" format="1">
  <advance width="583"/>
  <unicode hex="006C"/>
  <outline>
    <contour>
      <point x="127" y="52"/>
      <point x="248" y="-11"/>
      <point x="395" y="-11" type="curve" smooth="yes"/>
      <point x="448" y="-11"/>
      <point x="504" y="-3"/>
      <point x="558" y="7" type="curve"/>
      <point x="558" y="130" type="line"/>
      <point x="524" y="126"/>
      <point x="486" y="120"/>
      <point x="451" y="120" type="curve" smooth="yes"/>
      <point x="374" y="120"/>
      <point x="307" y="150"/>
      <point x="307" y="300" type="curve" smooth="yes"/>
      <point x="307" y="1468" type="line"/>
      <point x="127" y="1455" type="line"/>
      <point x="127" y="316" type="line" smooth="yes"/>
    </contour>
  </outline>
</glyph>
<glyph name="m" format="1">
  <advance width="1667"/>
  <unicode hex="006D"/>
  <outline>
    <contour>
      <point x="110" y="0" type="line"/>
      <point x="290" y="0" type="line"/>
      <point x="290" y="627" type="line"/>
      <point x="312" y="806"/>
      <point x="394" y="944"/>
      <point x="567" y="944" type="curve" smooth="yes"/>
      <point x="715" y="944"/>
      <point x="754" y="836"/>
      <point x="754" y="598" type="curve" smooth="yes"/>
      <point x="754" y="0" type="line"/>
      <point x="934" y="0" type="line"/>
      <point x="934" y="555" type="line"/>
      <point x="936" y="633"/>
      <point x="938" y="686"/>
      <point x="947" y="716" type="curve"/>
      <point x="984" y="868"/>
      <point x="1087" y="944"/>
      <point x="1206" y="944" type="curve" smooth="yes"/>
      <point x="1386" y="944"/>
      <point x="1386" y="765"/>
      <point x="1386" y="603" type="curve" smooth="yes"/>
      <point x="1386" y="0" type="line"/>
      <point x="1566" y="0" type="line"/>
      <point x="1566" y="682" type="line" smooth="yes"/>
      <point x="1566" y="942"/>
      <point x="1462" y="1082"/>
      <point x="1238" y="1082" type="curve" smooth="yes"/>
      <point x="1062" y="1082"/>
      <point x="939" y="982"/>
      <point x="867" y="827" type="curve"/>
      <point x="911" y="827" type="line"/>
      <point x="866" y="967"/>
      <point x="793" y="1082"/>
      <point x="601" y="1082" type="curve" smooth="yes"/>
      <point x="426" y="1082"/>
      <point x="307" y="981"/>
      <point x="238" y="847" type="curve"/>
      <point x="285" y="837" type="line"/>
      <point x="256" y="1060" type="line"/>
      <point x="110" y="1060" type="line"/>
    </contour>
  </outline>
</glyph>
<glyph name="n" format="1">
  <advance width="1100"/>
  <unicode hex="006E"/>
  <outline>
    <contour>
      <point x="110" y="0" type="line"/>
      <point x="290" y="0" type="line"/>
      <point x="290" y="580" type="line" smooth="yes"/>
      <point x="290" y="776"/>
      <point x="360" y="944"/>
      <point x="609" y="944" type="curve" smooth="yes"/>
      <point x="773" y="944"/>
      <point x="819" y="837"/>
      <point x="819" y="662" type="curve" smooth="yes"/>
      <point x="819" y="0" type="line"/>
      <point x="999" y="0" type="line"/>
      <point x="999" y="650" type="line" smooth="yes"/>
      <point x="999" y="935"/>
      <point x="887" y="1082"/>
      <point x="643" y="1082" type="curve" smooth="yes"/>
      <point x="443" y="1082"/>
      <point x="320" y="991"/>
      <point x="248" y="858" type="curve"/>
      <point x="292" y="858" type="line"/>
      <point x="264" y="1060" type="line"/>
      <point x="110" y="1060" type="line"/>
    </contour>
  </outline>
</glyph>
<glyph name="o" format="1">
  <advance width="1160"/>
  <unicode hex="006F"/>
  <outline>
    <contour>
      <point x="580" y="119" type="curve" smooth="yes"/>
      <point x="368" y="119"/>
      <point x="262" y="288"/>
      <point x="262" y="528" type="curve" smooth="yes"/>
      <point x="262" y="773"/>
      <point x="369" y="944"/>
      <point x="580" y="944" type="curve" smooth="yes"/>
      <point x="796" y="944"/>
      <point x="898" y="773"/>
      <point x="898" y="528" type="curve" smooth="yes"/>
      <point x="898" y="288"/>
      <point x="797" y="119"/>
    </contour>
    <contour>
      <point x="580" y="-19" type="curve" smooth="yes"/>
      <point x="881" y="-19"/>
      <point x="1082" y="209"/>
      <point x="1082" y="530" type="curve" smooth="yes"/>
      <point x="1082" y="858"/>
      <point x="893" y="1082"/>
      <point x="580" y="1082" type="curve" smooth="yes"/>
      <point x="268" y="1082"/>
      <point x="78" y="859"/>
      <point x="78" y="530" type="curve" smooth="yes"/>
      <point x="78" y="209"/>
      <point x="273" y="-19"/>
    </contour>
  </outline>
</glyph>
<glyph name="p" format="1">
  <advance width="1141"/>
  <unicode hex="0070"/>
  <outline>
    <contour>
      <point x="110" y="-459" type="line"/>
      <point x="288" y="-449" type="line"/>
      <point x="288" y="-59" type="line"/>
      <point x="273" y="285" type="line"/>
      <point x="236" y="256" type="line"/>
      <point x="284" y="130"/>
      <point x="409" y="-19"/>
      <point x="621" y="-19" type="curve" smooth="yes"/>
      <point x="902" y="-19"/>
      <point x="1068" y="208"/>
      <point x="1068" y="528" type="curve" smooth="yes"/>
      <point x="1068" y="853"/>
      <point x="912" y="1082"/>
      <point x="624" y="1082" type="curve" smooth="yes"/>
      <point x="450" y="1082"/>
      <point x="312" y="981"/>
      <point x="243" y="821" type="curve"/>
      <point x="283" y="818" type="line"/>
      <point x="258" y="1060" type="line"/>
      <point x="110" y="1060" type="line"/>
    </contour>
    <contour>
      <point x="591" y="119" type="curve" smooth="yes"/>
      <point x="397" y="119"/>
      <point x="285" y="271"/>
      <point x="285" y="546" type="curve" smooth="yes"/>
      <point x="286" y="789"/>
      <point x="382" y="944"/>
      <point x="597" y="944" type="curve" smooth="yes"/>
      <point x="799" y="944"/>
      <point x="887" y="779"/>
      <point x="887" y="530" type="curve" smooth="yes"/>
      <point x="887" y="277"/>
      <point x="790" y="119"/>
    </contour>
  </outline>
</glyph>
<glyph name="q" format="1">
  <advance width="1174"/>
  <unicode hex="0071"/>
  <outline>
    <contour>
      <point x="884" y="-459" type="line"/>
      <point x="1064" y="-450" type="line"/>
      <point x="1064" y="1060" type="line"/>
      <point x="901" y="1060" type="line"/>
      <point x="877" y="831" type="line"/>
      <point x="914" y="840" type="line"/>
      <point x="855" y="973"/>
      <point x="743" y="1082"/>
      <point x="542" y="1082" type="curve" smooth="yes"/>
      <point x="245" y="1082"/>
      <point x="78" y="851"/>
      <point x="78" y="525" type="curve" smooth="yes"/>
      <point x="78" y="209"/>
      <point x="264" y="-19"/>
      <point x="540" y="-19" type="curve" smooth="yes"/>
      <point x="764" y="-19"/>
      <point x="876" y="111"/>
      <point x="934" y="259" type="curve"/>
      <point x="891" y="278" type="line"/>
      <point x="884" y="-59" type="line"/>
    </contour>
    <contour>
      <point x="569" y="118" type="curve" smooth="yes"/>
      <point x="362" y="118"/>
      <point x="257" y="279"/>
      <point x="257" y="532" type="curve" smooth="yes"/>
      <point x="257" y="780"/>
      <point x="359" y="943"/>
      <point x="569" y="943" type="curve" smooth="yes"/>
      <point x="792" y="943"/>
      <point x="883" y="792"/>
      <point x="883" y="548" type="curve" smooth="yes"/>
      <point x="884" y="273"/>
      <point x="802" y="118"/>
    </contour>
  </outline>
</glyph>
<glyph name="r" format="1">
  <advance width="730"/>
  <unicode hex="0072"/>
  <outline>
    <contour>
      <point x="111" y="0" type="line"/>
      <point x="291" y="0" type="line"/>
      <point x="291" y="596" type="line" smooth="yes"/>
      <point x="291" y="777"/>
      <point x="421" y="923"/>
      <point x="606" y="923" type="curve" smooth="yes"/>
      <point x="629" y="923"/>
      <point x="655" y="920"/>
      <point x="682" y="915" type="curve"/>
      <point x="688" y="1064" type="line"/>
      <point x="664" y="1068"/>
      <point x="638" y="1070"/>
      <point x="609" y="1070" type="curve" smooth="yes"/>
      <point x="477" y="1070"/>
      <point x="326" y="994"/>
      <point x="242" y="788" type="curve"/>
      <point x="283" y="781" type="line"/>
      <point x="256" y="1060" type="line"/>
      <point x="111" y="1060" type="line"/>
    </contour>
  </outline>
</glyph>
<glyph name="s" format="1">
  <advance width="891"/>
  <unicode hex="0073"/>
  <outline>
    <contour>
      <point x="453" y="-19" type="curve" smooth="yes"/>
      <point x="687" y="-19"/>
      <point x="826" y="89"/>
      <point x="826" y="287" type="curve" smooth="yes"/>
      <point x="826" y="447"/>
      <point x="759" y="539"/>
      <point x="534" y="605" type="curve" smooth="yes"/>
      <point x="437" y="634" type="line" smooth="yes"/>
      <point x="296" y="676"/>
      <point x="254" y="720"/>
      <point x="261" y="809" type="curve" smooth="yes"/>
      <point x="268" y="899"/>
      <point x="336" y="948"/>
      <point x="486" y="948" type="curve" smooth="yes"/>
      <point x="598" y="948"/>
      <point x="675" y="918"/>
      <point x="736" y="891" type="curve"/>
      <point x="777" y="1018" type="line"/>
      <point x="682" y="1062"/>
      <point x="594" y="1082"/>
      <point x="467" y="1082" type="curve" smooth="yes"/>
      <point x="241" y="1082"/>
      <point x="102" y="962"/>
      <point x="102" y="789" type="curve" smooth="yes"/>
      <point x="102" y="654"/>
      <point x="167" y="558"/>
      <point x="361" y="502" type="curve" smooth="yes"/>
      <point x="468" y="471" type="line" smooth="yes"/>
      <point x="636" y="422"/>
      <point x="680" y="375"/>
      <point x="669" y="273" type="curve" smooth="yes"/>
      <point x="658" y="169"/>
      <point x="599" y="114"/>
      <point x="454" y="114" type="curve" smooth="yes"/>
      <point x="322" y="114"/>
      <point x="201" y="165"/>
      <point x="151" y="187" type="curve"/>
      <point x="107" y="61" type="line"/>
      <point x="141" y="42"/>
      <point x="285" y="-19"/>
    </contour>
  </outline>
</glyph>
<glyph name="t" format="1">
  <advance width="733"/>
  <unicode hex="0074"/>
  <outline>
    <contour>
      <point x="197.0" y="-37.6153846154"/>
      <point x="459" y="-37"/>
      <point x="689" y="11" type="curve"/>
      <point x="689" y="130" type="line"/>
      <point x="480" y="102"/>
      <point x="377" y="104"/>
      <point x="377" y="328" type="curve" smooth="yes"/>
      <point x="377" y="986" type="line"/>
      <point x="341" y="948" type="line"/>
      <point x="666" y="948" type="line"/>
      <point x="666" y="1060" type="line"/>
      <point x="341" y="1060" type="line"/>
      <point x="377" y="1018" type="line"/>
      <point x="377" y="1329" type="line"/>
      <point x="253" y="1325" type="line"/>
      <point x="199" y="1028" type="line"/>
      <point x="248" y="1063" type="line"/>
      <point x="46" y="1049" type="line"/>
      <point x="40" y="948" type="line"/>
      <point x="233" y="948" type="line"/>
      <point x="197" y="987" type="line"/>
      <point x="197" y="330" type="line" smooth="yes"/>
    </contour>
  </outline>
</glyph>
<glyph name="u" format="1">
  <advance width="1100"/>
  <unicode hex="0075"/>
  <outline>
    <contour>
      <point x="990" y="1060" type="line"/>
      <point x="810" y="1060" type="line"/>
      <point x="810" y="469" type="line" smooth="yes"/>
      <point x="810" y="273"/>
      <point x="740" y="116"/>
      <point x="504" y="116" type="curve" smooth="yes"/>
      <point x="334" y="116"/>
      <point x="281" y="223"/>
      <point x="282" y="398" type="curve" smooth="yes"/>
      <point x="282" y="1060" type="line"/>
      <point x="102" y="1060" type="line"/>
      <point x="102" y="409" type="line" smooth="yes"/>
      <point x="102" y="120"/>
      <point x="217" y="-22"/>
      <point x="461" y="-22" type="curve" smooth="yes"/>
      <point x="661" y="-22"/>
      <point x="786" y="47"/>
      <point x="860" y="221" type="curve"/>
      <point x="815" y="221" type="line"/>
      <point x="843" y="0" type="line"/>
      <point x="990" y="0" type="line"/>
    </contour>
  </outline>
</glyph>
<glyph name="v" format="1">
  <advance width="1058"/>
  <unicode hex="0076"/>
  <outline>
    <contour>
      <point x="444" y="0" type="line"/>
      <point x="624" y="0" type="line"/>
      <point x="1020" y="1060" type="line"/>
      <point x="835" y="1060" type="line"/>
      <point x="629" y="461" type="line"/>
      <point x="515" y="119" type="line"/>
      <point x="557" y="119" type="line"/>
      <point x="437" y="459" type="line"/>
      <point x="225" y="1060" type="line"/>
      <point x="38" y="1060" type="line"/>
    </contour>
  </outline>
</glyph>
<glyph name="w" format="1">
  <advance width="1544"/>
  <unicode hex="0077"/>
  <outline>
    <contour>
      <point x="332" y="0" type="line"/>
      <point x="504" y="0" type="line"/>
      <point x="792" y="956" type="line"/>
      <point x="757" y="956" type="line"/>
      <point x="1057" y="0" type="line"/>
      <point x="1220" y="0" type="line"/>
      <point x="1508" y="1060" type="line"/>
      <point x="1341" y="1060" type="line"/>
      <point x="1118" y="138" type="line"/>
      <point x="1155" y="138" type="line"/>
      <point x="869" y="1060" type="line"/>
      <point x="679" y="1060" type="line"/>
      <point x="405" y="138" type="line"/>
      <point x="440" y="138" type="line"/>
      <point x="208" y="1060" type="line"/>
      <point x="36" y="1060" type="line"/>
    </contour>
  </outline>
</glyph>
<glyph name="x" format="1">
  <advance width="1048"/>
  <unicode hex="0078"/>
  <outline>
    <contour>
      <point x="32" y="0" type="line"/>
      <point x="233" y="0" type="line"/>
      <point x="545" y="439" type="line"/>
      <point x="614" y="496" type="line"/>
      <point x="1010" y="1060" type="line"/>
      <point x="809" y="1060" type="line"/>
      <point x="512" y="626" type="line"/>
      <point x="444" y="572" type="line"/>
    </contour>
    <contour>
      <point x="820" y="0" type="line"/>
      <point x="1016" y="0" type="line"/>
      <point x="251" y="1060" type="line"/>
      <point x="57" y="1060" type="line"/>
    </contour>
  </outline>
</glyph>
<glyph name="y" format="1">
  <advance width="1054"/>
  <unicode hex="0079"/>
  <outline>
    <contour>
      <point x="473" y="-398" type="line"/>
      <point x="1027" y="1060" type="line"/>
      <point x="843" y="1060" type="line"/>
      <point x="533" y="173" type="line"/>
      <point x="575" y="173" type="line"/>
      <point x="233" y="1060" type="line"/>
      <point x="48" y="1060" type="line"/>
      <point x="494" y="-38" type="line"/>
      <point x="494" y="90" type="line"/>
      <point x="315" y="-366" type="line"/>
    </contour>
  </outline>
</glyph>
<glyph name="z" format="1">
  <advance width="892"/>
  <unicode hex="007A"/>
  <outline>
    <contour>
      <point x="104" y="0" type="line"/>
      <point x="814" y="0" type="line"/>
      <point x="814" y="132" type="line"/>
      <point x="242" y="132" type="line"/>
      <point x="264" y="68" type="line"/>
      <point x="804" y="936" type="line"/>
      <point x="804" y="1060" type="line"/>
      <point x="126" y="1060" type="line"/>
      <point x="126" y="928" type="line"/>
      <point x="677" y="928" type="line"/>
      <point x="653" y="989" type="line"/>
      <point x="104" y="116" type="line"/>
    </contour>
  </outline>
</glyph>
<glyph name="braceleft" format="1">
  <advance width="728"/>
  <unicode hex="007B"/>
  <outline>
    <contour>
      <point x="627" y="-271" type="line"/>
      <point x="388" y="-271"/>
      <point x="291" y="-161"/>
      <point x="291" y="59" type="curve" smooth="yes"/>
      <point x="291" y="256" type="line" smooth="yes"/>
      <point x="291" y="423"/>
      <point x="267" y="532"/>
      <point x="82" y="534" type="curve"/>
      <point x="82" y="674" type="line"/>
      <point x="266" y="674"/>
      <point x="291" y="785"/>
      <point x="291" y="950" type="curve" smooth="yes"/>
      <point x="291" y="1187" type="line" smooth="yes"/>
      <point x="291" y="1386"/>
      <point x="407" y="1486"/>
      <point x="627" y="1487" type="curve"/>
      <point x="627" y="1352" type="line"/>
      <point x="487" y="1350"/>
      <point x="444" y="1296"/>
      <point x="444" y="1133" type="curve" smooth="yes"/>
      <point x="444" y="876" type="line" smooth="yes"/>
      <point x="443" y="730"/>
      <point x="396" y="651"/>
      <point x="266" y="600" type="curve"/>
      <point x="394" y="563"/>
      <point x="444" y="488"/>
      <point x="444" y="337" type="curve" smooth="yes"/>
      <point x="444" y="80" type="line" smooth="yes"/>
      <point x="444" y="-79"/>
      <point x="484" y="-138"/>
      <point x="627" y="-140" type="curve"/>
    </contour>
  </outline>
</glyph>
<glyph name="bar" format="1">
  <advance width="341"/>
  <unicode hex="007C"/>
  <outline>
    <contour>
      <point x="109" y="-352" type="line"/>
      <point x="109" y="1547" type="line"/>
      <point x="245" y="1547" type="line"/>
      <point x="245" y="-352" type="line"/>
    </contour>
  </outline>
</glyph>
<glyph name="braceright" format="1">
  <advance width="728"/>
  <unicode hex="007D"/>
  <outline>
    <contour>
      <point x="94" y="-271" type="curve"/>
      <point x="94" y="-138" type="line"/>
      <point x="234" y="-136"/>
      <point x="275" y="-84"/>
      <point x="275" y="80" type="curve" smooth="yes"/>
      <point x="275" y="338" type="line" smooth="yes"/>
      <point x="275" y="461"/>
      <point x="319" y="553"/>
      <point x="454" y="611" type="curve"/>
      <point x="324" y="652"/>
      <point x="276" y="762"/>
      <point x="275" y="877" type="curve" smooth="yes"/>
      <point x="275" y="1133" type="line" smooth="yes"/>
      <point x="275" y="1292"/>
      <point x="237" y="1353"/>
      <point x="94" y="1355" type="curve"/>
      <point x="94" y="1487" type="line"/>
      <point x="333" y="1487"/>
      <point x="429" y="1377"/>
      <point x="429" y="1154" type="curve" smooth="yes"/>
      <point x="429" y="954" type="line" smooth="yes"/>
      <point x="429" y="787"/>
      <point x="450" y="679"/>
      <point x="638" y="677" type="curve"/>
      <point x="638" y="538" type="line"/>
      <point x="456" y="538"/>
      <point x="429" y="426"/>
      <point x="429" y="260" type="curve" smooth="yes"/>
      <point x="429" y="27" type="line" smooth="yes"/>
      <point x="429" y="-172"/>
      <point x="317" y="-270"/>
    </contour>
  </outline>
</glyph>
<glyph name="asciitilde" format="1">
  <advance width="1150"/>
  <unicode hex="007E"/>
  <outline>
    <contour>
      <point x="138" y="486" type="curve"/>
      <point x="90" y="587" type="line"/>
      <point x="135" y="694"/>
      <point x="222" y="779"/>
      <point x="352" y="779" type="curve" smooth="yes"/>
      <point x="432" y="779"/>
      <point x="492" y="756"/>
      <point x="589" y="713" type="curve"/>
      <point x="682" y="673"/>
      <point x="759" y="637"/>
      <point x="818" y="637" type="curve" smooth="yes"/>
      <point x="898" y="637"/>
      <point x="975" y="704"/>
      <point x="1019" y="788" type="curve"/>
      <point x="1072" y="694" type="line"/>
      <point x="1023" y="577"/>
      <point x="939" y="499"/>
      <point x="814" y="499" type="curve" smooth="yes"/>
      <point x="742" y="499"/>
      <point x="670" y="527"/>
      <point x="588" y="564" type="curve" smooth="yes"/>
      <point x="489" y="608"/>
      <point x="417" y="641"/>
      <point x="348" y="641" type="curve" smooth="yes"/>
      <point x="261" y="641"/>
      <point x="183" y="570"/>
    </contour>
  </outline>
</glyph>
<glyph name="sterling" format="1">
  <advance width="1097"/>
  <unicode hex="00A3"/>
  <outline>
    <contour>
      <point x="103" y="0" type="line"/>
      <point x="91" y="133" type="line"/>
      <point x="270" y="151" type="line"/>
      <point x="270" y="658" type="line"/>
      <point x="90" y="658" type="line"/>
      <point x="90" y="788" type="line"/>
      <point x="270" y="788" type="line"/>
      <point x="270" y="893" type="line" smooth="yes"/>
      <point x="270" y="1189"/>
      <point x="334" y="1457"/>
      <point x="681" y="1457" type="curve" smooth="yes"/>
      <point x="825" y="1457"/>
      <point x="939" y="1403"/>
      <point x="1025" y="1330" type="curve"/>
      <point x="952" y="1215" type="line"/>
      <point x="867" y="1280"/>
      <point x="782" y="1316"/>
      <point x="682" y="1316" type="curve" smooth="yes"/>
      <point x="491" y="1316"/>
      <point x="431" y="1177"/>
      <point x="431" y="964" type="curve" smooth="yes"/>
      <point x="431" y="788" type="line"/>
      <point x="829" y="788" type="line"/>
      <point x="829" y="658" type="line"/>
      <point x="431" y="658" type="line"/>
      <point x="431" y="153" type="line"/>
      <point x="1040" y="153" type="line"/>
      <point x="1028" y="0" type="line"/>
    </contour>
  </outline>
</glyph>
<glyph name="currency" format="1">
  <advance width="1209"/>
  <unicode hex="00A4"/>
  <outline>
    <contour>
      <point x="1049" y="224" type="line"/>
      <point x="1114" y="295" type="line"/>
      <point x="937" y="467" type="line"/>
      <point x="988" y="536"/>
      <point x="1015" y="616"/>
      <point x="1015" y="707" type="curve" smooth="yes"/>
      <point x="1015" y="793"/>
      <point x="988" y="876"/>
      <point x="936" y="948" type="curve"/>
      <point x="1115" y="1119" type="line"/>
      <point x="1049" y="1190" type="line"/>
      <point x="868" y="1020" type="line"/>
      <point x="797" y="1078"/>
      <point x="711" y="1111"/>
      <point x="614" y="1111" type="curve" smooth="yes"/>
      <point x="518" y="1111"/>
      <point x="429" y="1080"/>
      <point x="358" y="1022" type="curve"/>
      <point x="180" y="1190" type="line"/>
      <point x="110" y="1121" type="line"/>
      <point x="291" y="948" type="line"/>
      <point x="239" y="878"/>
      <point x="212" y="795"/>
      <point x="212" y="707" type="curve" smooth="yes"/>
      <point x="212" y="618"/>
      <point x="239" y="537"/>
      <point x="291" y="467" type="curve"/>
      <point x="111" y="295" type="line"/>
      <point x="180" y="226" type="line"/>
      <point x="358" y="394" type="line"/>
      <point x="429" y="336"/>
      <point x="516" y="305"/>
      <point x="614" y="305" type="curve" smooth="yes"/>
      <point x="711" y="305"/>
      <point x="798" y="337"/>
      <point x="868" y="394" type="curve"/>
    </contour>
    <contour>
      <point x="614" y="403" type="curve" smooth="yes"/>
      <point x="434" y="403"/>
      <point x="317" y="541"/>
      <point x="317" y="707" type="curve" smooth="yes"/>
      <point x="317" y="872"/>
      <point x="434" y="1013"/>
      <point x="614" y="1013" type="curve" smooth="yes"/>
      <point x="795" y="1013"/>
      <point x="912" y="872"/>
      <point x="912" y="707" type="curve" smooth="yes"/>
      <point x="912" y="542"/>
      <point x="796" y="403"/>
    </contour>
  </outline>
</glyph>
<glyph name="yen" format="1">
  <advance width="1225"/>
  <unicode hex="00A5"/>
  <outline>
    <contour>
      <point x="539" y="0" type="line"/>
      <point x="731" y="0" type="line"/>
      <point x="731" y="274" type="line"/>
      <point x="1043" y="274" type="line"/>
      <point x="1043" y="388" type="line"/>
      <point x="731" y="388" type="line"/>
      <point x="731" y="565" type="line"/>
      <point x="1042" y="565" type="line"/>
      <point x="1042" y="677" type="line"/>
      <point x="782" y="677" type="line"/>
      <point x="1198" y="1437" type="line"/>
      <point x="1004" y="1437" type="line"/>
      <point x="634" y="733" type="line"/>
      <point x="245" y="1437" type="line"/>
      <point x="50" y="1437" type="line"/>
      <point x="485" y="677" type="line"/>
      <point x="221" y="677" type="line"/>
      <point x="221" y="565" type="line"/>
      <point x="539" y="565" type="line"/>
      <point x="539" y="388" type="line"/>
      <point x="220" y="388" type="line"/>
      <point x="220" y="274" type="line"/>
      <point x="539" y="274" type="line"/>
    </contour>
  </outline>
</glyph>
<glyph name="brokenbar" format="1">
  <advance width="353"/>
  <unicode hex="00A6"/>
  <outline>
    <contour>
      <point x="115" y="-241" type="line"/>
      <point x="115" y="445" type="line"/>
      <point x="251" y="445" type="line"/>
      <point x="251" y="-241" type="line"/>
    </contour>
    <contour>
      <point x="115" y="762" type="line"/>
      <point x="115" y="1445" type="line"/>
      <point x="251" y="1445" type="line"/>
      <point x="251" y="762" type="line"/>
    </contour>
  </outline>
</glyph>
<glyph name="section" format="1">
  <advance width="951"/>
  <unicode hex="00A7"/>
  <outline>
    <contour>
      <point x="833" y="271" type="curve" smooth="yes"/>
      <point x="833" y="69"/>
      <point x="651" y="-18"/>
      <point x="449" y="-18" type="curve" smooth="yes"/>
      <point x="343" y="-18"/>
      <point x="231" y="5"/>
      <point x="138" y="48" type="curve"/>
      <point x="172" y="135" type="line"/>
      <point x="251" y="93"/>
      <point x="357" y="67"/>
      <point x="454" y="67" type="curve" smooth="yes"/>
      <point x="602" y="67"/>
      <point x="731" y="126"/>
      <point x="731" y="278" type="curve" smooth="yes"/>
      <point x="731" y="389"/>
      <point x="659" y="435"/>
      <point x="461" y="503" type="curve" smooth="yes"/>
      <point x="260" y="573"/>
      <point x="132" y="632"/>
      <point x="132" y="792" type="curve" smooth="yes"/>
      <point x="132" y="908"/>
      <point x="202" y="986"/>
      <point x="297" y="1035" type="curve"/>
      <point x="194" y="1093"/>
      <point x="143" y="1158"/>
      <point x="143" y="1274" type="curve" smooth="yes"/>
      <point x="143" y="1462"/>
      <point x="320" y="1545"/>
      <point x="517" y="1545" type="curve" smooth="yes"/>
      <point x="613" y="1545"/>
      <point x="715" y="1524"/>
      <point x="802" y="1487" type="curve"/>
      <point x="771" y="1405" type="line"/>
      <point x="701" y="1438"/>
      <point x="608" y="1458"/>
      <point x="519" y="1458" type="curve" smooth="yes"/>
      <point x="378" y="1458"/>
      <point x="249" y="1408"/>
      <point x="249" y="1282" type="curve" smooth="yes"/>
      <point x="249" y="1139"/>
      <point x="356" y="1109"/>
      <point x="543" y="1034" type="curve"/>
      <point x="753" y="951"/>
      <point x="841" y="904"/>
      <point x="841" y="746" type="curve" smooth="yes"/>
      <point x="841" y="630"/>
      <point x="799" y="554"/>
      <point x="687" y="507" type="curve"/>
      <point x="778" y="456"/>
      <point x="833" y="380"/>
    </contour>
    <contour>
      <point x="607" y="547" type="line"/>
      <point x="671" y="581"/>
      <point x="738" y="616"/>
      <point x="738" y="758" type="curve" smooth="yes"/>
      <point x="738" y="859"/>
      <point x="641" y="898"/>
      <point x="505" y="952" type="curve"/>
      <point x="373" y="1003" type="line"/>
      <point x="308" y="979"/>
      <point x="236" y="902"/>
      <point x="236" y="797" type="curve" smooth="yes"/>
      <point x="236" y="683"/>
      <point x="329" y="658"/>
      <point x="489" y="594" type="curve" smooth="yes"/>
    </contour>
  </outline>
</glyph>
<glyph name="dieresis" format="1">
  <advance width="701"/>
  <unicode hex="00A8"/>
  <outline>
    <contour>
      <point x="100" y="1225" type="line"/>
      <point x="247" y="1225" type="line"/>
      <point x="247" y="1412" type="line"/>
      <point x="100" y="1412" type="line"/>
    </contour>
    <contour>
      <point x="476" y="1225" type="line"/>
      <point x="623" y="1225" type="line"/>
      <point x="623" y="1412" type="line"/>
      <point x="476" y="1412" type="line"/>
    </contour>
  </outline>
</glyph>
<glyph name="copyright" format="1">
  <advance width="1724"/>
  <unicode hex="00A9"/>
  <outline>
    <contour>
      <point x="875" y="237" type="curve" smooth="yes"/>
      <point x="978" y="237"/>
      <point x="1078" y="265"/>
      <point x="1165" y="321" type="curve"/>
      <point x="1127" y="411" type="line"/>
      <point x="1043" y="360"/>
      <point x="959" y="341"/>
      <point x="880" y="341" type="curve" smooth="yes"/>
      <point x="677" y="341"/>
      <point x="523" y="494"/>
      <point x="523" y="743" type="curve" smooth="yes"/>
      <point x="523" y="974"/>
      <point x="677" y="1136"/>
      <point x="873" y="1136" type="curve" smooth="yes"/>
      <point x="946" y="1136"/>
      <point x="1042" y="1111"/>
      <point x="1116" y="1057" type="curve"/>
      <point x="1162" y="1151" type="line"/>
      <point x="1073" y="1212"/>
      <point x="972" y="1241"/>
      <point x="868" y="1241" type="curve" smooth="yes"/>
      <point x="605" y="1241"/>
      <point x="394" y="1024"/>
      <point x="394" y="738" type="curve" smooth="yes"/>
      <point x="394" y="445"/>
      <point x="612" y="237"/>
    </contour>
    <contour>
      <point x="860" y="67" type="curve" smooth="yes"/>
      <point x="517" y="67"/>
      <point x="199" y="310"/>
      <point x="199" y="742" type="curve" smooth="yes"/>
      <point x="199" y="1173"/>
      <point x="516" y="1416"/>
      <point x="859" y="1416" type="curve" smooth="yes"/>
      <point x="1204" y="1416"/>
      <point x="1525" y="1173"/>
      <point x="1525" y="742" type="curve" smooth="yes"/>
      <point x="1525" y="311"/>
      <point x="1205" y="67"/>
    </contour>
    <contour>
      <point x="860" y="-24" type="curve" smooth="yes"/>
      <point x="1251" y="-24"/>
      <point x="1635" y="245"/>
      <point x="1635" y="742" type="curve" smooth="yes"/>
      <point x="1635" y="1238"/>
      <point x="1249" y="1508"/>
      <point x="859" y="1508" type="curve" smooth="yes"/>
      <point x="470" y="1508"/>
      <point x="89" y="1239"/>
      <point x="89" y="742" type="curve" smooth="yes"/>
      <point x="89" y="245"/>
      <point x="471" y="-24"/>
    </contour>
  </outline>
</glyph>
<glyph name="guillemotleft" format="1">
  <advance width="951"/>
  <unicode hex="00AB"/>
  <outline>
    <contour>
      <point x="728" y="145" type="line"/>
      <point x="858" y="179" type="line"/>
      <point x="601" y="543" type="line"/>
      <point x="864" y="904" type="line"/>
      <point x="730" y="938" type="line"/>
      <point x="441" y="540" type="line"/>
    </contour>
    <contour>
      <point x="367" y="145" type="line"/>
      <point x="497" y="179" type="line"/>
      <point x="241" y="543" type="line"/>
      <point x="504" y="904" type="line"/>
      <point x="370" y="938" type="line"/>
      <point x="80" y="540" type="line"/>
    </contour>
  </outline>
</glyph>
<glyph name="logicalnot" format="1">
  <advance width="1143"/>
  <unicode hex="00AC"/>
  <outline>
    <contour>
      <point x="910" y="251" type="line"/>
      <point x="1042" y="251" type="line"/>
      <point x="1042" y="794" type="line"/>
      <point x="85" y="794" type="line"/>
      <point x="85" y="658" type="line"/>
      <point x="910" y="658" type="line"/>
    </contour>
  </outline>
</glyph>
<glyph name="uni00AD" format="1">
  <advance width="885"/>
  <unicode hex="00AD"/>
  <outline>
    <contour>
      <point x="92" y="228" type="line"/>
      <point x="810" y="228" type="line"/>
      <point x="810" y="372" type="line"/>
      <point x="92" y="372" type="line"/>
    </contour>
  </outline>
</glyph>
<glyph name="registered" format="1">
  <advance width="1721"/>
  <unicode hex="00AE"/>
  <outline>
    <contour>
      <point x="557" y="288" type="line"/>
      <point x="679" y="288" type="line"/>
      <point x="679" y="723" type="line"/>
      <point x="888" y="723" type="line"/>
      <point x="901" y="710"/>
      <point x="1106" y="288"/>
      <point x="1106" y="288" type="curve"/>
      <point x="1240" y="288" type="line"/>
      <point x="1240" y="288"/>
      <point x="1031" y="710"/>
      <point x="1008" y="740" type="curve"/>
      <point x="1144" y="757"/>
      <point x="1205" y="846"/>
      <point x="1205" y="984" type="curve" smooth="yes"/>
      <point x="1205" y="1155"/>
      <point x="1114" y="1231"/>
      <point x="881" y="1231" type="curve" smooth="yes"/>
      <point x="557" y="1231" type="line"/>
    </contour>
    <contour>
      <point x="679" y="829" type="line"/>
      <point x="679" y="1125" type="line"/>
      <point x="861" y="1125" type="line" smooth="yes"/>
      <point x="1025" y="1125"/>
      <point x="1087" y="1108"/>
      <point x="1087" y="980" type="curve" smooth="yes"/>
      <point x="1087" y="870"/>
      <point x="1038" y="829"/>
      <point x="894" y="829" type="curve" smooth="yes"/>
    </contour>
    <contour>
      <point x="860" y="64" type="curve" smooth="yes"/>
      <point x="517" y="64"/>
      <point x="200" y="308"/>
      <point x="200" y="740" type="curve" smooth="yes"/>
      <point x="200" y="1171"/>
      <point x="516" y="1416"/>
      <point x="859" y="1416" type="curve" smooth="yes"/>
      <point x="1203" y="1416"/>
      <point x="1523" y="1170"/>
      <point x="1523" y="739" type="curve" smooth="yes"/>
      <point x="1523" y="308"/>
      <point x="1204" y="64"/>
    </contour>
    <contour>
      <point x="860" y="-27" type="curve" smooth="yes"/>
      <point x="1250" y="-27"/>
      <point x="1633" y="243"/>
      <point x="1633" y="740" type="curve" smooth="yes"/>
      <point x="1633" y="1236"/>
      <point x="1249" y="1508"/>
      <point x="859" y="1508" type="curve" smooth="yes"/>
      <point x="470" y="1508"/>
      <point x="89" y="1237"/>
      <point x="89" y="740" type="curve" smooth="yes"/>
      <point x="89" y="243"/>
      <point x="471" y="-27"/>
    </contour>
  </outline>
</glyph>
<glyph name="macron" format="1">
  <advance width="961"/>
  <unicode hex="00AF"/>
  <outline>
    <contour>
      <point x="172" y="1269" type="line"/>
      <point x="772" y="1269" type="line"/>
      <point x="772" y="1395" type="line"/>
      <point x="172" y="1395" type="line"/>
    </contour>
  </outline>
</glyph>
<glyph name="degree" format="1">
  <advance width="772"/>
  <unicode hex="00B0"/>
  <outline>
    <contour>
      <point x="386" y="995" type="curve" smooth="yes"/>
      <point x="284" y="995"/>
      <point x="201" y="1070"/>
      <point x="201" y="1182" type="curve" smooth="yes"/>
      <point x="201" y="1293"/>
      <point x="286" y="1367"/>
      <point x="387" y="1367" type="curve" smooth="yes"/>
      <point x="488" y="1367"/>
      <point x="571" y="1293"/>
      <point x="571" y="1182" type="curve" smooth="yes"/>
      <point x="571" y="1071"/>
      <point x="488" y="995"/>
    </contour>
    <contour>
      <point x="386" y="894" type="curve" smooth="yes"/>
      <point x="554" y="894"/>
      <point x="687" y="1021"/>
      <point x="687" y="1183" type="curve" smooth="yes"/>
      <point x="687" y="1350"/>
      <point x="550" y="1468"/>
      <point x="386" y="1468" type="curve" smooth="yes"/>
      <point x="224" y="1468"/>
      <point x="86" y="1350"/>
      <point x="86" y="1183" type="curve" smooth="yes"/>
      <point x="86" y="1015"/>
      <point x="224" y="894"/>
    </contour>
  </outline>
</glyph>
<glyph name="plusminus" format="1">
  <advance width="1119"/>
  <unicode hex="00B1"/>
  <outline>
    <contour>
      <point x="97" y="0" type="line"/>
      <point x="97" y="125" type="line"/>
      <point x="1023" y="125" type="line"/>
      <point x="1023" y="0" type="line"/>
    </contour>
    <contour>
      <point x="484" y="213" type="line"/>
      <point x="621" y="213" type="line"/>
      <point x="621" y="596" type="line"/>
      <point x="984" y="596" type="line"/>
      <point x="984" y="726" type="line"/>
      <point x="620" y="726" type="line"/>
      <point x="620" y="1099" type="line"/>
      <point x="484" y="1099" type="line"/>
      <point x="484" y="726" type="line"/>
      <point x="115" y="726" type="line"/>
      <point x="115" y="596" type="line"/>
      <point x="484" y="596" type="line"/>
    </contour>
  </outline>
</glyph>
<glyph name="uni00B2" format="1">
  <advance width="705"/>
  <unicode hex="00B2"/>
  <outline>
    <contour>
      <point x="611" y="649" type="line"/>
      <point x="96" y="649" type="line"/>
      <point x="96" y="739" type="line"/>
      <point x="336" y="980"/>
      <point x="510" y="1132"/>
      <point x="510" y="1254" type="curve" smooth="yes"/>
      <point x="510" y="1360"/>
      <point x="442" y="1406"/>
      <point x="365" y="1406" type="curve" smooth="yes"/>
      <point x="283" y="1406"/>
      <point x="203" y="1370"/>
      <point x="139" y="1284" type="curve"/>
      <point x="68" y="1343" type="line"/>
      <point x="119" y="1439"/>
      <point x="240" y="1504"/>
      <point x="353" y="1504" type="curve" smooth="yes"/>
      <point x="508" y="1504"/>
      <point x="622" y="1422"/>
      <point x="622" y="1263" type="curve" smooth="yes"/>
      <point x="622" y="1074"/>
      <point x="451" y="940"/>
      <point x="239" y="746" type="curve"/>
      <point x="611" y="746" type="line"/>
    </contour>
  </outline>
</glyph>
<glyph name="uni00B3" format="1">
  <advance width="749"/>
  <unicode hex="00B3"/>
  <outline>
    <contour>
      <point x="389" y="601" type="curve" smooth="yes"/>
      <point x="536" y="601"/>
      <point x="655" y="696"/>
      <point x="655" y="856" type="curve" smooth="yes"/>
      <point x="655" y="952"/>
      <point x="596" y="1029"/>
      <point x="496" y="1061" type="curve"/>
      <point x="593" y="1085"/>
      <point x="635" y="1159"/>
      <point x="636" y="1234" type="curve" smooth="yes"/>
      <point x="636" y="1391"/>
      <point x="515" y="1466"/>
      <point x="387" y="1466" type="curve" smooth="yes"/>
      <point x="299" y="1466"/>
      <point x="192" y="1432"/>
      <point x="134" y="1373" type="curve"/>
      <point x="185" y="1281" type="line"/>
      <point x="225" y="1319"/>
      <point x="314" y="1349"/>
      <point x="381" y="1349" type="curve" smooth="yes"/>
      <point x="451" y="1349"/>
      <point x="499" y="1309"/>
      <point x="499" y="1233" type="curve" smooth="yes"/>
      <point x="499" y="1155"/>
      <point x="428" y="1114"/>
      <point x="328" y="1114" type="curve" smooth="yes"/>
      <point x="255" y="1114" type="line"/>
      <point x="255" y="996" type="line"/>
      <point x="330" y="997" type="line" smooth="yes"/>
      <point x="440" y="997"/>
      <point x="521" y="950"/>
      <point x="521" y="859" type="curve" smooth="yes"/>
      <point x="521" y="763"/>
      <point x="460" y="718"/>
      <point x="381" y="718" type="curve" smooth="yes"/>
      <point x="320" y="718"/>
      <point x="229" y="745"/>
      <point x="181" y="789" type="curve"/>
      <point x="132" y="686" type="line"/>
      <point x="194" y="626"/>
      <point x="306" y="601"/>
    </contour>
  </outline>
</glyph>
<glyph name="acute" format="1">
  <advance width="579"/>
  <unicode hex="00B4"/>
  <outline>
    <contour>
      <point x="104" y="1178" type="line"/>
      <point x="210" y="1178" type="line"/>
      <point x="505" y="1553" type="line"/>
      <point x="284" y="1553" type="line"/>
    </contour>
  </outline>
</glyph>
<glyph name="paragraph" format="1">
  <advance width="1056"/>
  <unicode hex="00B6"/>
  <outline>
    <contour>
      <point x="458" y="-97" type="line"/>
      <point x="581" y="-97" type="line"/>
      <point x="581" y="1385" type="line"/>
      <point x="769" y="1385" type="line"/>
      <point x="769" y="-97" type="line"/>
      <point x="892" y="-97" type="line"/>
      <point x="892" y="1385" type="line"/>
      <point x="966" y="1385" type="line"/>
      <point x="966" y="1506" type="line"/>
      <point x="507" y="1506" type="line" smooth="yes"/>
      <point x="193" y="1506"/>
      <point x="84" y="1345"/>
      <point x="84" y="1176" type="curve" smooth="yes"/>
      <point x="84" y="1003"/>
      <point x="190" y="845"/>
      <point x="458" y="845" type="curve"/>
    </contour>
  </outline>
</glyph>
<glyph name="periodcentered" format="1">
  <advance width="365"/>
  <unicode hex="00B7"/>
  <outline>
    <contour>
      <point x="98" y="547" type="line"/>
      <point x="98" y="707" type="line"/>
      <point x="262" y="707" type="line"/>
      <point x="262" y="547" type="line"/>
    </contour>
  </outline>
</glyph>
<glyph name="cedilla" format="1">
  <advance width="512"/>
  <unicode hex="00B8"/>
  <outline>
    <contour>
      <point x="98" y="-385" type="line"/>
      <point x="243" y="-385" type="line"/>
      <point x="284" y="2" type="line"/>
      <point x="191" y="2" type="line"/>
    </contour>
  </outline>
</glyph>
<glyph name="uni00B9" format="1">
  <advance width="741"/>
  <unicode hex="00B9"/>
  <outline>
    <contour>
      <point x="163" y="645" type="line"/>
      <point x="655" y="645" type="line"/>
      <point x="655" y="773" type="line"/>
      <point x="494" y="773" type="line"/>
      <point x="494" y="1463" type="line"/>
      <point x="362" y="1463" type="line"/>
      <point x="339" y="1440"/>
      <point x="185" y="1368"/>
      <point x="156" y="1361" type="curve"/>
      <point x="156" y="1223" type="line"/>
      <point x="189" y="1230"/>
      <point x="295" y="1273"/>
      <point x="332" y="1295" type="curve"/>
      <point x="332" y="773" type="line"/>
      <point x="163" y="773" type="line"/>
    </contour>
  </outline>
</glyph>
<glyph name="ordmasculine" format="1">
  <advance width="818"/>
  <unicode hex="00BA"/>
  <outline>
    <contour>
      <point x="176" y="1175" type="curve" smooth="yes"/>
      <point x="176" y="1338"/>
      <point x="255" y="1478"/>
      <point x="409" y="1478" type="curve" smooth="yes"/>
      <point x="568" y="1478"/>
      <point x="650" y="1336"/>
      <point x="650" y="1172" type="curve" smooth="yes"/>
      <point x="650" y="1013"/>
      <point x="572" y="874"/>
      <point x="409" y="874" type="curve" smooth="yes"/>
      <point x="254" y="874"/>
      <point x="176" y="1015"/>
    </contour>
    <contour>
      <point x="741" y="1174" type="curve" smooth="yes"/>
      <point x="741" y="1393"/>
      <point x="623" y="1549"/>
      <point x="409" y="1549" type="curve" smooth="yes"/>
      <point x="201" y="1549"/>
      <point x="77" y="1390"/>
      <point x="77" y="1174" type="curve" smooth="yes"/>
      <point x="77" y="962"/>
      <point x="201" y="804"/>
      <point x="409" y="804" type="curve" smooth="yes"/>
      <point x="605" y="804"/>
      <point x="741" y="965"/>
    </contour>
  </outline>
</glyph>
<glyph name="guillemotright" format="1">
  <advance width="964"/>
  <unicode hex="00BB"/>
  <outline>
    <contour>
      <point x="599" y="938" type="line"/>
      <point x="470" y="904" type="line"/>
      <point x="726" y="540" type="line"/>
      <point x="464" y="180" type="line"/>
      <point x="596" y="145" type="line"/>
      <point x="887" y="543" type="line"/>
    </contour>
    <contour>
      <point x="243" y="938" type="line"/>
      <point x="112" y="904" type="line"/>
      <point x="370" y="540" type="line"/>
      <point x="107" y="180" type="line"/>
      <point x="241" y="145" type="line"/>
      <point x="530" y="543" type="line"/>
    </contour>
  </outline>
</glyph>
<glyph name="onequarter" format="1">
  <advance width="1563"/>
  <unicode hex="00BC"/>
  <outline>
    <contour>
      <point x="73" y="608" type="line"/>
      <point x="509" y="608" type="line"/>
      <point x="509" y="724" type="line"/>
      <point x="371" y="724" type="line"/>
      <point x="371" y="1469" type="line"/>
      <point x="255" y="1470" type="line"/>
      <point x="232" y="1447"/>
      <point x="94" y="1378"/>
      <point x="63" y="1367" type="curve"/>
      <point x="63" y="1249" type="line"/>
      <point x="92" y="1259"/>
      <point x="188" y="1299"/>
      <point x="225" y="1321" type="curve"/>
      <point x="225" y="724" type="line"/>
      <point x="73" y="724" type="line"/>
    </contour>
    <contour>
      <point x="1300" y="4" type="line"/>
      <point x="1429" y="4" type="line"/>
      <point x="1430" y="185" type="line"/>
      <point x="1551" y="185" type="line"/>
      <point x="1543" y="295" type="line"/>
      <point x="1431" y="295" type="line"/>
      <point x="1431" y="838" type="line"/>
      <point x="1290" y="838" type="line"/>
      <point x="922" y="285" type="line"/>
      <point x="922" y="185" type="line"/>
      <point x="1300" y="185" type="line"/>
    </contour>
    <contour>
      <point x="309" y="0" type="line"/>
      <point x="453" y="0" type="line"/>
      <point x="1366" y="1470" type="line"/>
      <point x="1225" y="1470" type="line"/>
    </contour>
    <contour>
      <point x="1080" y="295" type="line"/>
      <point x="1299" y="644" type="line"/>
      <point x="1299" y="295" type="line"/>
    </contour>
  </outline>
</glyph>
<glyph name="onehalf" format="1">
  <advance width="1612"/>
  <unicode hex="00BD"/>
  <outline>
    <contour>
      <point x="107" y="612" type="line"/>
      <point x="500" y="612" type="line"/>
      <point x="500" y="727" type="line"/>
      <point x="375" y="727" type="line"/>
      <point x="375" y="1469" type="line"/>
      <point x="250" y="1470" type="line"/>
      <point x="227" y="1447"/>
      <point x="128" y="1385"/>
      <point x="92" y="1367" type="curve"/>
      <point x="92" y="1243" type="line"/>
      <point x="118" y="1256"/>
      <point x="193" y="1298"/>
      <point x="229" y="1321" type="curve"/>
      <point x="229" y="727" type="line"/>
      <point x="107" y="727" type="line"/>
    </contour>
    <contour>
      <point x="1009" y="-11" type="line"/>
      <point x="1533" y="-11" type="line"/>
      <point x="1540" y="105" type="line"/>
      <point x="1199" y="105" type="line"/>
      <point x="1394" y="278"/>
      <point x="1547" y="398"/>
      <point x="1547" y="584" type="curve" smooth="yes"/>
      <point x="1547" y="748"/>
      <point x="1412" y="837"/>
      <point x="1273" y="837" type="curve" smooth="yes"/>
      <point x="1157" y="837"/>
      <point x="1043" y="781"/>
      <point x="989" y="689" type="curve"/>
      <point x="1062" y="605" type="line"/>
      <point x="1118" y="680"/>
      <point x="1196" y="713"/>
      <point x="1272" y="713" type="curve" smooth="yes"/>
      <point x="1342" y="713"/>
      <point x="1408" y="668"/>
      <point x="1408" y="576" type="curve" smooth="yes"/>
      <point x="1408" y="452"/>
      <point x="1154" y="246"/>
      <point x="1010" y="101" type="curve"/>
    </contour>
    <contour>
      <point x="281" y="8" type="line"/>
      <point x="426" y="8" type="line"/>
      <point x="1341" y="1470" type="line"/>
      <point x="1197" y="1470" type="line"/>
    </contour>
  </outline>
</glyph>
<glyph name="threequarters" format="1">
  <advance width="1576"/>
  <unicode hex="00BE"/>
  <outline>
    <contour>
      <point x="332" y="612" type="curve" smooth="yes"/>
      <point x="478" y="612"/>
      <point x="598" y="705"/>
      <point x="598" y="864" type="curve" smooth="yes"/>
      <point x="598" y="959"/>
      <point x="541" y="1035"/>
      <point x="442" y="1067" type="curve"/>
      <point x="546" y="1095"/>
      <point x="579" y="1182"/>
      <point x="579" y="1238" type="curve" smooth="yes"/>
      <point x="579" y="1391"/>
      <point x="455" y="1466"/>
      <point x="329" y="1466" type="curve" smooth="yes"/>
      <point x="241" y="1466"/>
      <point x="128" y="1432"/>
      <point x="70" y="1372" type="curve"/>
      <point x="126" y="1281" type="line"/>
      <point x="166" y="1319"/>
      <point x="256" y="1348"/>
      <point x="323" y="1348" type="curve" smooth="yes"/>
      <point x="393" y="1348"/>
      <point x="441" y="1310"/>
      <point x="441" y="1235" type="curve" smooth="yes"/>
      <point x="441" y="1158"/>
      <point x="370" y="1118"/>
      <point x="270" y="1118" type="curve" smooth="yes"/>
      <point x="197" y="1118" type="line"/>
      <point x="197" y="1000" type="line"/>
      <point x="272" y="1000" type="line" smooth="yes"/>
      <point x="381" y="1000"/>
      <point x="460" y="957"/>
      <point x="460" y="868" type="curve" smooth="yes"/>
      <point x="460" y="774"/>
      <point x="400" y="730"/>
      <point x="321" y="730" type="curve" smooth="yes"/>
      <point x="260" y="730"/>
      <point x="172" y="755"/>
      <point x="124" y="798" type="curve"/>
      <point x="73" y="697" type="line"/>
      <point x="135" y="637"/>
      <point x="249" y="612"/>
    </contour>
    <contour>
      <point x="1279" y="9" type="line"/>
      <point x="1409" y="9" type="line"/>
      <point x="1409" y="193" type="line"/>
      <point x="1530" y="193" type="line"/>
      <point x="1523" y="302" type="line"/>
      <point x="1411" y="302" type="line"/>
      <point x="1411" y="847" type="line"/>
      <point x="1269" y="847" type="line"/>
      <point x="902" y="290" type="line"/>
      <point x="902" y="193" type="line"/>
      <point x="1279" y="193" type="line"/>
    </contour>
    <contour>
      <point x="323" y="8" type="line"/>
      <point x="468" y="8" type="line"/>
      <point x="1380" y="1470" type="line"/>
      <point x="1238" y="1470" type="line"/>
    </contour>
    <contour>
      <point x="1059" y="302" type="line"/>
      <point x="1278" y="650" type="line"/>
      <point x="1278" y="302" type="line"/>
    </contour>
  </outline>
</glyph>
<glyph name="AE" format="1">
  <advance width="1920"/>
  <unicode hex="00C6"/>
  <outline>
    <contour>
      <point x="1165" y="0" type="line"/>
      <point x="1843" y="0" type="line"/>
      <point x="1826" y="148" type="line"/>
      <point x="1231" y="148" type="line"/>
      <point x="1300" y="90" type="line"/>
      <point x="1172" y="724" type="line"/>
      <point x="1125" y="669" type="line"/>
      <point x="1741" y="669" type="line"/>
      <point x="1722" y="815" type="line"/>
      <point x="1097" y="815" type="line"/>
      <point x="1166" y="759" type="line"/>
      <point x="1049" y="1346" type="line"/>
      <point x="1003" y="1291" type="line"/>
      <point x="1754" y="1291" type="line"/>
      <point x="1742" y="1437" type="line"/>
      <point x="937" y="1437" type="line"/>
    </contour>
    <component base="A" xScale="1.00005" xyScale="4.15409e-06" yxScale="0.165188" yScale="0.99995" xOffset="-3"/>
  </outline>
</glyph>
<glyph name="Eth" format="1">
  <advance width="1485"/>
  <unicode hex="00D0"/>
  <outline>
    <contour>
      <point x="651" y="797" type="line"/>
      <point x="47" y="797" type="line"/>
      <point x="47" y="673" type="line"/>
      <point x="651" y="673" type="line"/>
    </contour>
    <component base="D" xOffset="-8"/>
  </outline>
</glyph>
<glyph name="multiply" format="1">
  <advance width="904"/>
  <unicode hex="00D7"/>
  <outline>
    <contour>
      <point x="724" y="193" type="line"/>
      <point x="813" y="288" type="line"/>
      <point x="813" y="288"/>
      <point x="573" y="545"/>
      <point x="546" y="572" type="curve"/>
      <point x="811" y="849" type="line"/>
      <point x="716" y="944" type="line"/>
      <point x="454" y="668" type="line"/>
      <point x="190" y="947" type="line"/>
      <point x="99" y="852" type="line"/>
      <point x="362" y="572" type="line"/>
      <point x="91" y="286" type="line"/>
      <point x="182" y="192" type="line"/>
      <point x="454" y="476" type="line"/>
    </contour>
  </outline>
</glyph>
<glyph name="Oslash" format="1">
  <advance width="1583"/>
  <unicode hex="00D8"/>
  <outline>
    <contour>
      <point x="503" y="-229" type="line"/>
      <point x="1226" y="1619" type="line"/>
      <point x="1119" y="1659" type="line"/>
      <point x="402" y="-194" type="line"/>
    </contour>
    <component base="O" xOffset="-16"/>
  </outline>
</glyph>
<glyph name="germandbls" format="1">
  <advance width="1143"/>
  <unicode hex="00DF"/>
  <outline>
    <contour>
      <point x="325" y="0" type="line"/>
      <point x="147" y="0" type="line"/>
      <point x="147" y="1007" type="line" smooth="yes"/>
      <point x="147" y="1293"/>
      <point x="274" y="1466"/>
      <point x="570" y="1466" type="curve" smooth="yes"/>
      <point x="794" y="1466"/>
      <point x="946" y="1346"/>
      <point x="946" y="1155" type="curve" smooth="yes"/>
      <point x="946" y="941"/>
      <point x="742" y="842"/>
      <point x="742" y="754" type="curve" smooth="yes"/>
      <point x="742" y="641"/>
      <point x="1115" y="581"/>
      <point x="1115" y="289" type="curve" smooth="yes"/>
      <point x="1115" y="99"/>
      <point x="991" y="-20"/>
      <point x="788" y="-20" type="curve" smooth="yes"/>
      <point x="666" y="-20"/>
      <point x="544" y="15"/>
      <point x="460" y="55" type="curve"/>
      <point x="507" y="186" type="line"/>
      <point x="561" y="158"/>
      <point x="658" y="121"/>
      <point x="764" y="121" type="curve" smooth="yes"/>
      <point x="885" y="121"/>
      <point x="940" y="196"/>
      <point x="940" y="287" type="curve" smooth="yes"/>
      <point x="940" y="492"/>
      <point x="575" y="546"/>
      <point x="575" y="737" type="curve" smooth="yes"/>
      <point x="575" y="900"/>
      <point x="777" y="957"/>
      <point x="778" y="1153" type="curve" smooth="yes"/>
      <point x="779" y="1257"/>
      <point x="709" y="1332"/>
      <point x="576" y="1332" type="curve" smooth="yes"/>
      <point x="393" y="1332"/>
      <point x="325" y="1237"/>
      <point x="325" y="1010" type="curve" smooth="yes"/>
    </contour>
  </outline>
</glyph>
<glyph name="ae" format="1">
  <advance width="1685"/>
  <unicode hex="00E6"/>
  <outline>
    <contour>
      <point x="416" y="-16" type="curve" smooth="yes"/>
      <point x="589" y="-16"/>
      <point x="778" y="61"/>
      <point x="865" y="157" type="curve"/>
      <point x="942" y="45"/>
      <point x="1058" y="-19"/>
      <point x="1228" y="-19" type="curve" smooth="yes"/>
      <point x="1389" y="-19"/>
      <point x="1492" y="18"/>
      <point x="1587" y="80" type="curve"/>
      <point x="1535" y="195" type="line"/>
      <point x="1437" y="142"/>
      <point x="1355" y="115"/>
      <point x="1245" y="115" type="curve" smooth="yes"/>
      <point x="1053" y="116"/>
      <point x="930" y="222"/>
      <point x="920" y="488" type="curve"/>
      <point x="1463" y="488"/>
      <point x="1607" y="584"/>
      <point x="1607" y="778" type="curve" smooth="yes"/>
      <point x="1607" y="930"/>
      <point x="1497" y="1085"/>
      <point x="1231" y="1085" type="curve" smooth="yes"/>
      <point x="1074" y="1085"/>
      <point x="913" y="1000"/>
      <point x="864" y="855" type="curve"/>
      <point x="840" y="1018"/>
      <point x="709" y="1085"/>
      <point x="533" y="1085" type="curve" smooth="yes"/>
      <point x="395" y="1085"/>
      <point x="231" y="1044"/>
      <point x="141" y="993" type="curve"/>
      <point x="194" y="871" type="line"/>
      <point x="277" y="912"/>
      <point x="420" y="951"/>
      <point x="532" y="951" type="curve"/>
      <point x="694" y="949"/>
      <point x="752" y="868"/>
      <point x="752" y="722" type="curve" smooth="yes"/>
      <point x="752" y="609" type="line"/>
      <point x="597" y="609" type="line" smooth="yes"/>
      <point x="265" y="609"/>
      <point x="93" y="524"/>
      <point x="93" y="302" type="curve" smooth="yes"/>
      <point x="93" y="92"/>
      <point x="233" y="-16"/>
    </contour>
    <contour>
      <point x="440" y="115" type="curve" smooth="yes"/>
      <point x="331" y="115"/>
      <point x="260" y="173"/>
      <point x="260" y="303" type="curve" smooth="yes"/>
      <point x="260" y="427"/>
      <point x="335" y="490"/>
      <point x="603" y="490" type="curve" smooth="yes"/>
      <point x="754" y="490" type="line"/>
      <point x="756" y="414"/>
      <point x="773" y="322"/>
      <point x="797" y="265" type="curve"/>
      <point x="711" y="178"/>
      <point x="557" y="115"/>
    </contour>
    <contour>
      <point x="923" y="606" type="curve"/>
      <point x="945" y="839"/>
      <point x="1074" y="959"/>
      <point x="1243" y="959" type="curve" smooth="yes"/>
      <point x="1390" y="959"/>
      <point x="1466" y="880"/>
      <point x="1466" y="779" type="curve" smooth="yes"/>
      <point x="1466" y="649"/>
      <point x="1313" y="606"/>
    </contour>
  </outline>
</glyph>
<glyph name="eth" format="1">
  <advance width="1188"/>
  <unicode hex="00F0"/>
  <outline>
    <contour>
      <point x="596" y="-25" type="curve" smooth="yes"/>
      <point x="925" y="-25"/>
      <point x="1092" y="186"/>
      <point x="1092" y="470" type="curve" smooth="yes"/>
      <point x="1092" y="605"/>
      <point x="1058" y="741"/>
      <point x="1006" y="839" type="curve" smooth="yes"/>
      <point x="938" y="965"/>
      <point x="838" y="1091"/>
      <point x="659" y="1282" type="curve"/>
      <point x="903" y="1373" type="line"/>
      <point x="852" y="1491" type="line"/>
      <point x="568" y="1381" type="line"/>
      <point x="421" y="1524" type="line"/>
      <point x="219" y="1524" type="line"/>
      <point x="432" y="1325" type="line"/>
      <point x="216" y="1242" type="line"/>
      <point x="266" y="1125" type="line"/>
      <point x="518" y="1222" type="line"/>
      <point x="679" y="1066"/>
      <point x="779" y="938"/>
      <point x="830" y="847" type="curve"/>
      <point x="773" y="887"/>
      <point x="708" y="940"/>
      <point x="576" y="940" type="curve" smooth="yes"/>
      <point x="296" y="940"/>
      <point x="98" y="751"/>
      <point x="98" y="469" type="curve" smooth="yes"/>
      <point x="98" y="204"/>
      <point x="275" y="-25"/>
    </contour>
    <contour>
      <point x="602" y="111" type="curve" smooth="yes"/>
      <point x="379" y="111"/>
      <point x="270" y="284"/>
      <point x="270" y="469" type="curve" smooth="yes"/>
      <point x="270" y="666"/>
      <point x="389" y="811"/>
      <point x="596" y="811" type="curve" smooth="yes"/>
      <point x="813" y="811"/>
      <point x="932" y="652"/>
      <point x="932" y="476" type="curve" smooth="yes"/>
      <point x="932" y="256"/>
      <point x="819" y="111"/>
    </contour>
  </outline>
</glyph>
<glyph name="divide" format="1">
  <advance width="1125"/>
  <unicode hex="00F7"/>
  <outline>
    <contour>
      <point x="457" y="30" type="line"/>
      <point x="660" y="30" type="line"/>
      <point x="660" y="241" type="line"/>
      <point x="457" y="241" type="line"/>
    </contour>
    <contour>
      <point x="76" y="491" type="line"/>
      <point x="1039" y="491" type="line"/>
      <point x="1039" y="635" type="line"/>
      <point x="76" y="635" type="line"/>
    </contour>
    <contour>
      <point x="457" y="866" type="line"/>
      <point x="663" y="866" type="line"/>
      <point x="663" y="1073" type="line"/>
      <point x="457" y="1073" type="line"/>
    </contour>
  </outline>
</glyph>
<glyph name="oslash" format="1">
  <advance width="1170"/>
  <unicode hex="00F8"/>
  <outline>
    <contour>
      <point x="279" y="-150" type="line"/>
      <point x="1003" y="1177" type="line"/>
      <point x="931" y="1215" type="line"/>
      <point x="214" y="-111" type="line"/>
    </contour>
    <component base="o" xOffset="-13"/>
  </outline>
</glyph>
<glyph name="thorn" format="1">
  <advance width="1205"/>
  <unicode hex="00FE"/>
  <outline>
    <contour>
      <point x="657" y="-19" type="curve" smooth="yes"/>
      <point x="948" y="-19"/>
      <point x="1110" y="201"/>
      <point x="1110" y="530" type="curve" smooth="yes"/>
      <point x="1110" y="858"/>
      <point x="959" y="1082"/>
      <point x="664" y="1082" type="curve" smooth="yes"/>
      <point x="494" y="1082"/>
      <point x="358" y="978"/>
      <point x="294" y="848" type="curve"/>
      <point x="326" y="841" type="line"/>
      <point x="328" y="1086" type="line"/>
      <point x="328" y="1468" type="line"/>
      <point x="146" y="1455" type="line"/>
      <point x="146" y="-462" type="line"/>
      <point x="325" y="-450" type="line"/>
      <point x="325" y="260" type="line"/>
      <point x="271" y="251" type="line"/>
      <point x="320" y="134"/>
      <point x="452" y="-19"/>
    </contour>
    <contour>
      <point x="633" y="119" type="curve" smooth="yes"/>
      <point x="444" y="119"/>
      <point x="324" y="259"/>
      <point x="324" y="546" type="curve" smooth="yes"/>
      <point x="324" y="792"/>
      <point x="428" y="944"/>
      <point x="641" y="944" type="curve" smooth="yes"/>
      <point x="844" y="944"/>
      <point x="929" y="781"/>
      <point x="929" y="530" type="curve" smooth="yes"/>
      <point x="929" y="272"/>
      <point x="834" y="119"/>
    </contour>
  </outline>
</glyph>
<glyph name="Dcroat" format="1">
  <advance width="1482"/>
  <unicode hex="0110"/>
  <outline>
    <contour>
      <point x="52" y="693" type="line"/>
      <point x="569" y="693" type="line"/>
      <point x="569" y="783" type="line"/>
      <point x="52" y="783" type="line"/>
    </contour>
    <component base="D" xOffset="-9"/>
  </outline>
</glyph>
<glyph name="dcroat" format="1">
  <advance width="1231"/>
  <unicode hex="0111"/>
  <outline>
    <contour>
      <point x="123" y="1196" type="line"/>
      <point x="123" y="1305" type="line"/>
      <point x="618" y="1305" type="line"/>
      <point x="618" y="1196" type="line"/>
    </contour>
    <component base="d" xOffset="-14"/>
  </outline>
</glyph>
<glyph name="Hbar" format="1">
  <advance width="1499"/>
  <unicode hex="0126"/>
  <outline>
    <contour>
      <point x="196" y="0" type="line"/>
      <point x="196" y="1108" type="line"/>
      <point x="108" y="1108" type="line"/>
      <point x="108" y="1209" type="line"/>
      <point x="196" y="1209" type="line"/>
      <point x="196" y="1445" type="line"/>
      <point x="360" y="1445" type="line"/>
      <point x="360" y="1209" type="line"/>
      <point x="1159" y="1209" type="line"/>
      <point x="1159" y="1445" type="line"/>
      <point x="1324" y="1445" type="line"/>
      <point x="1324" y="1209" type="line"/>
      <point x="1412" y="1209" type="line"/>
      <point x="1412" y="1108" type="line"/>
      <point x="1324" y="1108" type="line"/>
      <point x="1324" y="0" type="line"/>
      <point x="1159" y="0" type="line"/>
      <point x="1159" y="672" type="line"/>
      <point x="360" y="672" type="line"/>
      <point x="360" y="0" type="line"/>
    </contour>
    <contour>
      <point x="360" y="819" type="line"/>
      <point x="1159" y="819" type="line"/>
      <point x="1159" y="1108" type="line"/>
      <point x="360" y="1108" type="line"/>
    </contour>
  </outline>
</glyph>
<glyph name="hbar" format="1">
  <advance width="1150"/>
  <unicode hex="0127"/>
  <outline>
    <contour>
      <point x="197" y="0" type="line"/>
      <point x="354" y="0" type="line"/>
      <point x="354" y="723" type="line"/>
      <point x="379" y="823"/>
      <point x="513" y="948"/>
      <point x="681" y="948" type="curve" smooth="yes"/>
      <point x="864" y="948"/>
      <point x="897" y="835"/>
      <point x="897" y="595" type="curve" smooth="yes"/>
      <point x="897" y="0" type="line"/>
      <point x="1054" y="0" type="line"/>
      <point x="1054" y="642" type="line" smooth="yes"/>
      <point x="1054" y="920"/>
      <point x="957" y="1087"/>
      <point x="735" y="1087" type="curve" smooth="yes"/>
      <point x="572" y="1087"/>
      <point x="444" y="1025"/>
      <point x="354" y="917" type="curve"/>
      <point x="354" y="1228" type="line"/>
      <point x="619" y="1228" type="line"/>
      <point x="619" y="1339" type="line"/>
      <point x="354" y="1339" type="line"/>
      <point x="354" y="1459" type="line"/>
      <point x="197" y="1439" type="line"/>
      <point x="197" y="1339" type="line"/>
      <point x="107" y="1339" type="line"/>
      <point x="107" y="1228" type="line"/>
      <point x="197" y="1228" type="line"/>
    </contour>
  </outline>
</glyph>
<glyph name="dotlessi" format="1">
  <advance width="401"/>
  <unicode hex="0131"/>
  <outline>
    <contour>
      <point x="130" y="0" type="line"/>
      <point x="292" y="0" type="line"/>
      <point x="292" y="1060" type="line"/>
      <point x="130" y="1060" type="line"/>
    </contour>
  </outline>
</glyph>
<glyph name="lslash" format="1">
  <advance width="666"/>
  <unicode hex="0142"/>
  <outline>
    <contour>
      <point x="0" y="683" type="line"/>
      <point x="557" y="973" type="line"/>
      <point x="557" y="1063" type="line"/>
      <point x="0" y="773" type="line"/>
    </contour>
    <component base="l"/>
  </outline>
</glyph>
<glyph name="Eng" format="1">
  <advance width="1311"/>
  <unicode hex="014A"/>
  <outline>
    <contour>
      <point x="797" y="-316" type="curve" smooth="yes"/>
      <point x="769" y="-316"/>
      <point x="721" y="-315"/>
      <point x="598" y="-303" type="curve"/>
      <point x="576" y="-161" type="line"/>
      <point x="713" y="-169"/>
      <point x="730" y="-169"/>
      <point x="751" y="-169" type="curve" smooth="yes"/>
      <point x="1025" y="-169"/>
      <point x="1047" y="-97"/>
      <point x="1047" y="166" type="curve" smooth="yes"/>
      <point x="1047" y="969" type="line" smooth="yes"/>
      <point x="1047" y="1226"/>
      <point x="974" y="1313"/>
      <point x="762" y="1313" type="curve" smooth="yes"/>
      <point x="546" y="1313"/>
      <point x="382" y="1190"/>
      <point x="290" y="1052" type="curve"/>
      <point x="290" y="0" type="line"/>
      <point x="129" y="0" type="line"/>
      <point x="126" y="1446" type="line"/>
      <point x="274" y="1446" type="line"/>
      <point x="291" y="1240" type="line"/>
      <point x="471" y="1429"/>
      <point x="644" y="1469"/>
      <point x="813" y="1469" type="curve" smooth="yes"/>
      <point x="1073" y="1469"/>
      <point x="1207" y="1295"/>
      <point x="1207" y="975" type="curve" smooth="yes"/>
      <point x="1207" y="160" type="line" smooth="yes"/>
      <point x="1207" y="-138"/>
      <point x="1145" y="-316"/>
    </contour>
  </outline>
</glyph>
<glyph name="eng" format="1">
  <advance width="1106"/>
  <unicode hex="014B"/>
  <outline>
    <contour>
      <point x="604" y="-292" type="line"/>
      <point x="672" y="-292" type="line" smooth="yes"/>
      <point x="956" y="-292"/>
      <point x="999" y="-142"/>
      <point x="999" y="153" type="curve" smooth="yes"/>
      <point x="999" y="650" type="line" smooth="yes"/>
      <point x="999" y="935"/>
      <point x="894" y="1082"/>
      <point x="650" y="1082" type="curve" smooth="yes"/>
      <point x="498" y="1082"/>
      <point x="388" y="1023"/>
      <point x="312" y="908" type="curve"/>
      <point x="292" y="1060" type="line"/>
      <point x="138" y="1060" type="line"/>
      <point x="138" y="0" type="line"/>
      <point x="319" y="0" type="line"/>
      <point x="319" y="580" type="line" smooth="yes"/>
      <point x="319" y="634"/>
      <point x="322" y="683"/>
      <point x="328" y="729" type="curve"/>
      <point x="360" y="852"/>
      <point x="440" y="944"/>
      <point x="616" y="944" type="curve" smooth="yes"/>
      <point x="780" y="944"/>
      <point x="818" y="837"/>
      <point x="818" y="662" type="curve" smooth="yes"/>
      <point x="818" y="101" type="line" smooth="yes"/>
      <point x="818" y="-106"/>
      <point x="801" y="-135"/>
      <point x="633" y="-135" type="curve" smooth="yes"/>
      <point x="594" y="-135" type="line"/>
    </contour>
  </outline>
</glyph>
<glyph name="OE" format="1">
  <advance width="1944"/>
  <unicode hex="0152"/>
  <outline>
    <contour>
      <point x="974" y="0" type="line"/>
      <point x="1856" y="0" type="line"/>
      <point x="1868" y="147" type="line"/>
      <point x="1110" y="147" type="line"/>
      <point x="1168" y="89" type="line"/>
      <point x="1168" y="728" type="line"/>
      <point x="1110" y="673" type="line"/>
      <point x="1800" y="673" type="line"/>
      <point x="1800" y="818" type="line"/>
      <point x="1110" y="818" type="line"/>
      <point x="1168" y="762" type="line"/>
      <point x="1168" y="1347" type="line"/>
      <point x="1111" y="1293" type="line"/>
      <point x="1857" y="1293" type="line"/>
      <point x="1864" y="1437" type="line"/>
      <point x="974" y="1437" type="line"/>
    </contour>
    <contour>
      <point x="1046" y="1422" type="line"/>
      <point x="975" y="1445"/>
      <point x="896" y="1456"/>
      <point x="810" y="1456" type="curve" smooth="yes"/>
      <point x="376" y="1456"/>
      <point x="116" y="1164"/>
      <point x="116" y="711" type="curve" smooth="yes"/>
      <point x="116" y="268"/>
      <point x="367" y="-19"/>
      <point x="809" y="-19" type="curve" smooth="yes"/>
      <point x="904" y="-19"/>
      <point x="990" y="-5"/>
      <point x="1067" y="21" type="curve"/>
      <point x="1067" y="197" type="line"/>
      <point x="997" y="156"/>
      <point x="911" y="134"/>
      <point x="808" y="134" type="curve" smooth="yes"/>
      <point x="474" y="134"/>
      <point x="311" y="373"/>
      <point x="311" y="711" type="curve" smooth="yes"/>
      <point x="311" y="1063"/>
      <point x="483" y="1302"/>
      <point x="809" y="1302" type="curve" smooth="yes"/>
      <point x="901" y="1302"/>
      <point x="980" y="1283"/>
      <point x="1046" y="1248" type="curve"/>
    </contour>
  </outline>
</glyph>
<glyph name="tbar" format="1">
  <advance width="837"/>
  <unicode hex="0167"/>
  <outline>
    <contour>
      <point x="548" y="-19" type="curve" smooth="yes"/>
      <point x="288" y="-19"/>
      <point x="268" y="108"/>
      <point x="268" y="433" type="curve" smooth="yes"/>
      <point x="268" y="622" type="line"/>
      <point x="117" y="622" type="line"/>
      <point x="117" y="744" type="line"/>
      <point x="268" y="744" type="line"/>
      <point x="268" y="954" type="line"/>
      <point x="105" y="954" type="line"/>
      <point x="118" y="1069" type="line"/>
      <point x="268" y="1069" type="line"/>
      <point x="310" y="1311" type="line"/>
      <point x="431" y="1319" type="line"/>
      <point x="431" y="1069" type="line"/>
      <point x="714" y="1069" type="line"/>
      <point x="714" y="954" type="line"/>
      <point x="431" y="954" type="line"/>
      <point x="431" y="744" type="line"/>
      <point x="635" y="744" type="line"/>
      <point x="635" y="622" type="line"/>
      <point x="431" y="622" type="line"/>
      <point x="431" y="357" type="line" smooth="yes"/>
      <point x="431" y="157"/>
      <point x="454" y="114"/>
      <point x="585" y="114" type="curve" smooth="yes"/>
      <point x="603" y="114"/>
      <point x="643" y="120"/>
      <point x="718" y="125" type="curve"/>
      <point x="733" y="-6" type="line"/>
      <point x="611" y="-17"/>
      <point x="581" y="-19"/>
    </contour>
  </outline>
</glyph>
<glyph name="uni0237" format="1">
  <advance width="461"/>
  <unicode hex="0237"/>
  <outline>
    <contour>
      <point x="-32" y="-447" type="line"/>
      <point x="26" y="-447" type="line" smooth="yes"/>
      <point x="292" y="-447"/>
      <point x="346" y="-355"/>
      <point x="346" y="-97" type="curve" smooth="yes"/>
      <point x="346" y="1072" type="line"/>
      <point x="154" y="1072" type="line"/>
      <point x="154" y="-83" type="line" smooth="yes"/>
      <point x="154" y="-245"/>
      <point x="173" y="-299"/>
      <point x="-4" y="-299" type="curve" smooth="yes"/>
      <point x="-64" y="-299" type="line"/>
    </contour>
  </outline>
</glyph>
<glyph name="uni02BC" format="1">
  <advance width="452"/>
  <unicode hex="02BC"/>
  <outline>
    <contour>
      <point x="113" y="1066" type="line"/>
      <point x="222" y="1066" type="line"/>
      <point x="357" y="1521" type="line"/>
      <point x="208" y="1521" type="line"/>
    </contour>
  </outline>
</glyph>
<glyph name="circumflex" format="1">
  <advance width="733"/>
  <unicode hex="02C6"/>
  <outline>
    <contour>
      <point x="78" y="1209" type="line"/>
      <point x="201" y="1209" type="line"/>
      <point x="357" y="1473" type="line"/>
      <point x="513" y="1209" type="line"/>
      <point x="637" y="1209" type="line"/>
      <point x="457" y="1584" type="line"/>
      <point x="267" y="1584" type="line"/>
    </contour>
  </outline>
</glyph>
<glyph name="caron" format="1">
  <advance width="733"/>
  <unicode hex="02C7"/>
  <outline>
    <contour>
      <point x="259" y="1222" type="line"/>
      <point x="446" y="1222" type="line"/>
      <point x="641" y="1584" type="line"/>
      <point x="509" y="1584" type="line"/>
      <point x="349" y="1329" type="line"/>
      <point x="205" y="1584" type="line"/>
      <point x="74" y="1584" type="line"/>
    </contour>
  </outline>
</glyph>
<glyph name="breve" format="1">
  <advance width="686"/>
  <unicode hex="02D8"/>
  <outline>
    <contour>
      <point x="340" y="1258" type="curve" smooth="yes"/>
      <point x="470" y="1258"/>
      <point x="582" y="1327"/>
      <point x="582" y="1494" type="curve"/>
      <point x="470" y="1494" type="line"/>
      <point x="470" y="1402"/>
      <point x="410" y="1366"/>
      <point x="340" y="1366" type="curve" smooth="yes"/>
      <point x="270" y="1366"/>
      <point x="215" y="1402"/>
      <point x="215" y="1494" type="curve"/>
      <point x="102" y="1494" type="line"/>
      <point x="102" y="1327"/>
      <point x="211" y="1258"/>
    </contour>
  </outline>
</glyph>
<glyph name="dotaccent" format="1">
  <advance width="350"/>
  <unicode hex="02D9"/>
  <outline>
    <contour>
      <point x="97" y="1259" type="line"/>
      <point x="257" y="1259" type="line"/>
      <point x="257" y="1437" type="line"/>
      <point x="97" y="1437" type="line"/>
    </contour>
  </outline>
</glyph>
<glyph name="ring" format="1">
  <advance width="568"/>
  <unicode hex="02DA"/>
  <outline>
    <contour>
      <point x="284" y="1288" type="curve" smooth="yes"/>
      <point x="227" y="1288"/>
      <point x="189" y="1333"/>
      <point x="189" y="1388" type="curve" smooth="yes"/>
      <point x="189" y="1441"/>
      <point x="229" y="1487"/>
      <point x="284" y="1487" type="curve" smooth="yes"/>
      <point x="340" y="1487"/>
      <point x="380" y="1441"/>
      <point x="380" y="1388" type="curve" smooth="yes"/>
      <point x="380" y="1333"/>
      <point x="340" y="1288"/>
    </contour>
    <contour>
      <point x="284" y="1208" type="curve" smooth="yes"/>
      <point x="394" y="1208"/>
      <point x="472" y="1289"/>
      <point x="472" y="1389" type="curve" smooth="yes"/>
      <point x="472" y="1488"/>
      <point x="396" y="1569"/>
      <point x="284" y="1569" type="curve" smooth="yes"/>
      <point x="173" y="1569"/>
      <point x="96" y="1489"/>
      <point x="96" y="1389" type="curve" smooth="yes"/>
      <point x="96" y="1289"/>
      <point x="174" y="1208"/>
    </contour>
  </outline>
</glyph>
<glyph name="ogonek" format="1">
  <advance width="530"/>
  <unicode hex="02DB"/>
  <outline>
    <contour>
      <point x="438" y="-386" type="curve"/>
      <point x="435" y="-278" type="line"/>
      <point x="417" y="-286"/>
      <point x="368" y="-303"/>
      <point x="324" y="-303" type="curve" smooth="yes"/>
      <point x="280" y="-303"/>
      <point x="243" y="-278"/>
      <point x="243" y="-225" type="curve" smooth="yes"/>
      <point x="243" y="-152"/>
      <point x="322" y="-45"/>
      <point x="384" y="0" type="curve"/>
      <point x="300" y="0" type="line"/>
      <point x="200" y="-41"/>
      <point x="97" y="-152"/>
      <point x="97" y="-266" type="curve" smooth="yes"/>
      <point x="97" y="-358"/>
      <point x="165" y="-416"/>
      <point x="288" y="-416" type="curve" smooth="yes"/>
      <point x="339" y="-416"/>
      <point x="402" y="-402"/>
    </contour>
  </outline>
</glyph>
<glyph name="tilde" format="1">
  <advance width="813"/>
  <unicode hex="02DC"/>
  <outline>
    <contour>
      <point x="191" y="1245" type="line"/>
      <point x="200" y="1314"/>
      <point x="224" y="1342"/>
      <point x="259" y="1342" type="curve" smooth="yes"/>
      <point x="330" y="1342"/>
      <point x="446" y="1245"/>
      <point x="551" y="1245" type="curve" smooth="yes"/>
      <point x="641" y="1245"/>
      <point x="698" y="1319"/>
      <point x="698" y="1452" type="curve"/>
      <point x="605" y="1452" type="line"/>
      <point x="596" y="1388"/>
      <point x="575" y="1367"/>
      <point x="545" y="1367" type="curve" smooth="yes"/>
      <point x="484" y="1367"/>
      <point x="383" y="1452"/>
      <point x="264" y="1452" type="curve" smooth="yes"/>
      <point x="161" y="1452"/>
      <point x="100" y="1380"/>
      <point x="100" y="1245" type="curve"/>
    </contour>
  </outline>
</glyph>
<glyph name="hungarumlaut" format="1">
  <advance width="741"/>
  <unicode hex="02DD"/>
  <outline>
    <contour>
      <point x="100" y="1217" type="line"/>
      <point x="194" y="1217" type="line"/>
      <point x="431" y="1541" type="line"/>
      <point x="263" y="1541" type="line"/>
    </contour>
    <contour>
      <point x="343" y="1217" type="line"/>
      <point x="438" y="1217" type="line"/>
      <point x="710" y="1541" type="line"/>
      <point x="534" y="1541" type="line"/>
    </contour>
  </outline>
</glyph>
<glyph name="gravecomb" format="1">
  <advance width="383"/>
  <unicode hex="0300"/>
  <outline>
    <contour>
      <point x="278" y="1209" type="line"/>
      <point x="383" y="1209" type="line"/>
      <point x="205" y="1584" type="line"/>
      <point x="0" y="1584" type="line"/>
    </contour>
  </outline>
</glyph>
<glyph name="acutecomb" format="1">
  <advance width="401"/>
  <unicode hex="0301"/>
  <outline>
    <contour>
      <point x="0" y="1178" type="line"/>
      <point x="106" y="1178" type="line"/>
      <point x="401" y="1553" type="line"/>
      <point x="180" y="1553" type="line"/>
    </contour>
  </outline>
</glyph>
<glyph name="circumflexcomb" format="1">
  <advance width="559"/>
  <unicode hex="0302"/>
  <outline>
    <contour>
      <point x="0" y="1209" type="line"/>
      <point x="123" y="1209" type="line"/>
      <point x="279" y="1473" type="line"/>
      <point x="435" y="1209" type="line"/>
      <point x="559" y="1209" type="line"/>
      <point x="379" y="1584" type="line"/>
      <point x="189" y="1584" type="line"/>
    </contour>
  </outline>
</glyph>
<glyph name="tildecomb" format="1">
  <advance width="598"/>
  <unicode hex="0303"/>
  <outline>
    <contour>
      <point x="91" y="1245" type="line"/>
      <point x="100" y="1314"/>
      <point x="124" y="1342"/>
      <point x="159" y="1342" type="curve" smooth="yes"/>
      <point x="230" y="1342"/>
      <point x="346" y="1245"/>
      <point x="451" y="1245" type="curve" smooth="yes"/>
      <point x="541" y="1245"/>
      <point x="598" y="1319"/>
      <point x="598" y="1452" type="curve"/>
      <point x="505" y="1452" type="line"/>
      <point x="496" y="1388"/>
      <point x="475" y="1367"/>
      <point x="445" y="1367" type="curve" smooth="yes"/>
      <point x="384" y="1367"/>
      <point x="283" y="1452"/>
      <point x="164" y="1452" type="curve" smooth="yes"/>
      <point x="61" y="1452"/>
      <point x="0" y="1380"/>
      <point x="0" y="1245" type="curve"/>
    </contour>
  </outline>
</glyph>
<glyph name="uni0307" format="1">
  <advance width="327"/>
  <unicode hex="0307"/>
  <outline>
    <contour>
      <point x="87" y="1255" type="line"/>
      <point x="246" y="1255" type="line"/>
      <point x="246" y="1446" type="line"/>
      <point x="87" y="1446" type="line"/>
    </contour>
  </outline>
</glyph>
<glyph name="caroncomb" format="1">
  <advance width="567"/>
  <unicode hex="030C"/>
  <outline>
    <contour>
      <point x="185" y="1222" type="line"/>
      <point x="372" y="1222" type="line"/>
      <point x="567" y="1584" type="line"/>
      <point x="435" y="1584" type="line"/>
      <point x="275" y="1329" type="line"/>
      <point x="131" y="1584" type="line"/>
      <point x="0" y="1584" type="line"/>
    </contour>
  </outline>
</glyph>
<glyph name="uni030F" format="1">
  <advance width="664"/>
  <unicode hex="030F"/>
  <outline>
    <contour>
      <point x="567" y="1297" type="line"/>
      <point x="511" y="1297" type="line"/>
      <point x="336" y="1599" type="line"/>
      <point x="458" y="1599" type="line"/>
    </contour>
    <contour>
      <point x="378" y="1297" type="line"/>
      <point x="319" y="1297" type="line"/>
      <point x="93" y="1599" type="line"/>
      <point x="226" y="1599" type="line"/>
    </contour>
  </outline>
</glyph>
<glyph name="uni0311" format="1">
  <advance width="648"/>
  <unicode hex="0311"/>
  <outline>
    <contour>
      <point x="89" y="1256" type="curve"/>
      <point x="200" y="1256" type="line"/>
      <point x="200" y="1348"/>
      <point x="256" y="1391"/>
      <point x="327" y="1391" type="curve" smooth="yes"/>
      <point x="398" y="1391"/>
      <point x="455" y="1348"/>
      <point x="455" y="1256" type="curve"/>
      <point x="568" y="1256" type="line"/>
      <point x="568" y="1422"/>
      <point x="445" y="1492"/>
      <point x="326" y="1492" type="curve" smooth="yes"/>
      <point x="208" y="1492"/>
      <point x="89" y="1422"/>
    </contour>
  </outline>
</glyph>
<glyph name="uni031B" format="1">
  <advance width="454"/>
  <unicode hex="031B"/>
  <outline>
    <contour>
      <point x="205" y="496" type="line"/>
      <point x="215" y="471"/>
      <point x="222" y="438"/>
      <point x="222" y="404" type="curve" smooth="yes"/>
      <point x="222" y="335"/>
      <point x="196" y="250"/>
      <point x="91" y="250" type="curve" smooth="yes"/>
      <point x="86" y="250"/>
      <point x="77" y="250"/>
      <point x="71" y="251" type="curve"/>
      <point x="71" y="166" type="line"/>
      <point x="92" y="163"/>
      <point x="111" y="162"/>
      <point x="130" y="162" type="curve" smooth="yes"/>
      <point x="286" y="162"/>
      <point x="332" y="262"/>
      <point x="332" y="358" type="curve" smooth="yes"/>
      <point x="332" y="408"/>
      <point x="318" y="459"/>
      <point x="302" y="496" type="curve"/>
    </contour>
  </outline>
</glyph>
<glyph name="uni0326" format="1">
  <advance width="281"/>
  <unicode hex="0326"/>
  <outline>
    <contour>
      <point x="44" y="-664" type="line"/>
      <point x="125" y="-196" type="line"/>
      <point x="228" y="-196" type="line"/>
      <point x="110" y="-664" type="line"/>
    </contour>
  </outline>
</glyph>
<glyph name="Gamma" format="1">
  <advance width="1136"/>
  <unicode hex="0393"/>
  <outline>
    <contour>
      <point x="172" y="0" type="line"/>
      <point x="367" y="0" type="line"/>
      <point x="367" y="1354" type="line"/>
      <point x="310" y="1288" type="line"/>
      <point x="1041" y="1288" type="line"/>
      <point x="1051" y="1437" type="line"/>
      <point x="172" y="1437" type="line"/>
    </contour>
  </outline>
</glyph>
<glyph name="Delta" format="1">
  <advance width="1396"/>
  <unicode hex="0394"/>
  <outline>
    <contour>
      <point x="88" y="0" type="line"/>
      <point x="621" y="1446" type="line"/>
      <point x="796" y="1446" type="line"/>
      <point x="1330" y="0" type="line"/>
    </contour>
    <contour>
      <point x="317" y="150" type="line"/>
      <point x="1106" y="150" type="line"/>
      <point x="708" y="1262" type="line"/>
    </contour>
  </outline>
</glyph>
<glyph name="Lambda" format="1">
  <advance width="1396"/>
  <unicode hex="039B"/>
  <outline>
    <contour>
      <point x="89" y="0" type="line"/>
      <point x="620" y="1445" type="line"/>
      <point x="798" y="1445" type="line"/>
      <point x="1330" y="0" type="line"/>
      <point x="1156" y="0" type="line"/>
      <point x="709" y="1262" type="line"/>
      <point x="268" y="0" type="line"/>
    </contour>
  </outline>
</glyph>
<glyph name="Pi" format="1">
  <advance width="1360"/>
  <unicode hex="03A0"/>
  <outline>
    <contour>
      <point x="125" y="0" type="line"/>
      <point x="125" y="1445" type="line"/>
      <point x="1258" y="1445" type="line"/>
      <point x="1258" y="0" type="line"/>
      <point x="1088" y="0" type="line"/>
      <point x="1088" y="1299" type="line"/>
      <point x="296" y="1299" type="line"/>
      <point x="296" y="0" type="line"/>
    </contour>
  </outline>
</glyph>
<glyph name="Sigma" format="1">
  <advance width="1087"/>
  <unicode hex="03A3"/>
  <outline>
    <contour>
      <point x="125" y="0" type="line"/>
      <point x="125" y="1429" type="line"/>
      <point x="990" y="1429" type="line"/>
      <point x="983" y="1282" type="line"/>
      <point x="304" y="1282" type="line"/>
      <point x="304" y="813" type="line"/>
      <point x="927" y="813" type="line"/>
      <point x="927" y="668" type="line"/>
      <point x="304" y="668" type="line"/>
      <point x="304" y="148" type="line"/>
      <point x="990" y="148" type="line"/>
      <point x="982" y="0" type="line"/>
    </contour>
  </outline>
</glyph>
<glyph name="Phi" format="1">
  <advance width="1589"/>
  <unicode hex="03A6"/>
  <outline>
    <contour>
      <point x="719" y="0" type="line"/>
      <point x="719" y="165" type="line"/>
      <point x="312" y="195"/>
      <point x="100" y="435"/>
      <point x="100" y="746" type="curve" smooth="yes"/>
      <point x="100" y="1063"/>
      <point x="326" y="1285"/>
      <point x="719" y="1313" type="curve"/>
      <point x="719" y="1445" type="line"/>
      <point x="889" y="1445" type="line"/>
      <point x="889" y="1313" type="line"/>
      <point x="1287" y="1286"/>
      <point x="1512" y="1064"/>
      <point x="1512" y="746" type="curve" smooth="yes"/>
      <point x="1512" y="433"/>
      <point x="1299" y="193"/>
      <point x="889" y="165" type="curve"/>
      <point x="889" y="0" type="line"/>
    </contour>
    <contour>
      <point x="719" y="313" type="curve"/>
      <point x="719" y="1166" type="line"/>
      <point x="429" y="1139"/>
      <point x="282" y="977"/>
      <point x="282" y="746" type="curve" smooth="yes"/>
      <point x="282" y="523"/>
      <point x="416" y="342"/>
    </contour>
    <contour>
      <point x="889" y="313" type="line"/>
      <point x="1195" y="341"/>
      <point x="1330" y="522"/>
      <point x="1330" y="746" type="curve" smooth="yes"/>
      <point x="1330" y="977"/>
      <point x="1184" y="1140"/>
      <point x="889" y="1166" type="curve"/>
    </contour>
  </outline>
</glyph>
<glyph name="Omega" format="1">
  <advance width="1563"/>
  <unicode hex="03A9"/>
  <outline>
    <contour>
      <point x="795" y="164" type="curve" smooth="yes"/>
      <point x="1095" y="164"/>
      <point x="1254" y="392"/>
      <point x="1254" y="711" type="curve" smooth="yes"/>
      <point x="1254" y="1040"/>
      <point x="1090" y="1267"/>
      <point x="795" y="1267" type="curve" smooth="yes"/>
      <point x="500" y="1267"/>
      <point x="334" y="1041"/>
      <point x="334" y="711" type="curve" smooth="yes"/>
      <point x="334" y="392"/>
      <point x="495" y="164"/>
    </contour>
    <contour>
      <point x="795" y="-20" type="curve" smooth="yes"/>
      <point x="363" y="-20"/>
      <point x="101" y="264"/>
      <point x="101" y="713" type="curve" smooth="yes"/>
      <point x="101" y="1170"/>
      <point x="368" y="1452"/>
      <point x="795" y="1452" type="curve" smooth="yes"/>
      <point x="1217" y="1452"/>
      <point x="1488" y="1168"/>
      <point x="1488" y="712" type="curve" smooth="yes"/>
      <point x="1488" y="267"/>
      <point x="1224" y="-20"/>
    </contour>
  </outline>
</glyph>
<glyph name="rho" format="1">
  <advance width="1195"/>
  <unicode hex="03C1"/>
  <outline>
    <contour>
      <point x="119" y="-459" type="line"/>
      <point x="300" y="-449" type="line"/>
      <point x="300" y="-59" type="line" smooth="yes"/>
      <point x="300" y="7"/>
      <point x="299" y="74"/>
      <point x="295" y="144" type="curve"/>
      <point x="365" y="46"/>
      <point x="501" y="-23"/>
      <point x="642" y="-23" type="curve" smooth="yes"/>
      <point x="918" y="-23"/>
      <point x="1109" y="209"/>
      <point x="1109" y="525" type="curve" smooth="yes"/>
      <point x="1109" y="850"/>
      <point x="937" y="1082"/>
      <point x="639" y="1082" type="curve" smooth="yes"/>
      <point x="493" y="1082"/>
      <point x="359" y="1012"/>
      <point x="301" y="886" type="curve"/>
      <point x="283" y="1060" type="line"/>
      <point x="119" y="1060" type="line"/>
    </contour>
    <contour>
      <point x="613" y="114" type="curve" smooth="yes"/>
      <point x="380" y="114"/>
      <point x="300" y="273"/>
      <point x="300" y="548" type="curve" smooth="yes"/>
      <point x="300" y="792"/>
      <point x="391" y="945"/>
      <point x="614" y="945" type="curve" smooth="yes"/>
      <point x="824" y="945"/>
      <point x="928" y="780"/>
      <point x="928" y="531" type="curve" smooth="yes"/>
      <point x="928" y="277"/>
      <point x="820" y="114"/>
    </contour>
  </outline>
</glyph>
<glyph name="uni0404" format="1">
  <advance width="1278"/>
  <unicode hex="0404"/>
  <outline>
    <contour>
      <point x="812" y="-19" type="curve" smooth="yes"/>
      <point x="996" y="-19"/>
      <point x="1137" y="36"/>
      <point x="1200" y="67" type="curve"/>
      <point x="1157" y="211" type="line"/>
      <point x="1103" y="186"/>
      <point x="982" y="136"/>
      <point x="832" y="136" type="curve" smooth="yes"/>
      <point x="533" y="136"/>
      <point x="325" y="330"/>
      <point x="311" y="694" type="curve"/>
      <point x="268" y="654" type="line"/>
      <point x="958" y="654" type="line"/>
      <point x="958" y="798" type="line"/>
      <point x="266" y="798" type="line"/>
      <point x="311" y="758" type="line"/>
      <point x="327" y="1099"/>
      <point x="531" y="1303"/>
      <point x="820" y="1303" type="curve" smooth="yes"/>
      <point x="937" y="1303"/>
      <point x="1059" y="1270"/>
      <point x="1147" y="1216" type="curve"/>
      <point x="1208" y="1344" type="line"/>
      <point x="1113" y="1411"/>
      <point x="971" y="1456"/>
      <point x="804" y="1456" type="curve" smooth="yes"/>
      <point x="396" y="1456"/>
      <point x="116" y="1171"/>
      <point x="116" y="723" type="curve" smooth="yes"/>
      <point x="116" y="256"/>
      <point x="409" y="-19"/>
    </contour>
  </outline>
</glyph>
<glyph name="uni0409" format="1">
  <advance width="2303"/>
  <unicode hex="0409"/>
  <outline>
    <contour>
      <point x="602" y="1347" type="line"/>
      <point x="535" y="1293" type="line"/>
      <point x="1344" y="1293" type="line"/>
      <point x="1274" y="1347" type="line"/>
      <point x="1274" y="0" type="line"/>
      <point x="1753" y="0" type="line" smooth="yes"/>
      <point x="2107" y="0"/>
      <point x="2252" y="155"/>
      <point x="2252" y="408" type="curve" smooth="yes"/>
      <point x="2252" y="657"/>
      <point x="2114" y="808"/>
      <point x="1752" y="808" type="curve" smooth="yes"/>
      <point x="1408" y="808" type="line"/>
      <point x="1467" y="753" type="line"/>
      <point x="1469" y="1436" type="line"/>
      <point x="408" y="1436" type="line"/>
      <point x="408" y="451" type="line" smooth="yes"/>
      <point x="408" y="271"/>
      <point x="362" y="136"/>
      <point x="136" y="136" type="curve" smooth="yes"/>
      <point x="41" y="136" type="line"/>
      <point x="53" y="-20" type="line"/>
      <point x="167" y="-20" type="line" smooth="yes"/>
      <point x="477" y="-20"/>
      <point x="602" y="167"/>
      <point x="602" y="441" type="curve" smooth="yes"/>
    </contour>
    <contour>
      <point x="1468" y="68" type="line"/>
      <point x="1468" y="728" type="line"/>
      <point x="1408" y="667" type="line"/>
      <point x="1744" y="667" type="line" smooth="yes"/>
      <point x="1975" y="667"/>
      <point x="2063" y="601"/>
      <point x="2063" y="408" type="curve" smooth="yes"/>
      <point x="2063" y="216"/>
      <point x="1962" y="148"/>
      <point x="1742" y="148" type="curve" smooth="yes"/>
      <point x="1399" y="148" type="line"/>
    </contour>
  </outline>
</glyph>
<glyph name="uni040A" format="1">
  <advance width="2077"/>
  <unicode hex="040A"/>
  <outline>
    <contour>
      <point x="1038" y="0" type="line"/>
      <point x="1517" y="0" type="line" smooth="yes"/>
      <point x="1871" y="0"/>
      <point x="2016" y="155"/>
      <point x="2016" y="408" type="curve" smooth="yes"/>
      <point x="2016" y="657"/>
      <point x="1878" y="808"/>
      <point x="1516" y="808" type="curve" smooth="yes"/>
      <point x="1172" y="808" type="line"/>
      <point x="1231" y="753" type="line"/>
      <point x="1233" y="1436" type="line"/>
      <point x="1038" y="1436" type="line"/>
      <point x="1038" y="756" type="line"/>
      <point x="1104" y="808" type="line"/>
      <point x="299" y="808" type="line"/>
      <point x="366" y="756" type="line"/>
      <point x="366" y="1436" type="line"/>
      <point x="172" y="1436" type="line"/>
      <point x="172" y="0" type="line"/>
      <point x="366" y="0" type="line"/>
      <point x="366" y="721" type="line"/>
      <point x="299" y="667" type="line"/>
      <point x="1108" y="667" type="line"/>
      <point x="1038" y="721" type="line"/>
    </contour>
    <contour>
      <point x="1232" y="68" type="line"/>
      <point x="1232" y="728" type="line"/>
      <point x="1172" y="667" type="line"/>
      <point x="1508" y="667" type="line" smooth="yes"/>
      <point x="1739" y="667"/>
      <point x="1827" y="601"/>
      <point x="1827" y="408" type="curve" smooth="yes"/>
      <point x="1827" y="216"/>
      <point x="1726" y="148"/>
      <point x="1506" y="148" type="curve" smooth="yes"/>
      <point x="1163" y="148" type="line"/>
    </contour>
  </outline>
</glyph>
<glyph name="uni040B" format="1">
  <advance width="1461"/>
  <unicode hex="040B"/>
  <outline>
    <contour>
      <point x="602" y="1293" type="line"/>
      <point x="1033" y="1293" type="line"/>
      <point x="1033" y="1437" type="line"/>
      <point x="46" y="1437" type="line"/>
      <point x="46" y="1293" type="line"/>
      <point x="408" y="1293" type="line"/>
      <point x="408" y="0" type="line"/>
      <point x="602" y="0" type="line"/>
      <point x="602" y="709" type="line"/>
      <point x="883" y="710" type="line" smooth="yes"/>
      <point x="1059" y="710"/>
      <point x="1133" y="670"/>
      <point x="1133" y="440" type="curve" smooth="yes"/>
      <point x="1133" y="0" type="line"/>
      <point x="1327" y="0" type="line"/>
      <point x="1327" y="474" type="line" smooth="yes"/>
      <point x="1327" y="728"/>
      <point x="1187" y="870"/>
      <point x="922" y="870" type="curve" smooth="yes"/>
      <point x="602" y="869" type="line"/>
    </contour>
  </outline>
</glyph>
<glyph name="uni040F" format="1">
  <advance width="1462"/>
  <unicode hex="040F"/>
  <outline>
    <contour>
      <point x="1290" y="1437" type="line"/>
      <point x="1290" y="0" type="line"/>
      <point x="172" y="0" type="line"/>
      <point x="172" y="1437" type="line"/>
      <point x="366" y="1437" type="line"/>
      <point x="366" y="110" type="line"/>
      <point x="306" y="146" type="line"/>
      <point x="1151" y="146" type="line"/>
      <point x="1096" y="110" type="line"/>
      <point x="1096" y="1437" type="line"/>
    </contour>
    <contour>
      <point x="638" y="-294" type="line"/>
      <point x="638" y="91" type="line"/>
      <point x="832" y="91" type="line"/>
      <point x="832" y="-294" type="line"/>
    </contour>
  </outline>
</glyph>
<glyph name="uni0411" format="1">
  <advance width="1224"/>
  <unicode hex="0411"/>
  <outline>
    <contour>
      <point x="172" y="0" type="line"/>
      <point x="683" y="0" type="line" smooth="yes"/>
      <point x="1037" y="0"/>
      <point x="1175" y="163"/>
      <point x="1175" y="416" type="curve" smooth="yes"/>
      <point x="1175" y="665"/>
      <point x="1043" y="824"/>
      <point x="681" y="824" type="curve" smooth="yes"/>
      <point x="297" y="824" type="line"/>
      <point x="366" y="765" type="line"/>
      <point x="366" y="1358" type="line"/>
      <point x="300" y="1291" type="line"/>
      <point x="1030" y="1291" type="line"/>
      <point x="1030" y="1437" type="line"/>
      <point x="172" y="1437" type="line"/>
    </contour>
    <contour>
      <point x="366" y="68" type="line"/>
      <point x="366" y="735" type="line"/>
      <point x="296" y="677" type="line"/>
      <point x="673" y="677" type="line" smooth="yes"/>
      <point x="899" y="677"/>
      <point x="981" y="606"/>
      <point x="981" y="413" type="curve" smooth="yes"/>
      <point x="981" y="221"/>
      <point x="884" y="147"/>
      <point x="671" y="147" type="curve" smooth="yes"/>
      <point x="299" y="147" type="line"/>
    </contour>
  </outline>
</glyph>
<glyph name="uni0412" format="1">
  <advance width="1324"/>
  <unicode hex="0412"/>
  <outline>
    <contour>
      <point x="172" y="0" type="line"/>
      <point x="721" y="0" type="line" smooth="yes"/>
      <point x="1063" y="0"/>
      <point x="1233" y="155"/>
      <point x="1233" y="408" type="curve" smooth="yes"/>
      <point x="1233" y="627"/>
      <point x="1087" y="743"/>
      <point x="864" y="782" type="curve"/>
      <point x="864" y="734" type="line"/>
      <point x="1102" y="797"/>
      <point x="1176" y="913"/>
      <point x="1176" y="1083" type="curve" smooth="yes"/>
      <point x="1176" y="1331"/>
      <point x="1000" y="1437"/>
      <point x="637" y="1437" type="curve" smooth="yes"/>
      <point x="172" y="1437" type="line"/>
    </contour>
    <contour>
      <point x="314" y="147" type="line"/>
      <point x="366" y="93" type="line"/>
      <point x="366" y="741" type="line"/>
      <point x="313" y="688" type="line"/>
      <point x="642" y="688" type="line" smooth="yes"/>
      <point x="912" y="688"/>
      <point x="1039" y="619"/>
      <point x="1039" y="415" type="curve" smooth="yes"/>
      <point x="1039" y="224"/>
      <point x="932" y="147"/>
      <point x="689" y="147" type="curve" smooth="yes"/>
    </contour>
    <contour>
      <point x="312" y="823" type="line"/>
      <point x="366" y="778" type="line"/>
      <point x="366" y="1345" type="line"/>
      <point x="314" y="1293" type="line"/>
      <point x="631" y="1293" type="line" smooth="yes"/>
      <point x="875" y="1293"/>
      <point x="990" y="1247"/>
      <point x="990" y="1059" type="curve" smooth="yes"/>
      <point x="990" y="871"/>
      <point x="873" y="823"/>
      <point x="687" y="823" type="curve" smooth="yes"/>
    </contour>
  </outline>
</glyph>
<glyph name="uni0413" format="1">
  <advance width="1128"/>
  <unicode hex="0413"/>
  <outline>
    <contour>
      <point x="172" y="0" type="line"/>
      <point x="366" y="0" type="line"/>
      <point x="366" y="1347" type="line"/>
      <point x="299" y="1293" type="line"/>
      <point x="1078" y="1293" type="line"/>
      <point x="1092" y="1436" type="line"/>
      <point x="172" y="1436" type="line"/>
    </contour>
  </outline>
</glyph>
<glyph name="uni0414" format="1">
  <advance width="1448"/>
  <unicode hex="0414"/>
  <outline>
    <contour>
      <point x="29" y="-294" type="line"/>
      <point x="29" y="147" type="line"/>
      <point x="189" y="147" type="line"/>
      <point x="281" y="212"/>
      <point x="323" y="365"/>
      <point x="379" y="1079" type="curve" smooth="yes"/>
      <point x="406" y="1437" type="line"/>
      <point x="1235" y="1437" type="line"/>
      <point x="1235" y="147" type="line"/>
      <point x="1368" y="147" type="line"/>
      <point x="1368" y="-294" type="line"/>
      <point x="1199" y="-294" type="line"/>
      <point x="1199" y="0" type="line"/>
      <point x="200" y="0" type="line"/>
      <point x="200" y="-294" type="line"/>
    </contour>
    <contour>
      <point x="370" y="92" type="curve"/>
      <point x="335" y="147" type="line"/>
      <point x="1103" y="147" type="line"/>
      <point x="1041" y="91" type="line"/>
      <point x="1040" y="1368" type="line"/>
      <point x="1124" y="1293" type="line"/>
      <point x="458" y="1292" type="line"/>
      <point x="585" y="1353" type="line"/>
      <point x="565" y="1068" type="line" smooth="yes"/>
      <point x="530" y="567"/>
      <point x="496" y="217"/>
    </contour>
  </outline>
</glyph>
<glyph name="uni0416" format="1">
  <advance width="2010"/>
  <unicode hex="0416"/>
  <outline>
    <contour>
      <point x="1102" y="0" type="line"/>
      <point x="1102" y="647" type="line"/>
      <point x="1053" y="534" type="line"/>
      <point x="1282" y="742" type="line"/>
      <point x="1197" y="748" type="line"/>
      <point x="1772" y="0" type="line"/>
      <point x="1998" y="0" type="line"/>
      <point x="1337" y="853" type="line"/>
      <point x="1337" y="752" type="line"/>
      <point x="1967" y="1437" type="line"/>
      <point x="1741" y="1437" type="line"/>
      <point x="1050" y="701" type="line"/>
      <point x="1102" y="691" type="line"/>
      <point x="1102" y="1437" type="line"/>
      <point x="907" y="1437" type="line"/>
      <point x="908" y="691" type="line"/>
      <point x="960" y="701" type="line"/>
      <point x="269" y="1437" type="line"/>
      <point x="43" y="1437" type="line"/>
      <point x="673" y="752" type="line"/>
      <point x="673" y="853" type="line"/>
      <point x="12" y="0" type="line"/>
      <point x="238" y="0" type="line"/>
      <point x="813" y="748" type="line"/>
      <point x="728" y="742" type="line"/>
      <point x="957" y="534" type="line"/>
      <point x="908" y="647" type="line"/>
      <point x="908" y="0" type="line"/>
    </contour>
  </outline>
</glyph>
<glyph name="uni0417" format="1">
  <advance width="1172"/>
  <unicode hex="0417"/>
  <outline>
    <contour>
      <point x="583" y="-19" type="curve" smooth="yes"/>
      <point x="865" y="-19"/>
      <point x="1077" y="101"/>
      <point x="1077" y="401" type="curve" smooth="yes"/>
      <point x="1077" y="595"/>
      <point x="983" y="682"/>
      <point x="825" y="752" type="curve"/>
      <point x="958" y="816"/>
      <point x="1029" y="910"/>
      <point x="1029" y="1078" type="curve" smooth="yes"/>
      <point x="1029" y="1356"/>
      <point x="793" y="1456"/>
      <point x="548" y="1456" type="curve" smooth="yes"/>
      <point x="383" y="1456"/>
      <point x="231" y="1398"/>
      <point x="142" y="1336" type="curve"/>
      <point x="210" y="1200" type="line"/>
      <point x="266" y="1229"/>
      <point x="394" y="1302"/>
      <point x="551" y="1302" type="curve" smooth="yes"/>
      <point x="706" y="1302"/>
      <point x="849" y="1250"/>
      <point x="849" y="1087" type="curve" smooth="yes"/>
      <point x="849" y="933"/>
      <point x="759" y="829"/>
      <point x="575" y="829" type="curve" smooth="yes"/>
      <point x="384" y="829" type="line"/>
      <point x="385" y="673" type="line"/>
      <point x="575" y="674" type="line" smooth="yes"/>
      <point x="788" y="675"/>
      <point x="898" y="536"/>
      <point x="898" y="397" type="curve" smooth="yes"/>
      <point x="898" y="208"/>
      <point x="755" y="132"/>
      <point x="587" y="132" type="curve" smooth="yes"/>
      <point x="451" y="132"/>
      <point x="299" y="181"/>
      <point x="190" y="259" type="curve"/>
      <point x="126" y="117" type="line"/>
      <point x="205" y="63"/>
      <point x="344" y="-19"/>
    </contour>
  </outline>
</glyph>
<glyph name="uni0418" format="1">
  <advance width="1517"/>
  <unicode hex="0418"/>
  <outline>
    <contour>
      <point x="1345" y="0" type="line"/>
      <point x="1162" y="0" type="line"/>
      <point x="1162" y="713" type="line"/>
      <point x="1180" y="1271" type="line"/>
      <point x="1225" y="1258" type="line"/>
      <point x="375" y="0" type="line"/>
      <point x="172" y="0" type="line"/>
      <point x="172" y="1437" type="line"/>
      <point x="354" y="1437" type="line"/>
      <point x="354" y="660" type="line"/>
      <point x="341" y="166" type="line"/>
      <point x="296" y="169" type="line"/>
      <point x="1149" y="1437" type="line"/>
      <point x="1345" y="1437" type="line"/>
    </contour>
  </outline>
</glyph>
<glyph name="uni041B" format="1">
  <advance width="1609"/>
  <unicode hex="041B"/>
  <outline>
    <contour>
      <point x="348" y="436" type="line" smooth="yes"/>
      <point x="348" y="256"/>
      <point x="302" y="121"/>
      <point x="76" y="121" type="curve" smooth="yes"/>
      <point x="21" y="121" type="line"/>
      <point x="33" y="-35" type="line"/>
      <point x="107" y="-35" type="line" smooth="yes"/>
      <point x="427" y="-35"/>
      <point x="542" y="164"/>
      <point x="542" y="438" type="curve" smooth="yes"/>
      <point x="542" y="1348" type="line"/>
      <point x="477" y="1293" type="line"/>
      <point x="1314" y="1293" type="line"/>
      <point x="1244" y="1347" type="line"/>
      <point x="1244" y="-1" type="line"/>
      <point x="1438" y="-1" type="line"/>
      <point x="1438" y="1437" type="line"/>
      <point x="348" y="1437" type="line"/>
    </contour>
  </outline>
</glyph>
<glyph name="uni0423" format="1">
  <advance width="1297"/>
  <unicode hex="0423"/>
  <outline>
    <contour>
      <point x="331" y="0" type="line"/>
      <point x="644" y="635" type="line"/>
      <point x="669" y="463" type="line"/>
      <point x="112" y="1436" type="line"/>
      <point x="314" y="1436" type="line"/>
      <point x="780" y="618" type="line"/>
      <point x="675" y="673" type="line"/>
      <point x="1054" y="1436" type="line"/>
      <point x="1248" y="1436" type="line"/>
      <point x="533" y="0" type="line"/>
    </contour>
  </outline>
</glyph>
<glyph name="uni0424" format="1">
  <advance width="1629"/>
  <unicode hex="0424"/>
  <outline>
    <contour>
      <point x="732" y="0" type="line"/>
      <point x="883" y="0" type="line"/>
      <point x="883" y="122" type="line"/>
      <point x="1297" y="150"/>
      <point x="1549" y="358"/>
      <point x="1549" y="720" type="curve" smooth="yes"/>
      <point x="1549" y="1083"/>
      <point x="1298" y="1291"/>
      <point x="883" y="1318" type="curve"/>
      <point x="883" y="1445" type="line"/>
      <point x="732" y="1445" type="line"/>
      <point x="731" y="1316" type="line"/>
      <point x="312" y="1280"/>
      <point x="81" y="1062"/>
      <point x="81" y="720" type="curve" smooth="yes"/>
      <point x="81" y="378"/>
      <point x="311" y="159"/>
      <point x="731" y="123" type="curve"/>
    </contour>
    <contour>
      <point x="731" y="275" type="line"/>
      <point x="408" y="309"/>
      <point x="258" y="473"/>
      <point x="258" y="720" type="curve" smooth="yes"/>
      <point x="258" y="966"/>
      <point x="408" y="1131"/>
      <point x="731" y="1165" type="curve"/>
    </contour>
    <contour>
      <point x="883" y="273" type="curve"/>
      <point x="883" y="1166" type="line"/>
      <point x="1222" y="1135"/>
      <point x="1371" y="968"/>
      <point x="1371" y="720" type="curve" smooth="yes"/>
      <point x="1371" y="472"/>
      <point x="1222" y="304"/>
    </contour>
  </outline>
</glyph>
<glyph name="uni0426" format="1">
  <advance width="1468"/>
  <unicode hex="0426"/>
  <outline>
    <contour>
      <point x="172" y="0" type="line"/>
      <point x="366" y="0" type="line"/>
      <point x="366" y="1347" type="line"/>
      <point x="299" y="1293" type="line"/>
      <point x="1172" y="1293" type="line"/>
      <point x="1102" y="1347" type="line"/>
      <point x="1102" y="0" type="line"/>
      <point x="1296" y="0" type="line"/>
      <point x="1296" y="1436" type="line"/>
      <point x="172" y="1436" type="line"/>
    </contour>
  </outline>
</glyph>
<glyph name="uni0427" format="1">
  <advance width="1249"/>
  <unicode hex="0427"/>
  <outline>
    <contour>
      <point x="883" y="0" type="line"/>
      <point x="1077" y="0" type="line"/>
      <point x="1077" y="1436" type="line"/>
      <point x="883" y="1436" type="line"/>
      <point x="883" y="650" type="line"/>
      <point x="885" y="650"/>
      <point x="562" y="649"/>
      <point x="564" y="649" type="curve"/>
      <point x="388" y="649"/>
      <point x="314" y="689"/>
      <point x="314" y="919" type="curve" smooth="yes"/>
      <point x="314" y="1436" type="line"/>
      <point x="120" y="1436" type="line"/>
      <point x="120" y="885" type="line" smooth="yes"/>
      <point x="120" y="631"/>
      <point x="260" y="489"/>
      <point x="525" y="489" type="curve"/>
      <point x="523" y="489"/>
      <point x="887" y="490"/>
      <point x="883" y="490" type="curve"/>
    </contour>
  </outline>
</glyph>
<glyph name="uni0428" format="1">
  <advance width="1714"/>
  <unicode hex="0428"/>
  <outline>
    <contour>
      <point x="172" y="0" type="line"/>
      <point x="1542" y="0" type="line"/>
      <point x="1542" y="1437" type="line"/>
      <point x="1348" y="1437" type="line"/>
      <point x="1348" y="147" type="line"/>
      <point x="954" y="147" type="line"/>
      <point x="954" y="1437" type="line"/>
      <point x="760" y="1437" type="line"/>
      <point x="760" y="147" type="line"/>
      <point x="366" y="147" type="line"/>
      <point x="366" y="1437" type="line"/>
      <point x="172" y="1437" type="line"/>
    </contour>
  </outline>
</glyph>
<glyph name="uni0429" format="1">
  <advance width="1732"/>
  <unicode hex="0429"/>
  <outline>
    <component base="uni0428" xOffset="-24"/>
    <contour>
      <point x="1468" y="-292" type="line"/>
      <point x="1652" y="-292" type="line"/>
      <point x="1652" y="147" type="line"/>
      <point x="1468" y="147" type="line"/>
    </contour>
  </outline>
</glyph>
<glyph name="uni042A" format="1">
  <advance width="1329"/>
  <unicode hex="042A"/>
  <outline>
    <component base="uni042C" xOffset="90"/>
    <contour>
      <point x="394" y="1436" type="line"/>
      <point x="36" y="1436" type="line"/>
      <point x="36" y="1292" type="line"/>
      <point x="395" y="1292" type="line"/>
    </contour>
  </outline>
</glyph>
<glyph name="uni042B" format="1">
  <advance width="1761"/>
  <unicode hex="042B"/>
  <outline>
    <component base="uni042C" xOffset="-28"/>
    <contour>
      <point x="1395" y="0" type="line"/>
      <point x="1395" y="1436" type="line"/>
      <point x="1589" y="1436" type="line"/>
      <point x="1589" y="0" type="line"/>
    </contour>
  </outline>
</glyph>
<glyph name="uni042C" format="1">
  <advance width="1241"/>
  <unicode hex="042C"/>
  <outline>
    <contour>
      <point x="172" y="0" type="line"/>
      <point x="675" y="0" type="line" smooth="yes"/>
      <point x="1029" y="0"/>
      <point x="1168" y="163"/>
      <point x="1168" y="416" type="curve" smooth="yes"/>
      <point x="1168" y="665"/>
      <point x="1035" y="824"/>
      <point x="673" y="824" type="curve" smooth="yes"/>
      <point x="297" y="824" type="line"/>
      <point x="366" y="765" type="line"/>
      <point x="366" y="1436" type="line"/>
      <point x="172" y="1436" type="line"/>
    </contour>
    <contour>
      <point x="366" y="68" type="line"/>
      <point x="366" y="736" type="line"/>
      <point x="296" y="678" type="line"/>
      <point x="665" y="678" type="line" smooth="yes"/>
      <point x="891" y="678"/>
      <point x="973" y="607"/>
      <point x="973" y="414" type="curve" smooth="yes"/>
      <point x="973" y="222"/>
      <point x="876" y="147"/>
      <point x="663" y="147" type="curve" smooth="yes"/>
      <point x="299" y="147" type="line"/>
    </contour>
  </outline>
</glyph>
<glyph name="uni042D" format="1">
  <advance width="1278"/>
  <unicode hex="042D"/>
  <outline>
    <contour>
      <point x="512" y="-19" type="curve" smooth="yes"/>
      <point x="328" y="-19"/>
      <point x="187" y="36"/>
      <point x="124" y="67" type="curve"/>
      <point x="167" y="211" type="line"/>
      <point x="221" y="186"/>
      <point x="342" y="136"/>
      <point x="492" y="136" type="curve" smooth="yes"/>
      <point x="791" y="136"/>
      <point x="999" y="330"/>
      <point x="1013" y="694" type="curve"/>
      <point x="1056" y="654" type="line"/>
      <point x="366" y="654" type="line"/>
      <point x="366" y="798" type="line"/>
      <point x="1058" y="798" type="line"/>
      <point x="1014" y="758" type="line"/>
      <point x="998" y="1099"/>
      <point x="793" y="1303"/>
      <point x="504" y="1303" type="curve" smooth="yes"/>
      <point x="387" y="1303"/>
      <point x="265" y="1270"/>
      <point x="177" y="1216" type="curve"/>
      <point x="116" y="1344" type="line"/>
      <point x="211" y="1411"/>
      <point x="353" y="1456"/>
      <point x="520" y="1456" type="curve" smooth="yes"/>
      <point x="928" y="1456"/>
      <point x="1208" y="1171"/>
      <point x="1208" y="723" type="curve" smooth="yes"/>
      <point x="1208" y="256"/>
      <point x="915" y="-19"/>
    </contour>
  </outline>
</glyph>
<glyph name="uni042E" format="1">
  <advance width="2116"/>
  <unicode hex="042E"/>
  <outline>
    <contour>
      <point x="1312" y="-19" type="curve" smooth="yes"/>
      <point x="1750" y="-19"/>
      <point x="2000" y="274"/>
      <point x="2000" y="710" type="curve" smooth="yes"/>
      <point x="2000" y="1162"/>
      <point x="1740" y="1456"/>
      <point x="1313" y="1456" type="curve" smooth="yes"/>
      <point x="911" y="1456"/>
      <point x="646" y="1198"/>
      <point x="623" y="770" type="curve"/>
      <point x="689" y="810" type="line"/>
      <point x="306" y="810" type="line"/>
      <point x="366" y="760" type="line"/>
      <point x="366" y="1437" type="line"/>
      <point x="172" y="1437" type="line"/>
      <point x="172" y="0" type="line"/>
      <point x="366" y="0" type="line"/>
      <point x="366" y="720" type="line"/>
      <point x="306" y="667" type="line"/>
      <point x="693" y="667" type="line"/>
      <point x="620" y="707" type="line"/>
      <point x="627" y="259"/>
      <point x="885" y="-19"/>
    </contour>
    <contour>
      <point x="1311" y="134" type="curve" smooth="yes"/>
      <point x="977" y="134"/>
      <point x="814" y="373"/>
      <point x="814" y="711" type="curve" smooth="yes"/>
      <point x="814" y="1063"/>
      <point x="986" y="1302"/>
      <point x="1312" y="1302" type="curve" smooth="yes"/>
      <point x="1638" y="1302"/>
      <point x="1806" y="1061"/>
      <point x="1806" y="711" type="curve" smooth="yes"/>
      <point x="1806" y="373"/>
      <point x="1645" y="134"/>
    </contour>
  </outline>
</glyph>
<glyph name="uni042F" format="1">
  <advance width="1370"/>
  <unicode hex="042F"/>
  <outline>
    <contour>
      <point x="1199" y="0" type="line"/>
      <point x="1005" y="0" type="line"/>
      <point x="1005" y="718" type="line"/>
      <point x="1066" y="672" type="line"/>
      <point x="511" y="672" type="line"/>
      <point x="619" y="728" type="line"/>
      <point x="501" y="442" type="line"/>
      <point x="316" y="0" type="line"/>
      <point x="95" y="0" type="line"/>
      <point x="318" y="498" type="line"/>
      <point x="436" y="775" type="line"/>
      <point x="448" y="687" type="line"/>
      <point x="266" y="729"/>
      <point x="153" y="831"/>
      <point x="153" y="1061" type="curve" smooth="yes"/>
      <point x="153" y="1327"/>
      <point x="309" y="1437"/>
      <point x="615" y="1437" type="curve" smooth="yes"/>
      <point x="1199" y="1437" type="line"/>
    </contour>
    <contour>
      <point x="1005" y="755" type="line"/>
      <point x="1005" y="1349" type="line"/>
      <point x="1065" y="1293" type="line"/>
      <point x="620" y="1293" type="line" smooth="yes"/>
      <point x="421" y="1293"/>
      <point x="347" y="1211"/>
      <point x="347" y="1060" type="curve" smooth="yes"/>
      <point x="347" y="882"/>
      <point x="419" y="812"/>
      <point x="647" y="812" type="curve" smooth="yes"/>
      <point x="1066" y="812" type="line"/>
    </contour>
  </outline>
</glyph>
<glyph name="uni0431" format="1">
  <advance width="1080"/>
  <unicode hex="0431"/>
  <outline>
    <contour>
      <point x="554" y="98" type="curve" smooth="yes"/>
      <point x="716" y="98"/>
      <point x="814" y="187"/>
      <point x="814" y="418" type="curve" smooth="yes"/>
      <point x="814" y="615"/>
      <point x="707" y="708"/>
      <point x="582" y="708" type="curve" smooth="yes"/>
      <point x="480" y="708"/>
      <point x="373" y="659"/>
      <point x="298" y="588" type="curve"/>
      <point x="286" y="529"/>
      <point x="280" y="475"/>
      <point x="280" y="427" type="curve" smooth="yes"/>
      <point x="280" y="207"/>
      <point x="400" y="98"/>
    </contour>
    <contour>
      <point x="110" y="463" type="curve" smooth="yes"/>
      <point x="110" y="905"/>
      <point x="252" y="1255"/>
      <point x="883" y="1291" type="curve"/>
      <point x="900" y="1151" type="line"/>
      <point x="555" y="1118"/>
      <point x="373" y="1033"/>
      <point x="306" y="731" type="curve"/>
      <point x="365" y="776"/>
      <point x="486" y="845"/>
      <point x="604" y="845" type="curve" smooth="yes"/>
      <point x="841" y="845"/>
      <point x="998" y="663"/>
      <point x="998" y="431" type="curve" smooth="yes"/>
      <point x="998" y="103"/>
      <point x="776" y="-21"/>
      <point x="556" y="-21" type="curve" smooth="yes"/>
      <point x="329" y="-21"/>
      <point x="110" y="109"/>
    </contour>
  </outline>
</glyph>
<glyph name="uni0432" format="1">
  <advance width="1092"/>
  <unicode hex="0432"/>
  <outline>
    <contour>
      <point x="146" y="0" type="line"/>
      <point x="146" y="1060" type="line"/>
      <point x="627" y="1060" type="line" smooth="yes"/>
      <point x="901" y="1060"/>
      <point x="972" y="917"/>
      <point x="972" y="794" type="curve" smooth="yes"/>
      <point x="972" y="671"/>
      <point x="923" y="598"/>
      <point x="818" y="566" type="curve"/>
      <point x="983" y="521"/>
      <point x="1007" y="391"/>
      <point x="1007" y="302" type="curve" smooth="yes"/>
      <point x="1007" y="176"/>
      <point x="942" y="0"/>
      <point x="616" y="0" type="curve" smooth="yes"/>
    </contour>
    <contour>
      <point x="326" y="132" type="line"/>
      <point x="617" y="132" type="line" smooth="yes"/>
      <point x="795" y="132"/>
      <point x="827" y="219"/>
      <point x="827" y="308" type="curve" smooth="yes"/>
      <point x="827" y="400"/>
      <point x="790" y="494"/>
      <point x="622" y="494" type="curve" smooth="yes"/>
      <point x="326" y="494" type="line"/>
    </contour>
    <contour>
      <point x="326" y="610" type="line"/>
      <point x="622" y="610" type="line" smooth="yes"/>
      <point x="760" y="610"/>
      <point x="788" y="695"/>
      <point x="788" y="778" type="curve" smooth="yes"/>
      <point x="788" y="855"/>
      <point x="772" y="928"/>
      <point x="622" y="928" type="curve" smooth="yes"/>
      <point x="326" y="928" type="line"/>
    </contour>
  </outline>
</glyph>
<glyph name="uni0433" format="1">
  <advance width="894"/>
  <unicode hex="0433"/>
  <outline>
    <contour>
      <point x="146" y="0" type="line"/>
      <point x="146" y="1060" type="line"/>
      <point x="867" y="1060" type="line"/>
      <point x="858" y="928" type="line"/>
      <point x="326" y="928" type="line"/>
      <point x="326" y="0" type="line"/>
    </contour>
  </outline>
</glyph>
<glyph name="uni0434" format="1">
  <advance width="1236"/>
  <unicode hex="0434"/>
  <outline>
    <contour>
      <point x="45" y="-275" type="line"/>
      <point x="45" y="134" type="line"/>
      <point x="88" y="134" type="line" smooth="yes"/>
      <point x="173" y="134"/>
      <point x="277" y="191"/>
      <point x="308" y="382" type="curve" smooth="yes"/>
      <point x="418" y="1059" type="line"/>
      <point x="1082" y="1059" type="line"/>
      <point x="1082" y="134" type="line"/>
      <point x="1163" y="134" type="line"/>
      <point x="1163" y="-275" type="line"/>
      <point x="991" y="-275" type="line"/>
      <point x="991" y="0" type="line"/>
      <point x="207" y="0" type="line"/>
      <point x="208" y="-275" type="line"/>
    </contour>
    <contour>
      <point x="341" y="132" type="curve"/>
      <point x="902" y="132" type="line"/>
      <point x="902" y="937" type="line"/>
      <point x="562" y="937" type="line"/>
      <point x="479" y="373" type="line" smooth="yes"/>
      <point x="447" y="168"/>
      <point x="340" y="132"/>
    </contour>
  </outline>
</glyph>
<glyph name="uni0436" format="1">
  <advance width="1693"/>
  <unicode hex="0436"/>
  <outline>
    <contour>
      <point x="757" y="751" type="line"/>
      <point x="764" y="501" type="line"/>
      <point x="801" y="501" type="line"/>
      <point x="254" y="1060" type="line"/>
      <point x="33" y="1060" type="line"/>
      <point x="542" y="533" type="line"/>
      <point x="542" y="615" type="line"/>
      <point x="19" y="0" type="line"/>
      <point x="232" y="0" type="line"/>
      <point x="671" y="517" type="line"/>
      <point x="604" y="517" type="line"/>
      <point x="803" y="334" type="line"/>
      <point x="757" y="429" type="line"/>
      <point x="757" y="0" type="line"/>
      <point x="937" y="0" type="line"/>
      <point x="937" y="429" type="line"/>
      <point x="891" y="334" type="line"/>
      <point x="1090" y="517" type="line"/>
      <point x="1023" y="517" type="line"/>
      <point x="1462" y="0" type="line"/>
      <point x="1675" y="0" type="line"/>
      <point x="1152" y="615" type="line"/>
      <point x="1152" y="533" type="line"/>
      <point x="1661" y="1060" type="line"/>
      <point x="1440" y="1060" type="line"/>
      <point x="893" y="501" type="line"/>
      <point x="930" y="501" type="line"/>
      <point x="937" y="751" type="line"/>
      <point x="937" y="1060" type="line"/>
      <point x="757" y="1060" type="line"/>
    </contour>
  </outline>
</glyph>
<glyph name="uni0437" format="1">
  <advance width="1074"/>
  <unicode hex="0437"/>
  <outline>
    <contour>
      <point x="504" y="944" type="curve" smooth="yes"/>
      <point x="647" y="944"/>
      <point x="760" y="919"/>
      <point x="760" y="783" type="curve" smooth="yes"/>
      <point x="760" y="685"/>
      <point x="690" y="616"/>
      <point x="545" y="616" type="curve" smooth="yes"/>
      <point x="361" y="615" type="line"/>
      <point x="361" y="492" type="line"/>
      <point x="546" y="492" type="line" smooth="yes"/>
      <point x="722" y="492"/>
      <point x="791" y="402"/>
      <point x="791" y="303" type="curve" smooth="yes"/>
      <point x="791" y="170"/>
      <point x="671" y="118"/>
      <point x="532" y="118" type="curve" smooth="yes"/>
      <point x="412" y="118"/>
      <point x="277" y="158"/>
      <point x="193" y="218" type="curve"/>
      <point x="138" y="82" type="line"/>
      <point x="206" y="42"/>
      <point x="325" y="-19"/>
      <point x="531" y="-19" type="curve" smooth="yes"/>
      <point x="772" y="-19"/>
      <point x="967" y="77"/>
      <point x="967" y="289" type="curve" smooth="yes"/>
      <point x="967" y="436"/>
      <point x="905" y="505"/>
      <point x="768" y="557" type="curve"/>
      <point x="876" y="602"/>
      <point x="926" y="674"/>
      <point x="926" y="785" type="curve" smooth="yes"/>
      <point x="926" y="1011"/>
      <point x="734" y="1082"/>
      <point x="515" y="1082" type="curve" smooth="yes"/>
      <point x="373" y="1082"/>
      <point x="229" y="1040"/>
      <point x="152" y="994" type="curve"/>
      <point x="210" y="869" type="line"/>
      <point x="258" y="890"/>
      <point x="369" y="944"/>
    </contour>
  </outline>
</glyph>
<glyph name="uni0438" format="1">
  <advance width="1145"/>
  <unicode hex="0438"/>
  <outline>
    <contour>
      <point x="267" y="0" type="line"/>
      <point x="859" y="817" type="line"/>
      <point x="859" y="0" type="line"/>
      <point x="1035" y="0" type="line"/>
      <point x="1035" y="1060" type="line"/>
      <point x="859" y="1060" type="line"/>
      <point x="286" y="251" type="line"/>
      <point x="286" y="1060" type="line"/>
      <point x="110" y="1060" type="line"/>
      <point x="110" y="0" type="line"/>
    </contour>
  </outline>
</glyph>
<glyph name="uni043A" format="1">
  <advance width="1087"/>
  <unicode hex="043A"/>
  <outline>
    <contour>
      <point x="146" y="0" type="line"/>
      <point x="326" y="0" type="line"/>
      <point x="326" y="429" type="line"/>
      <point x="280" y="334" type="line"/>
      <point x="479" y="517" type="line"/>
      <point x="412" y="517" type="line"/>
      <point x="851" y="0" type="line"/>
      <point x="1064" y="0" type="line"/>
      <point x="541" y="615" type="line"/>
      <point x="541" y="533" type="line"/>
      <point x="1050" y="1060" type="line"/>
      <point x="829" y="1060" type="line"/>
      <point x="282" y="501" type="line"/>
      <point x="319" y="501" type="line"/>
      <point x="326" y="751" type="line"/>
      <point x="326" y="1060" type="line"/>
      <point x="146" y="1060" type="line"/>
    </contour>
  </outline>
</glyph>
<glyph name="uni043B" format="1">
  <advance width="1244"/>
  <unicode hex="043B"/>
  <outline>
    <contour>
      <point x="30" y="-7" type="curve"/>
      <point x="12" y="147" type="line"/>
      <point x="188" y="147"/>
      <point x="238" y="172"/>
      <point x="280" y="462" type="curve" smooth="yes"/>
      <point x="366" y="1060" type="line"/>
      <point x="1098" y="1060" type="line"/>
      <point x="1098" y="0" type="line"/>
      <point x="918" y="0" type="line"/>
      <point x="918" y="928" type="line"/>
      <point x="524" y="928" type="line"/>
      <point x="456" y="456" type="line" smooth="yes"/>
      <point x="399" y="43"/>
      <point x="278" y="-7"/>
    </contour>
  </outline>
</glyph>
